<svg width="1200" height="630" viewBox="0 0 1200 630" fill="none" xmlns="http://www.w3.org/2000/svg">
<g clip-path="url(#clip0_969_79)">
<path d="M1200 0H0V630H1200V0Z" fill="#0C0E13"/>
<path d="M1132 84H68C63.5817 84 60 91.5216 60 100.8V529.2C60 538.478 63.5817 546 68 546H1132C1136.42 546 1140 538.478 1140 529.2V100.8C1140 91.5216 1136.42 84 1132 84Z" fill="white" fill-opacity="0.02" stroke="white" stroke-opacity="0.08"/>
<path d="M89 144C93.9706 144 98 139.971 98 135C98 130.029 93.9706 126 89 126C84.0294 126 80 130.029 80 135C80 139.971 84.0294 144 89 144Z" fill="#FF5F56"/>
<path d="M120 144C124.971 144 129 139.971 129 135C129 130.029 124.971 126 120 126C115.029 126 111 130.029 111 135C111 139.971 115.029 144 120 144Z" fill="#FFBD2E"/>
<path d="M151 144C155.971 144 160 139.971 160 135C160 130.029 155.971 126 151 126C146.029 126 142 130.029 142 135C142 139.971 146.029 144 151 144Z" fill="#27C93F"/>
<path d="M85.0186 218.67V217.738C85.0186 217.557 85.0508 217.428 85.1152 217.352C85.1855 217.275 85.2764 217.237 85.3877 217.237C85.499 217.237 85.5869 217.275 85.6514 217.352C85.7217 217.428 85.7568 217.557 85.7568 217.738V218.67C86.1553 218.705 86.4834 218.77 86.7412 218.863C86.999 218.951 87.3037 219.112 87.6553 219.347C87.6611 219.2 87.6992 219.092 87.7695 219.021C87.8398 218.951 87.9248 218.916 88.0244 218.916C88.1357 218.916 88.2266 218.954 88.2969 219.03C88.3672 219.106 88.4023 219.232 88.4023 219.408V220.507C88.4023 220.683 88.3672 220.809 88.2969 220.885C88.2266 220.961 88.1357 220.999 88.0244 220.999C87.9307 220.999 87.8516 220.97 87.7871 220.911C87.7227 220.847 87.6787 220.741 87.6553 220.595C87.6201 220.319 87.4385 220.07 87.1104 219.848C86.6299 219.531 86.0645 219.373 85.4141 219.373C84.752 219.373 84.2041 219.566 83.7705 219.953C83.3428 220.34 83.1289 220.776 83.1289 221.263C83.1289 221.749 83.3193 222.121 83.7002 222.379C83.9873 222.578 84.5908 222.766 85.5107 222.941C86.4365 223.111 87.0635 223.272 87.3916 223.425C87.8604 223.63 88.209 223.908 88.4375 224.26C88.6719 224.611 88.7891 225.036 88.7891 225.534C88.7891 226.202 88.5283 226.791 88.0068 227.301C87.4854 227.805 86.7354 228.106 85.7568 228.206V230.377C85.7568 230.559 85.7217 230.688 85.6514 230.764C85.5869 230.84 85.499 230.878 85.3877 230.878C85.2764 230.878 85.1855 230.84 85.1152 230.764C85.0508 230.688 85.0186 230.559 85.0186 230.377V228.206C84.1162 228.147 83.3574 227.854 82.7422 227.327C82.7422 227.585 82.7305 227.743 82.707 227.802C82.6895 227.854 82.6484 227.904 82.584 227.951C82.5195 227.992 82.4492 228.013 82.373 228.013C82.2676 228.013 82.1797 227.975 82.1094 227.898C82.0391 227.822 82.0039 227.696 82.0039 227.521V226.079C82.0039 225.903 82.0361 225.777 82.1006 225.701C82.1709 225.619 82.2617 225.578 82.373 225.578C82.4785 225.578 82.5693 225.616 82.6455 225.692C82.6982 225.745 82.7305 225.862 82.7422 226.044C82.7773 226.354 83.0264 226.674 83.4893 227.002C83.958 227.324 84.5908 227.485 85.3877 227.485C86.2139 227.485 86.8643 227.289 87.3389 226.896C87.8135 226.504 88.0508 226.047 88.0508 225.525C88.0508 225.18 87.9629 224.884 87.7871 224.638C87.6113 224.392 87.3359 224.189 86.9609 224.031C86.7148 223.932 86.1992 223.809 85.4141 223.662C84.2773 223.439 83.4893 223.152 83.0498 222.801C82.6045 222.449 82.3818 221.934 82.3818 221.254C82.3818 220.621 82.6221 220.056 83.1025 219.558C83.583 219.06 84.2217 218.764 85.0186 218.67Z" fill="#6597E9"/>
<path d="M108.359 231V229.818C107.168 230.821 105.895 231.322 104.541 231.322C103.558 231.322 102.79 231.075 102.236 230.58C101.683 230.079 101.406 229.467 101.406 228.744C101.406 227.95 101.771 227.257 102.5 226.664C103.229 226.072 104.294 225.775 105.693 225.775C106.071 225.775 106.481 225.801 106.924 225.854C107.367 225.899 107.845 225.974 108.359 226.078V224.75C108.359 224.301 108.151 223.91 107.734 223.578C107.318 223.246 106.693 223.08 105.859 223.08C105.221 223.08 104.326 223.266 103.174 223.637C102.965 223.702 102.832 223.734 102.773 223.734C102.669 223.734 102.578 223.695 102.5 223.617C102.428 223.539 102.393 223.441 102.393 223.324C102.393 223.214 102.425 223.126 102.49 223.061C102.581 222.963 102.949 222.829 103.594 222.66C104.609 222.387 105.378 222.25 105.898 222.25C106.934 222.25 107.741 222.507 108.32 223.021C108.9 223.529 109.189 224.105 109.189 224.75V230.18H110.283C110.485 230.18 110.628 230.219 110.713 230.297C110.798 230.368 110.84 230.466 110.84 230.59C110.84 230.707 110.798 230.805 110.713 230.883C110.628 230.961 110.485 231 110.283 231H108.359ZM108.359 226.918C107.975 226.807 107.568 226.726 107.139 226.674C106.709 226.622 106.257 226.596 105.781 226.596C104.59 226.596 103.659 226.853 102.988 227.367C102.48 227.751 102.227 228.21 102.227 228.744C102.227 229.239 102.419 229.656 102.803 229.994C103.193 230.333 103.76 230.502 104.502 230.502C105.212 230.502 105.869 230.362 106.475 230.082C107.087 229.796 107.715 229.343 108.359 228.725V226.918ZM117.031 222.543V224.613C118.099 223.65 118.896 223.031 119.424 222.758C119.958 222.478 120.449 222.338 120.898 222.338C121.387 222.338 121.839 222.504 122.256 222.836C122.679 223.161 122.891 223.409 122.891 223.578C122.891 223.702 122.848 223.806 122.764 223.891C122.686 223.969 122.585 224.008 122.461 224.008C122.396 224.008 122.34 223.998 122.295 223.979C122.249 223.952 122.165 223.878 122.041 223.754C121.813 223.526 121.615 223.37 121.445 223.285C121.276 223.201 121.11 223.158 120.947 223.158C120.589 223.158 120.156 223.301 119.648 223.588C119.147 223.874 118.275 224.574 117.031 225.688V230.18H120.664C120.866 230.18 121.009 230.219 121.094 230.297C121.178 230.368 121.221 230.466 121.221 230.59C121.221 230.707 121.178 230.805 121.094 230.883C121.009 230.961 120.866 231 120.664 231H114.229C114.033 231 113.893 230.964 113.809 230.893C113.724 230.814 113.682 230.717 113.682 230.6C113.682 230.489 113.721 230.398 113.799 230.326C113.883 230.248 114.027 230.209 114.229 230.209H116.211V223.373H114.697C114.502 223.373 114.362 223.334 114.277 223.256C114.193 223.178 114.15 223.077 114.15 222.953C114.15 222.836 114.189 222.738 114.268 222.66C114.352 222.582 114.495 222.543 114.697 222.543H117.031ZM133.447 223.373V223.1C133.447 222.898 133.486 222.755 133.564 222.67C133.643 222.585 133.74 222.543 133.857 222.543C133.981 222.543 134.082 222.585 134.16 222.67C134.238 222.755 134.277 222.898 134.277 223.1V224.955C134.271 225.157 134.229 225.3 134.15 225.385C134.079 225.469 133.981 225.512 133.857 225.512C133.747 225.512 133.652 225.476 133.574 225.404C133.503 225.326 133.46 225.199 133.447 225.023C133.408 224.561 133.102 224.122 132.529 223.705C131.963 223.288 131.198 223.08 130.234 223.08C129.017 223.08 128.092 223.461 127.461 224.223C126.829 224.984 126.514 225.857 126.514 226.84C126.514 227.901 126.862 228.777 127.559 229.467C128.255 230.157 129.157 230.502 130.264 230.502C130.902 230.502 131.549 230.385 132.207 230.15C132.871 229.916 133.47 229.538 134.004 229.018C134.141 228.887 134.261 228.822 134.365 228.822C134.476 228.822 134.567 228.861 134.639 228.939C134.717 229.011 134.756 229.102 134.756 229.213C134.756 229.493 134.427 229.848 133.77 230.277C132.708 230.974 131.527 231.322 130.225 231.322C128.903 231.322 127.816 230.902 126.963 230.062C126.117 229.216 125.693 228.145 125.693 226.85C125.693 225.528 126.126 224.431 126.992 223.559C127.865 222.686 128.962 222.25 130.283 222.25C131.54 222.25 132.594 222.624 133.447 223.373ZM144.395 231V229.818C143.203 230.821 141.93 231.322 140.576 231.322C139.593 231.322 138.825 231.075 138.271 230.58C137.718 230.079 137.441 229.467 137.441 228.744C137.441 227.95 137.806 227.257 138.535 226.664C139.264 226.072 140.329 225.775 141.729 225.775C142.106 225.775 142.516 225.801 142.959 225.854C143.402 225.899 143.88 225.974 144.395 226.078V224.75C144.395 224.301 144.186 223.91 143.77 223.578C143.353 223.246 142.728 223.08 141.895 223.08C141.257 223.08 140.361 223.266 139.209 223.637C139.001 223.702 138.867 223.734 138.809 223.734C138.704 223.734 138.613 223.695 138.535 223.617C138.464 223.539 138.428 223.441 138.428 223.324C138.428 223.214 138.46 223.126 138.525 223.061C138.617 222.963 138.984 222.829 139.629 222.66C140.645 222.387 141.413 222.25 141.934 222.25C142.969 222.25 143.776 222.507 144.355 223.021C144.935 223.529 145.225 224.105 145.225 224.75V230.18H146.318C146.52 230.18 146.663 230.219 146.748 230.297C146.833 230.368 146.875 230.466 146.875 230.59C146.875 230.707 146.833 230.805 146.748 230.883C146.663 230.961 146.52 231 146.318 231H144.395ZM144.395 226.918C144.01 226.807 143.604 226.726 143.174 226.674C142.744 226.622 142.292 226.596 141.816 226.596C140.625 226.596 139.694 226.853 139.023 227.367C138.516 227.751 138.262 228.21 138.262 228.744C138.262 229.239 138.454 229.656 138.838 229.994C139.229 230.333 139.795 230.502 140.537 230.502C141.247 230.502 141.904 230.362 142.51 230.082C143.122 229.796 143.75 229.343 144.395 228.725V226.918ZM151.396 222.543V223.783C151.969 223.204 152.487 222.803 152.949 222.582C153.411 222.361 153.932 222.25 154.512 222.25C155.137 222.25 155.706 222.383 156.221 222.65C156.585 222.846 156.914 223.171 157.207 223.627C157.507 224.076 157.656 224.538 157.656 225.014V230.18H158.35C158.545 230.18 158.685 230.219 158.77 230.297C158.854 230.368 158.896 230.466 158.896 230.59C158.896 230.707 158.854 230.805 158.77 230.883C158.685 230.961 158.545 231 158.35 231H156.152C155.951 231 155.807 230.961 155.723 230.883C155.638 230.805 155.596 230.707 155.596 230.59C155.596 230.466 155.638 230.368 155.723 230.297C155.807 230.219 155.951 230.18 156.152 230.18H156.836V225.15C156.836 224.571 156.624 224.083 156.201 223.686C155.778 223.282 155.212 223.08 154.502 223.08C153.962 223.08 153.493 223.191 153.096 223.412C152.699 223.627 152.132 224.167 151.396 225.033V230.18H152.324C152.52 230.18 152.66 230.219 152.744 230.297C152.829 230.368 152.871 230.466 152.871 230.59C152.871 230.707 152.829 230.805 152.744 230.883C152.66 230.961 152.52 231 152.324 231H149.648C149.453 231 149.313 230.961 149.229 230.883C149.144 230.805 149.102 230.707 149.102 230.59C149.102 230.466 149.144 230.368 149.229 230.297C149.313 230.219 149.453 230.18 149.648 230.18H150.576V223.373H149.883C149.688 223.373 149.548 223.334 149.463 223.256C149.378 223.178 149.336 223.077 149.336 222.953C149.336 222.836 149.378 222.738 149.463 222.66C149.548 222.582 149.688 222.543 149.883 222.543H151.396ZM168.867 231V229.799C167.747 230.814 166.536 231.322 165.234 231.322C164.434 231.322 163.825 231.104 163.408 230.668C162.868 230.095 162.598 229.428 162.598 228.666V223.373H161.494C161.299 223.373 161.159 223.334 161.074 223.256C160.99 223.178 160.947 223.077 160.947 222.953C160.947 222.836 160.99 222.738 161.074 222.66C161.159 222.582 161.299 222.543 161.494 222.543H163.418V228.666C163.418 229.2 163.587 229.639 163.926 229.984C164.264 230.329 164.688 230.502 165.195 230.502C166.53 230.502 167.754 229.89 168.867 228.666V223.373H167.354C167.158 223.373 167.018 223.334 166.934 223.256C166.849 223.178 166.807 223.077 166.807 222.953C166.807 222.836 166.849 222.738 166.934 222.66C167.018 222.582 167.158 222.543 167.354 222.543H169.688V230.18H170.381C170.576 230.18 170.716 230.219 170.801 230.297C170.885 230.368 170.928 230.466 170.928 230.59C170.928 230.707 170.885 230.805 170.801 230.883C170.716 230.961 170.576 231 170.381 231H168.867ZM174.336 222.543V223.373C175.033 222.624 175.732 222.25 176.436 222.25C176.859 222.25 177.23 222.364 177.549 222.592C177.868 222.813 178.135 223.152 178.35 223.607C178.714 223.152 179.082 222.813 179.453 222.592C179.831 222.364 180.208 222.25 180.586 222.25C181.178 222.25 181.65 222.442 182.002 222.826C182.464 223.321 182.695 223.861 182.695 224.447V230.18H183.389C183.584 230.18 183.724 230.219 183.809 230.297C183.893 230.368 183.936 230.466 183.936 230.59C183.936 230.707 183.893 230.805 183.809 230.883C183.724 230.961 183.584 231 183.389 231H181.875V224.525C181.875 224.109 181.748 223.764 181.494 223.49C181.24 223.217 180.947 223.08 180.615 223.08C180.316 223.08 180 223.194 179.668 223.422C179.336 223.643 178.958 224.083 178.535 224.74V230.18H179.219C179.414 230.18 179.554 230.219 179.639 230.297C179.723 230.368 179.766 230.466 179.766 230.59C179.766 230.707 179.723 230.805 179.639 230.883C179.554 230.961 179.414 231 179.219 231H177.705V224.584C177.705 224.148 177.575 223.79 177.314 223.51C177.061 223.223 176.774 223.08 176.455 223.08C176.162 223.08 175.872 223.174 175.586 223.363C175.189 223.63 174.772 224.089 174.336 224.74V230.18H175.029C175.225 230.18 175.365 230.219 175.449 230.297C175.534 230.368 175.576 230.466 175.576 230.59C175.576 230.707 175.534 230.805 175.449 230.883C175.365 230.961 175.225 231 175.029 231H172.822C172.627 231 172.487 230.961 172.402 230.883C172.318 230.805 172.275 230.707 172.275 230.59C172.275 230.466 172.318 230.368 172.402 230.297C172.487 230.219 172.627 230.18 172.822 230.18H173.516V223.373H172.822C172.627 223.373 172.487 223.334 172.402 223.256C172.318 223.178 172.275 223.077 172.275 222.953C172.275 222.836 172.318 222.738 172.402 222.66C172.487 222.582 172.627 222.543 172.822 222.543H174.336ZM206.279 224.76V225.932H197.91V224.76H206.279ZM218.291 224.76V225.932H209.922V224.76H218.291ZM228.828 223.08C228.828 222.891 228.867 222.755 228.945 222.67C229.023 222.585 229.121 222.543 229.238 222.543C229.362 222.543 229.463 222.585 229.541 222.67C229.619 222.755 229.658 222.898 229.658 223.1V224.506C229.658 224.701 229.619 224.841 229.541 224.926C229.463 225.01 229.362 225.053 229.238 225.053C229.128 225.053 229.033 225.017 228.955 224.945C228.883 224.874 228.841 224.757 228.828 224.594C228.789 224.203 228.587 223.881 228.223 223.627C227.689 223.262 226.982 223.08 226.104 223.08C225.186 223.08 224.473 223.266 223.965 223.637C223.581 223.917 223.389 224.229 223.389 224.574C223.389 224.965 223.617 225.29 224.072 225.551C224.385 225.733 224.977 225.873 225.85 225.971C226.989 226.094 227.78 226.234 228.223 226.391C228.854 226.618 229.323 226.934 229.629 227.338C229.941 227.742 230.098 228.178 230.098 228.646C230.098 229.343 229.762 229.965 229.092 230.512C228.421 231.052 227.438 231.322 226.143 231.322C224.847 231.322 223.786 230.993 222.959 230.336C222.959 230.557 222.946 230.701 222.92 230.766C222.894 230.831 222.845 230.886 222.773 230.932C222.708 230.977 222.633 231 222.549 231C222.432 231 222.334 230.958 222.256 230.873C222.178 230.788 222.139 230.648 222.139 230.453V228.764C222.139 228.568 222.174 228.428 222.246 228.344C222.324 228.259 222.425 228.217 222.549 228.217C222.666 228.217 222.764 228.259 222.842 228.344C222.926 228.422 222.969 228.529 222.969 228.666C222.969 228.965 223.044 229.216 223.193 229.418C223.421 229.73 223.783 229.991 224.277 230.199C224.779 230.401 225.391 230.502 226.113 230.502C227.181 230.502 227.975 230.303 228.496 229.906C229.017 229.509 229.277 229.089 229.277 228.646C229.277 228.139 229.014 227.732 228.486 227.426C227.952 227.12 227.174 226.915 226.152 226.811C225.137 226.706 224.408 226.57 223.965 226.4C223.522 226.231 223.177 225.977 222.93 225.639C222.682 225.3 222.559 224.936 222.559 224.545C222.559 223.842 222.904 223.285 223.594 222.875C224.284 222.458 225.107 222.25 226.064 222.25C227.197 222.25 228.118 222.527 228.828 223.08ZM235.43 218.744V223.793C235.951 223.227 236.449 222.829 236.924 222.602C237.406 222.367 237.943 222.25 238.535 222.25C239.173 222.25 239.714 222.364 240.156 222.592C240.605 222.813 240.98 223.158 241.279 223.627C241.579 224.089 241.729 224.577 241.729 225.092V230.18H242.646C242.848 230.18 242.988 230.219 243.066 230.297C243.151 230.368 243.193 230.466 243.193 230.59C243.193 230.707 243.151 230.805 243.066 230.883C242.988 230.961 242.848 231 242.646 231H239.98C239.779 231 239.635 230.961 239.551 230.883C239.466 230.805 239.424 230.707 239.424 230.59C239.424 230.466 239.466 230.368 239.551 230.297C239.635 230.219 239.779 230.18 239.98 230.18H240.898V225.15C240.898 224.558 240.684 224.063 240.254 223.666C239.831 223.269 239.238 223.07 238.477 223.07C237.878 223.07 237.367 223.217 236.943 223.51C236.637 223.718 236.133 224.21 235.43 224.984V230.18H236.357C236.553 230.18 236.693 230.219 236.777 230.297C236.862 230.368 236.904 230.466 236.904 230.59C236.904 230.707 236.862 230.805 236.777 230.883C236.693 230.961 236.553 231 236.357 231H233.682C233.486 231 233.346 230.961 233.262 230.883C233.177 230.805 233.135 230.707 233.135 230.59C233.135 230.466 233.177 230.368 233.262 230.297C233.346 230.219 233.486 230.18 233.682 230.18H234.609V219.574H233.506C233.311 219.574 233.171 219.535 233.086 219.457C233.001 219.379 232.959 219.278 232.959 219.154C232.959 219.037 233.001 218.939 233.086 218.861C233.171 218.783 233.311 218.744 233.506 218.744H235.43ZM252.5 231V229.818C251.309 230.821 250.036 231.322 248.682 231.322C247.699 231.322 246.93 231.075 246.377 230.58C245.824 230.079 245.547 229.467 245.547 228.744C245.547 227.95 245.911 227.257 246.641 226.664C247.37 226.072 248.434 225.775 249.834 225.775C250.212 225.775 250.622 225.801 251.064 225.854C251.507 225.899 251.986 225.974 252.5 226.078V224.75C252.5 224.301 252.292 223.91 251.875 223.578C251.458 223.246 250.833 223.08 250 223.08C249.362 223.08 248.467 223.266 247.314 223.637C247.106 223.702 246.973 223.734 246.914 223.734C246.81 223.734 246.719 223.695 246.641 223.617C246.569 223.539 246.533 223.441 246.533 223.324C246.533 223.214 246.566 223.126 246.631 223.061C246.722 222.963 247.09 222.829 247.734 222.66C248.75 222.387 249.518 222.25 250.039 222.25C251.074 222.25 251.882 222.507 252.461 223.021C253.04 223.529 253.33 224.105 253.33 224.75V230.18H254.424C254.626 230.18 254.769 230.219 254.854 230.297C254.938 230.368 254.98 230.466 254.98 230.59C254.98 230.707 254.938 230.805 254.854 230.883C254.769 230.961 254.626 231 254.424 231H252.5ZM252.5 226.918C252.116 226.807 251.709 226.726 251.279 226.674C250.85 226.622 250.397 226.596 249.922 226.596C248.73 226.596 247.799 226.853 247.129 227.367C246.621 227.751 246.367 228.21 246.367 228.744C246.367 229.239 246.559 229.656 246.943 229.994C247.334 230.333 247.9 230.502 248.643 230.502C249.352 230.502 250.01 230.362 250.615 230.082C251.227 229.796 251.855 229.343 252.5 228.725V226.918ZM261.172 222.543V224.613C262.24 223.65 263.037 223.031 263.564 222.758C264.098 222.478 264.59 222.338 265.039 222.338C265.527 222.338 265.98 222.504 266.396 222.836C266.82 223.161 267.031 223.409 267.031 223.578C267.031 223.702 266.989 223.806 266.904 223.891C266.826 223.969 266.725 224.008 266.602 224.008C266.536 224.008 266.481 223.998 266.436 223.979C266.39 223.952 266.305 223.878 266.182 223.754C265.954 223.526 265.755 223.37 265.586 223.285C265.417 223.201 265.251 223.158 265.088 223.158C264.73 223.158 264.297 223.301 263.789 223.588C263.288 223.874 262.415 224.574 261.172 225.688V230.18H264.805C265.007 230.18 265.15 230.219 265.234 230.297C265.319 230.368 265.361 230.466 265.361 230.59C265.361 230.707 265.319 230.805 265.234 230.883C265.15 230.961 265.007 231 264.805 231H258.369C258.174 231 258.034 230.964 257.949 230.893C257.865 230.814 257.822 230.717 257.822 230.6C257.822 230.489 257.861 230.398 257.939 230.326C258.024 230.248 258.167 230.209 258.369 230.209H260.352V223.373H258.838C258.643 223.373 258.503 223.334 258.418 223.256C258.333 223.178 258.291 223.077 258.291 222.953C258.291 222.836 258.33 222.738 258.408 222.66C258.493 222.582 258.636 222.543 258.838 222.543H261.172ZM278.604 226.967H270.244C270.387 228.028 270.83 228.884 271.572 229.535C272.321 230.18 273.245 230.502 274.346 230.502C274.958 230.502 275.599 230.401 276.27 230.199C276.94 229.997 277.487 229.73 277.91 229.398C278.034 229.301 278.141 229.252 278.232 229.252C278.337 229.252 278.428 229.294 278.506 229.379C278.584 229.457 278.623 229.551 278.623 229.662C278.623 229.773 278.571 229.88 278.467 229.984C278.154 230.31 277.598 230.616 276.797 230.902C276.003 231.182 275.186 231.322 274.346 231.322C272.939 231.322 271.764 230.863 270.82 229.945C269.883 229.021 269.414 227.904 269.414 226.596C269.414 225.404 269.854 224.382 270.732 223.529C271.618 222.676 272.712 222.25 274.014 222.25C275.355 222.25 276.458 222.689 277.324 223.568C278.19 224.441 278.617 225.574 278.604 226.967ZM277.773 226.137C277.611 225.232 277.181 224.496 276.484 223.93C275.794 223.363 274.971 223.08 274.014 223.08C273.057 223.08 272.233 223.36 271.543 223.92C270.853 224.48 270.423 225.219 270.254 226.137H277.773ZM294.785 218.949H297.383L296.699 223.695C296.66 223.943 296.589 224.118 296.484 224.223C296.38 224.32 296.247 224.369 296.084 224.369C295.921 224.369 295.788 224.32 295.684 224.223C295.579 224.118 295.508 223.943 295.469 223.695L294.785 218.949ZM298.975 218.949H301.572L300.889 223.695C300.85 223.943 300.778 224.118 300.674 224.223C300.57 224.32 300.439 224.369 300.283 224.369C300.114 224.369 299.977 224.32 299.873 224.223C299.769 224.118 299.701 223.943 299.668 223.695L298.975 218.949ZM310.615 218.744V230.18H313.838C314.04 230.18 314.183 230.219 314.268 230.297C314.352 230.368 314.395 230.466 314.395 230.59C314.395 230.707 314.352 230.805 314.268 230.883C314.183 230.961 314.04 231 313.838 231H306.572C306.377 231 306.237 230.961 306.152 230.883C306.068 230.805 306.025 230.707 306.025 230.59C306.025 230.466 306.068 230.368 306.152 230.297C306.237 230.219 306.377 230.18 306.572 230.18H309.795V219.574H307.432C307.236 219.574 307.093 219.535 307.002 219.457C306.917 219.379 306.875 219.278 306.875 219.154C306.875 219.037 306.917 218.939 307.002 218.861C307.087 218.783 307.23 218.744 307.432 218.744H310.615ZM322.617 218.334V220.453H321.406V218.334H322.617ZM322.646 222.543V230.18H325.869C326.071 230.18 326.214 230.219 326.299 230.297C326.383 230.368 326.426 230.466 326.426 230.59C326.426 230.707 326.383 230.805 326.299 230.883C326.214 230.961 326.071 231 325.869 231H318.604C318.408 231 318.268 230.961 318.184 230.883C318.099 230.805 318.057 230.707 318.057 230.59C318.057 230.466 318.099 230.368 318.184 230.297C318.268 230.219 318.408 230.18 318.604 230.18H321.826V223.373H319.434C319.238 223.373 319.095 223.334 319.004 223.256C318.919 223.178 318.877 223.08 318.877 222.963C318.877 222.839 318.919 222.738 319.004 222.66C319.089 222.582 319.232 222.543 319.434 222.543H322.646ZM331.572 222.543V223.783C332.145 223.204 332.663 222.803 333.125 222.582C333.587 222.361 334.108 222.25 334.688 222.25C335.312 222.25 335.882 222.383 336.396 222.65C336.761 222.846 337.09 223.171 337.383 223.627C337.682 224.076 337.832 224.538 337.832 225.014V230.18H338.525C338.721 230.18 338.861 230.219 338.945 230.297C339.03 230.368 339.072 230.466 339.072 230.59C339.072 230.707 339.03 230.805 338.945 230.883C338.861 230.961 338.721 231 338.525 231H336.328C336.126 231 335.983 230.961 335.898 230.883C335.814 230.805 335.771 230.707 335.771 230.59C335.771 230.466 335.814 230.368 335.898 230.297C335.983 230.219 336.126 230.18 336.328 230.18H337.012V225.15C337.012 224.571 336.8 224.083 336.377 223.686C335.954 223.282 335.387 223.08 334.678 223.08C334.137 223.08 333.669 223.191 333.271 223.412C332.874 223.627 332.308 224.167 331.572 225.033V230.18H332.5C332.695 230.18 332.835 230.219 332.92 230.297C333.005 230.368 333.047 230.466 333.047 230.59C333.047 230.707 333.005 230.805 332.92 230.883C332.835 230.961 332.695 231 332.5 231H329.824C329.629 231 329.489 230.961 329.404 230.883C329.32 230.805 329.277 230.707 329.277 230.59C329.277 230.466 329.32 230.368 329.404 230.297C329.489 230.219 329.629 230.18 329.824 230.18H330.752V223.373H330.059C329.863 223.373 329.723 223.334 329.639 223.256C329.554 223.178 329.512 223.077 329.512 222.953C329.512 222.836 329.554 222.738 329.639 222.66C329.723 222.582 329.863 222.543 330.059 222.543H331.572ZM344.57 227.348V231H342.646C342.451 231 342.311 230.961 342.227 230.883C342.142 230.805 342.1 230.707 342.1 230.59C342.1 230.466 342.142 230.368 342.227 230.297C342.311 230.219 342.451 230.18 342.646 230.18H343.75V219.574H342.646C342.451 219.574 342.311 219.535 342.227 219.457C342.142 219.379 342.1 219.278 342.1 219.154C342.1 219.037 342.142 218.939 342.227 218.861C342.311 218.783 342.451 218.744 342.646 218.744H344.57V226.303L348.057 223.373H347.637C347.441 223.373 347.301 223.334 347.217 223.256C347.132 223.178 347.09 223.08 347.09 222.963C347.09 222.839 347.132 222.738 347.217 222.66C347.301 222.582 347.441 222.543 347.637 222.543H350.264C350.465 222.543 350.609 222.582 350.693 222.66C350.778 222.738 350.82 222.839 350.82 222.963C350.82 223.08 350.778 223.178 350.693 223.256C350.609 223.334 350.465 223.373 350.264 223.373H349.316L346.113 226.049L350.166 230.18H351.113C351.315 230.18 351.458 230.219 351.543 230.297C351.628 230.368 351.67 230.466 351.67 230.59C351.67 230.707 351.628 230.805 351.543 230.883C351.458 230.961 351.315 231 351.113 231H348.457C348.262 231 348.122 230.961 348.037 230.883C347.952 230.805 347.91 230.707 347.91 230.59C347.91 230.466 347.952 230.368 348.037 230.297C348.122 230.219 348.262 230.18 348.457 230.18H349.033L345.508 226.557L344.57 227.348ZM360.957 223.08C360.957 222.891 360.996 222.755 361.074 222.67C361.152 222.585 361.25 222.543 361.367 222.543C361.491 222.543 361.592 222.585 361.67 222.67C361.748 222.755 361.787 222.898 361.787 223.1V224.506C361.787 224.701 361.748 224.841 361.67 224.926C361.592 225.01 361.491 225.053 361.367 225.053C361.257 225.053 361.162 225.017 361.084 224.945C361.012 224.874 360.97 224.757 360.957 224.594C360.918 224.203 360.716 223.881 360.352 223.627C359.818 223.262 359.111 223.08 358.232 223.08C357.314 223.08 356.602 223.266 356.094 223.637C355.71 223.917 355.518 224.229 355.518 224.574C355.518 224.965 355.745 225.29 356.201 225.551C356.514 225.733 357.106 225.873 357.979 225.971C359.118 226.094 359.909 226.234 360.352 226.391C360.983 226.618 361.452 226.934 361.758 227.338C362.07 227.742 362.227 228.178 362.227 228.646C362.227 229.343 361.891 229.965 361.221 230.512C360.55 231.052 359.567 231.322 358.271 231.322C356.976 231.322 355.915 230.993 355.088 230.336C355.088 230.557 355.075 230.701 355.049 230.766C355.023 230.831 354.974 230.886 354.902 230.932C354.837 230.977 354.762 231 354.678 231C354.561 231 354.463 230.958 354.385 230.873C354.307 230.788 354.268 230.648 354.268 230.453V228.764C354.268 228.568 354.303 228.428 354.375 228.344C354.453 228.259 354.554 228.217 354.678 228.217C354.795 228.217 354.893 228.259 354.971 228.344C355.055 228.422 355.098 228.529 355.098 228.666C355.098 228.965 355.173 229.216 355.322 229.418C355.55 229.73 355.911 229.991 356.406 230.199C356.908 230.401 357.52 230.502 358.242 230.502C359.31 230.502 360.104 230.303 360.625 229.906C361.146 229.509 361.406 229.089 361.406 228.646C361.406 228.139 361.143 227.732 360.615 227.426C360.081 227.12 359.303 226.915 358.281 226.811C357.266 226.706 356.536 226.57 356.094 226.4C355.651 226.231 355.306 225.977 355.059 225.639C354.811 225.3 354.688 224.936 354.688 224.545C354.688 223.842 355.033 223.285 355.723 222.875C356.413 222.458 357.236 222.25 358.193 222.25C359.326 222.25 360.247 222.527 360.957 223.08ZM368.633 228.051H371.299L368.398 233.441C368.223 233.767 368.011 233.93 367.764 233.93C367.601 233.93 367.461 233.871 367.344 233.754C367.233 233.643 367.178 233.507 367.178 233.344C367.178 233.279 367.188 233.207 367.207 233.129L368.633 228.051ZM393.74 223.373V230.18H397.344C397.539 230.18 397.679 230.219 397.764 230.297C397.848 230.368 397.891 230.466 397.891 230.59C397.891 230.707 397.848 230.805 397.764 230.883C397.679 230.961 397.539 231 397.344 231H390.928C390.732 231 390.592 230.961 390.508 230.883C390.423 230.805 390.381 230.707 390.381 230.59C390.381 230.466 390.423 230.368 390.508 230.297C390.592 230.219 390.732 230.18 390.928 230.18H392.91V223.373H391.133C390.938 223.373 390.798 223.334 390.713 223.256C390.628 223.178 390.586 223.077 390.586 222.953C390.586 222.836 390.628 222.738 390.713 222.66C390.798 222.582 390.938 222.543 391.133 222.543H392.91V221.303C392.91 220.613 393.19 220.014 393.75 219.506C394.31 218.998 395.052 218.744 395.977 218.744C396.751 218.744 397.578 218.816 398.457 218.959C398.789 219.011 398.988 219.073 399.053 219.145C399.124 219.216 399.16 219.311 399.16 219.428C399.16 219.545 399.121 219.643 399.043 219.721C398.965 219.792 398.861 219.828 398.73 219.828C398.678 219.828 398.59 219.818 398.467 219.799C397.484 219.649 396.654 219.574 395.977 219.574C395.26 219.574 394.707 219.75 394.316 220.102C393.932 220.453 393.74 220.854 393.74 221.303V222.543H397.578C397.773 222.543 397.913 222.582 397.998 222.66C398.083 222.738 398.125 222.839 398.125 222.963C398.125 223.08 398.083 223.178 397.998 223.256C397.913 223.334 397.773 223.373 397.578 223.373H393.74ZM406.699 218.334V220.453H405.488V218.334H406.699ZM406.729 222.543V230.18H409.951C410.153 230.18 410.296 230.219 410.381 230.297C410.465 230.368 410.508 230.466 410.508 230.59C410.508 230.707 410.465 230.805 410.381 230.883C410.296 230.961 410.153 231 409.951 231H402.686C402.49 231 402.35 230.961 402.266 230.883C402.181 230.805 402.139 230.707 402.139 230.59C402.139 230.466 402.181 230.368 402.266 230.297C402.35 230.219 402.49 230.18 402.686 230.18H405.908V223.373H403.516C403.32 223.373 403.177 223.334 403.086 223.256C403.001 223.178 402.959 223.08 402.959 222.963C402.959 222.839 403.001 222.738 403.086 222.66C403.171 222.582 403.314 222.543 403.516 222.543H406.729ZM418.721 218.744V230.18H421.943C422.145 230.18 422.288 230.219 422.373 230.297C422.458 230.368 422.5 230.466 422.5 230.59C422.5 230.707 422.458 230.805 422.373 230.883C422.288 230.961 422.145 231 421.943 231H414.678C414.482 231 414.342 230.961 414.258 230.883C414.173 230.805 414.131 230.707 414.131 230.59C414.131 230.466 414.173 230.368 414.258 230.297C414.342 230.219 414.482 230.18 414.678 230.18H417.9V219.574H415.537C415.342 219.574 415.199 219.535 415.107 219.457C415.023 219.379 414.98 219.278 414.98 219.154C414.98 219.037 415.023 218.939 415.107 218.861C415.192 218.783 415.335 218.744 415.537 218.744H418.721ZM434.756 226.967H426.396C426.54 228.028 426.982 228.884 427.725 229.535C428.473 230.18 429.398 230.502 430.498 230.502C431.11 230.502 431.751 230.401 432.422 230.199C433.092 229.997 433.639 229.73 434.062 229.398C434.186 229.301 434.294 229.252 434.385 229.252C434.489 229.252 434.58 229.294 434.658 229.379C434.736 229.457 434.775 229.551 434.775 229.662C434.775 229.773 434.723 229.88 434.619 229.984C434.307 230.31 433.75 230.616 432.949 230.902C432.155 231.182 431.338 231.322 430.498 231.322C429.092 231.322 427.917 230.863 426.973 229.945C426.035 229.021 425.566 227.904 425.566 226.596C425.566 225.404 426.006 224.382 426.885 223.529C427.77 222.676 428.864 222.25 430.166 222.25C431.507 222.25 432.611 222.689 433.477 223.568C434.342 224.441 434.769 225.574 434.756 226.967ZM433.926 226.137C433.763 225.232 433.333 224.496 432.637 223.93C431.947 223.363 431.123 223.08 430.166 223.08C429.209 223.08 428.385 223.36 427.695 223.92C427.005 224.48 426.576 225.219 426.406 226.137H433.926ZM445.039 223.08C445.039 222.891 445.078 222.755 445.156 222.67C445.234 222.585 445.332 222.543 445.449 222.543C445.573 222.543 445.674 222.585 445.752 222.67C445.83 222.755 445.869 222.898 445.869 223.1V224.506C445.869 224.701 445.83 224.841 445.752 224.926C445.674 225.01 445.573 225.053 445.449 225.053C445.339 225.053 445.244 225.017 445.166 224.945C445.094 224.874 445.052 224.757 445.039 224.594C445 224.203 444.798 223.881 444.434 223.627C443.9 223.262 443.193 223.08 442.314 223.08C441.396 223.08 440.684 223.266 440.176 223.637C439.792 223.917 439.6 224.229 439.6 224.574C439.6 224.965 439.827 225.29 440.283 225.551C440.596 225.733 441.188 225.873 442.061 225.971C443.2 226.094 443.991 226.234 444.434 226.391C445.065 226.618 445.534 226.934 445.84 227.338C446.152 227.742 446.309 228.178 446.309 228.646C446.309 229.343 445.973 229.965 445.303 230.512C444.632 231.052 443.649 231.322 442.354 231.322C441.058 231.322 439.997 230.993 439.17 230.336C439.17 230.557 439.157 230.701 439.131 230.766C439.105 230.831 439.056 230.886 438.984 230.932C438.919 230.977 438.844 231 438.76 231C438.643 231 438.545 230.958 438.467 230.873C438.389 230.788 438.35 230.648 438.35 230.453V228.764C438.35 228.568 438.385 228.428 438.457 228.344C438.535 228.259 438.636 228.217 438.76 228.217C438.877 228.217 438.975 228.259 439.053 228.344C439.137 228.422 439.18 228.529 439.18 228.666C439.18 228.965 439.255 229.216 439.404 229.418C439.632 229.73 439.993 229.991 440.488 230.199C440.99 230.401 441.602 230.502 442.324 230.502C443.392 230.502 444.186 230.303 444.707 229.906C445.228 229.509 445.488 229.089 445.488 228.646C445.488 228.139 445.225 227.732 444.697 227.426C444.163 227.12 443.385 226.915 442.363 226.811C441.348 226.706 440.618 226.57 440.176 226.4C439.733 226.231 439.388 225.977 439.141 225.639C438.893 225.3 438.77 224.936 438.77 224.545C438.77 223.842 439.115 223.285 439.805 222.875C440.495 222.458 441.318 222.25 442.275 222.25C443.408 222.25 444.329 222.527 445.039 223.08ZM450.938 218.949H453.535L452.852 223.695C452.812 223.943 452.741 224.118 452.637 224.223C452.533 224.32 452.399 224.369 452.236 224.369C452.074 224.369 451.94 224.32 451.836 224.223C451.732 224.118 451.66 223.943 451.621 223.695L450.938 218.949ZM455.127 218.949H457.725L457.041 223.695C457.002 223.943 456.93 224.118 456.826 224.223C456.722 224.32 456.592 224.369 456.436 224.369C456.266 224.369 456.13 224.32 456.025 224.223C455.921 224.118 455.853 223.943 455.82 223.695L455.127 218.949Z" fill="#CAE0FF"/>
<path d="M89.9404 297.575L81.96 302.022C81.8311 302.093 81.7344 302.128 81.6699 302.128C81.5703 302.128 81.4824 302.093 81.4062 302.022C81.3359 301.946 81.3008 301.858 81.3008 301.759C81.3008 301.612 81.4004 301.483 81.5996 301.372L88.4375 297.575L81.6084 293.778C81.4092 293.667 81.3096 293.538 81.3096 293.392C81.3096 293.292 81.3447 293.207 81.415 293.137C81.4912 293.061 81.5791 293.022 81.6787 293.022C81.7432 293.022 81.8398 293.058 81.9688 293.128L89.9404 297.575Z" fill="#6597E9"/>
<path d="M110.137 301.133H104.301L103.715 302.598H104.301C104.879 302.598 105.289 302.711 105.531 302.938C105.781 303.156 105.906 303.445 105.906 303.805C105.906 304.156 105.781 304.445 105.531 304.672C105.289 304.891 104.879 305 104.301 305H101.066C100.488 305 100.078 304.891 99.8359 304.672C99.5859 304.445 99.4609 304.152 99.4609 303.793C99.4609 303.434 99.5898 303.141 99.8477 302.914C100.105 302.688 100.531 302.582 101.125 302.598L104.898 293.199H103.328C102.75 293.199 102.336 293.09 102.086 292.871C101.844 292.645 101.723 292.352 101.723 291.992C101.723 291.633 101.844 291.344 102.086 291.125C102.336 290.898 102.75 290.785 103.328 290.785L108.52 290.797L113.301 302.598C113.863 302.598 114.234 302.66 114.414 302.785C114.773 303.043 114.953 303.383 114.953 303.805C114.953 304.156 114.832 304.445 114.59 304.672C114.348 304.891 113.938 305 113.359 305H110.125C109.547 305 109.133 304.891 108.883 304.672C108.641 304.445 108.52 304.152 108.52 303.793C108.52 303.441 108.641 303.156 108.883 302.938C109.133 302.711 109.547 302.598 110.125 302.598H110.711L110.137 301.133ZM109.141 298.73L107.207 293.973L105.262 298.73H109.141ZM121.117 294.359V295.859C122.125 295.133 122.918 294.648 123.496 294.406C124.082 294.164 124.629 294.043 125.137 294.043C125.918 294.043 126.676 294.332 127.41 294.91C127.91 295.301 128.16 295.699 128.16 296.105C128.16 296.449 128.039 296.742 127.797 296.984C127.562 297.219 127.277 297.336 126.941 297.336C126.645 297.336 126.332 297.188 126.004 296.891C125.676 296.594 125.383 296.445 125.125 296.445C124.789 296.445 124.285 296.656 123.613 297.078C122.949 297.5 122.117 298.133 121.117 298.977V302.598H124.539C125.117 302.598 125.527 302.711 125.77 302.938C126.02 303.156 126.145 303.445 126.145 303.805C126.145 304.156 126.02 304.445 125.77 304.672C125.527 304.891 125.117 305 124.539 305H117.285C116.707 305 116.293 304.891 116.043 304.672C115.801 304.445 115.68 304.152 115.68 303.793C115.68 303.441 115.801 303.156 116.043 302.938C116.293 302.711 116.707 302.598 117.285 302.598H118.715V296.762H117.848C117.27 296.762 116.855 296.652 116.605 296.434C116.363 296.207 116.242 295.914 116.242 295.555C116.242 295.203 116.363 294.918 116.605 294.699C116.855 294.473 117.27 294.359 117.848 294.359H121.117ZM139.773 294.793C140.062 294.52 140.359 294.383 140.664 294.383C141.008 294.383 141.289 294.508 141.508 294.758C141.734 295 141.848 295.406 141.848 295.977V297.523C141.848 298.102 141.734 298.512 141.508 298.754C141.289 298.996 141 299.117 140.641 299.117C140.312 299.117 140.035 299.023 139.809 298.836C139.645 298.695 139.516 298.41 139.422 297.98C139.328 297.543 139.102 297.219 138.742 297.008C138.109 296.633 137.301 296.445 136.316 296.445C135.184 296.445 134.273 296.777 133.586 297.441C132.906 298.105 132.566 298.945 132.566 299.961C132.566 300.898 132.895 301.641 133.551 302.188C134.207 302.727 135.297 302.996 136.82 302.996C137.82 302.996 138.637 302.895 139.27 302.691C139.645 302.566 140 302.355 140.336 302.059C140.672 301.754 140.977 301.602 141.25 301.602C141.578 301.602 141.859 301.723 142.094 301.965C142.336 302.207 142.457 302.492 142.457 302.82C142.457 303.352 142.094 303.855 141.367 304.332C140.289 305.043 138.711 305.398 136.633 305.398C134.766 305.398 133.312 305.012 132.273 304.238C130.867 303.199 130.164 301.777 130.164 299.973C130.164 298.262 130.734 296.848 131.875 295.73C133.016 294.605 134.504 294.043 136.34 294.043C137.004 294.043 137.621 294.105 138.191 294.23C138.762 294.355 139.289 294.543 139.773 294.793ZM152.605 305V304.438C152.004 304.758 151.34 304.996 150.613 305.152C149.887 305.316 149.227 305.398 148.633 305.398C147.344 305.398 146.297 305.059 145.492 304.379C144.688 303.691 144.285 302.934 144.285 302.105C144.285 301.098 144.797 300.164 145.82 299.305C146.852 298.438 148.273 298.004 150.086 298.004C150.812 298.004 151.652 298.082 152.605 298.238V297.664C152.605 297.305 152.449 297.012 152.137 296.785C151.832 296.559 151.246 296.445 150.379 296.445C149.668 296.445 148.746 296.586 147.613 296.867C147.191 296.969 146.863 297.02 146.629 297.02C146.309 297.02 146.035 296.906 145.809 296.68C145.59 296.445 145.48 296.148 145.48 295.789C145.48 295.586 145.52 295.41 145.598 295.262C145.676 295.113 145.785 294.996 145.926 294.91C146.066 294.816 146.359 294.707 146.805 294.582C147.398 294.418 148.004 294.289 148.621 294.195C149.238 294.094 149.797 294.043 150.297 294.043C151.789 294.043 152.945 294.367 153.766 295.016C154.594 295.656 155.008 296.535 155.008 297.652V302.598H155.418C155.996 302.598 156.406 302.711 156.648 302.938C156.898 303.156 157.023 303.445 157.023 303.805C157.023 304.156 156.898 304.445 156.648 304.672C156.406 304.891 155.996 305 155.418 305H152.605ZM152.605 300.699C151.645 300.512 150.758 300.418 149.945 300.418C148.969 300.418 148.129 300.656 147.426 301.133C146.988 301.438 146.77 301.746 146.77 302.059C146.77 302.285 146.875 302.469 147.086 302.609C147.477 302.867 148.012 302.996 148.691 302.996C149.27 302.996 149.922 302.883 150.648 302.656C151.383 302.43 152.035 302.121 152.605 301.73V300.699ZM162.426 294.359V295.168C162.863 294.793 163.344 294.512 163.867 294.324C164.398 294.137 164.973 294.043 165.59 294.043C167.012 294.043 168.137 294.484 168.965 295.367C169.621 296.07 169.949 296.992 169.949 298.133V302.598C170.457 302.598 170.832 302.711 171.074 302.938C171.316 303.156 171.438 303.445 171.438 303.805C171.438 304.156 171.312 304.445 171.062 304.672C170.82 304.891 170.41 305 169.832 305H167.664C167.086 305 166.672 304.891 166.422 304.672C166.18 304.445 166.059 304.152 166.059 303.793C166.059 303.441 166.18 303.156 166.422 302.938C166.664 302.711 167.039 302.598 167.547 302.598V298.062C167.547 297.539 167.406 297.156 167.125 296.914C166.758 296.602 166.207 296.445 165.473 296.445C164.918 296.445 164.43 296.555 164.008 296.773C163.594 296.984 163.066 297.438 162.426 298.133V302.598C163.043 302.598 163.441 302.656 163.621 302.773C164.004 303.008 164.195 303.352 164.195 303.805C164.195 304.156 164.07 304.445 163.82 304.672C163.578 304.891 163.168 305 162.59 305H159.859C159.281 305 158.867 304.891 158.617 304.672C158.375 304.445 158.254 304.152 158.254 303.793C158.254 303.355 158.441 303.016 158.816 302.773C159.004 302.656 159.406 302.598 160.023 302.598V296.762C159.516 296.762 159.141 296.648 158.898 296.422C158.656 296.195 158.535 295.906 158.535 295.555C158.535 295.203 158.656 294.918 158.898 294.699C159.148 294.473 159.562 294.359 160.141 294.359H162.426ZM184.375 294.359V302.598C184.883 302.598 185.258 302.711 185.5 302.938C185.742 303.164 185.863 303.453 185.863 303.805C185.863 304.156 185.738 304.445 185.488 304.672C185.246 304.891 184.836 305 184.258 305H181.973V304.449C181.285 304.762 180.629 304.996 180.004 305.152C179.379 305.309 178.785 305.387 178.223 305.387C177.434 305.387 176.75 305.223 176.172 304.895C175.594 304.559 175.137 304.098 174.801 303.512C174.559 303.09 174.438 302.562 174.438 301.93V296.762H174.027C173.449 296.762 173.035 296.652 172.785 296.434C172.543 296.207 172.422 295.914 172.422 295.555C172.422 295.203 172.543 294.918 172.785 294.699C173.035 294.473 173.449 294.359 174.027 294.359H176.84V301.508C176.84 302.016 176.961 302.391 177.203 302.633C177.453 302.867 177.832 302.984 178.34 302.984C178.824 302.984 179.344 302.891 179.898 302.703C180.461 302.508 181.152 302.16 181.973 301.66V296.762H181.105C180.527 296.762 180.113 296.652 179.863 296.434C179.621 296.207 179.5 295.914 179.5 295.555C179.5 295.203 179.621 294.918 179.863 294.699C180.113 294.473 180.527 294.359 181.105 294.359H184.375ZM189.977 294.359V295.039C190.367 294.656 190.719 294.395 191.031 294.254C191.352 294.105 191.719 294.031 192.133 294.031C192.484 294.031 192.832 294.117 193.176 294.289C193.52 294.461 193.855 294.719 194.184 295.062C194.598 294.719 195.016 294.465 195.438 294.301C195.867 294.129 196.305 294.043 196.75 294.043C197.641 294.043 198.363 294.281 198.918 294.758C199.652 295.383 200.02 296.203 200.02 297.219V302.598C200.52 302.598 200.891 302.711 201.133 302.938C201.375 303.164 201.496 303.453 201.496 303.805C201.496 304.156 201.375 304.445 201.133 304.672C200.891 304.891 200.48 305 199.902 305H197.617V297.418C197.617 297.051 197.551 296.797 197.418 296.656C197.285 296.516 197.082 296.445 196.809 296.445C196.543 296.445 196.297 296.516 196.07 296.656C195.781 296.852 195.43 297.219 195.016 297.758V302.598C195.516 302.598 195.887 302.711 196.129 302.938C196.371 303.164 196.492 303.453 196.492 303.805C196.492 304.156 196.371 304.445 196.129 304.672C195.887 304.891 195.477 305 194.898 305H192.613V297.418C192.613 297.059 192.543 296.809 192.402 296.668C192.27 296.52 192.066 296.445 191.793 296.445C191.512 296.445 191.234 296.535 190.961 296.715C190.688 296.887 190.359 297.234 189.977 297.758V302.598C190.477 302.598 190.848 302.711 191.09 302.938C191.34 303.164 191.465 303.453 191.465 303.805C191.465 304.156 191.34 304.445 191.09 304.672C190.848 304.891 190.438 305 189.859 305H187.691C187.113 305 186.703 304.891 186.461 304.672C186.211 304.445 186.086 304.152 186.086 303.793C186.086 303.441 186.207 303.156 186.449 302.938C186.691 302.711 187.066 302.598 187.574 302.598V296.762C187.066 296.762 186.691 296.648 186.449 296.422C186.207 296.195 186.086 295.906 186.086 295.555C186.086 295.203 186.211 294.918 186.461 294.699C186.703 294.473 187.113 294.359 187.691 294.359H189.977ZM222.531 302.082L225.121 296.762C224.48 296.762 224.07 296.707 223.891 296.598C223.5 296.355 223.305 296.008 223.305 295.555C223.305 295.203 223.426 294.918 223.668 294.699C223.918 294.473 224.332 294.359 224.91 294.359H228.203C228.781 294.359 229.191 294.473 229.434 294.699C229.684 294.918 229.809 295.207 229.809 295.566C229.809 295.918 229.684 296.207 229.434 296.434C229.191 296.652 228.781 296.762 228.203 296.762H227.805L223.785 305H221.277L217.258 296.762H216.918C216.34 296.762 215.926 296.652 215.676 296.434C215.434 296.207 215.312 295.914 215.312 295.555C215.312 295.203 215.434 294.918 215.676 294.699C215.926 294.473 216.34 294.359 216.918 294.359H220.141C220.711 294.359 221.117 294.473 221.359 294.699C221.609 294.918 221.734 295.207 221.734 295.566C221.734 296.012 221.547 296.352 221.172 296.586C220.984 296.703 220.566 296.762 219.918 296.762L222.531 302.082ZM240.355 296.973C241.066 297.457 241.598 298.02 241.949 298.66C242.301 299.293 242.477 300.004 242.477 300.793C242.477 301.645 242.242 302.434 241.773 303.16C241.312 303.879 240.641 304.426 239.758 304.801C238.875 305.168 237.719 305.352 236.289 305.352C234.43 305.352 233.031 305.062 232.094 304.484C231.57 304.156 231.309 303.766 231.309 303.312C231.309 302.969 231.422 302.68 231.648 302.445C231.883 302.203 232.164 302.082 232.492 302.082C232.719 302.082 232.953 302.16 233.195 302.316C233.539 302.551 233.863 302.707 234.168 302.785C234.637 302.895 235.281 302.949 236.102 302.949C237.5 302.949 238.512 302.77 239.137 302.41C239.762 302.043 240.074 301.527 240.074 300.863C240.074 300.371 239.891 299.898 239.523 299.445C239.164 298.984 238.68 298.629 238.07 298.379C237.719 298.238 237.125 298.141 236.289 298.086C235.891 298.062 235.582 297.941 235.363 297.723C235.152 297.496 235.047 297.219 235.047 296.891C235.047 296.547 235.164 296.258 235.398 296.023C235.633 295.789 235.93 295.672 236.289 295.672C237.086 295.672 237.512 295.668 237.566 295.66C237.879 295.629 238.191 295.527 238.504 295.355C238.816 295.184 239.066 294.949 239.254 294.652C239.449 294.348 239.547 294.035 239.547 293.715C239.547 293.207 239.32 292.77 238.867 292.402C238.422 292.027 237.75 291.84 236.852 291.84C235.695 291.84 234.812 292.176 234.203 292.848C234.023 293.043 233.879 293.168 233.77 293.223C233.605 293.309 233.422 293.352 233.219 293.352C232.891 293.352 232.609 293.234 232.375 293C232.141 292.766 232.023 292.477 232.023 292.133C232.023 291.594 232.383 291.07 233.102 290.562C234.148 289.82 235.457 289.449 237.027 289.449C238.512 289.449 239.703 289.871 240.602 290.715C241.5 291.559 241.949 292.574 241.949 293.762C241.949 294.379 241.816 294.957 241.551 295.496C241.285 296.027 240.887 296.52 240.355 296.973ZM253.176 303.793C253.176 304.246 253.016 304.625 252.695 304.93C252.375 305.234 251.934 305.387 251.371 305.387C250.809 305.387 250.367 305.234 250.047 304.93C249.727 304.625 249.566 304.246 249.566 303.793C249.566 303.34 249.727 302.961 250.047 302.656C250.367 302.352 250.809 302.199 251.371 302.199C251.934 302.199 252.375 302.352 252.695 302.656C253.016 302.961 253.176 303.34 253.176 303.793ZM269.16 297.324C269.777 297.801 270.238 298.344 270.543 298.953C270.855 299.555 271.012 300.219 271.012 300.945C271.012 301.75 270.812 302.492 270.414 303.172C270.023 303.844 269.406 304.375 268.562 304.766C267.719 305.156 266.781 305.352 265.75 305.352C264.719 305.352 263.789 305.156 262.961 304.766C262.133 304.375 261.52 303.84 261.121 303.16C260.73 302.48 260.535 301.742 260.535 300.945C260.535 300.219 260.688 299.555 260.992 298.953C261.305 298.344 261.77 297.801 262.387 297.324C261.848 296.824 261.441 296.293 261.168 295.73C260.895 295.168 260.758 294.574 260.758 293.949C260.758 292.723 261.227 291.668 262.164 290.785C263.102 289.895 264.305 289.449 265.773 289.449C267.242 289.449 268.445 289.895 269.383 290.785C270.32 291.668 270.789 292.723 270.789 293.949C270.789 294.582 270.652 295.18 270.379 295.742C270.113 296.305 269.707 296.832 269.16 297.324ZM268.328 293.996C268.328 293.402 268.094 292.898 267.625 292.484C267.164 292.062 266.539 291.852 265.75 291.852C264.953 291.852 264.32 292.062 263.852 292.484C263.391 292.898 263.16 293.402 263.16 293.996C263.16 294.598 263.391 295.109 263.852 295.531C264.32 295.945 264.953 296.152 265.75 296.152C266.539 296.152 267.164 295.945 267.625 295.531C268.094 295.109 268.328 294.598 268.328 293.996ZM268.609 301.062C268.609 300.43 268.336 299.859 267.789 299.352C267.25 298.836 266.578 298.578 265.773 298.578C264.969 298.578 264.293 298.836 263.746 299.352C263.207 299.859 262.938 300.438 262.938 301.086C262.938 301.586 263.172 302.023 263.641 302.398C264.109 302.766 264.82 302.949 265.773 302.949C266.734 302.949 267.445 302.766 267.906 302.398C268.375 302.023 268.609 301.578 268.609 301.062Z" fill="white"/>
<path d="M85.0186 365.67V364.738C85.0186 364.557 85.0508 364.428 85.1152 364.352C85.1855 364.275 85.2764 364.237 85.3877 364.237C85.499 364.237 85.5869 364.275 85.6514 364.352C85.7217 364.428 85.7568 364.557 85.7568 364.738V365.67C86.1553 365.705 86.4834 365.77 86.7412 365.863C86.999 365.951 87.3037 366.112 87.6553 366.347C87.6611 366.2 87.6992 366.092 87.7695 366.021C87.8398 365.951 87.9248 365.916 88.0244 365.916C88.1357 365.916 88.2266 365.954 88.2969 366.03C88.3672 366.106 88.4023 366.232 88.4023 366.408V367.507C88.4023 367.683 88.3672 367.809 88.2969 367.885C88.2266 367.961 88.1357 367.999 88.0244 367.999C87.9307 367.999 87.8516 367.97 87.7871 367.911C87.7227 367.847 87.6787 367.741 87.6553 367.595C87.6201 367.319 87.4385 367.07 87.1104 366.848C86.6299 366.531 86.0645 366.373 85.4141 366.373C84.752 366.373 84.2041 366.566 83.7705 366.953C83.3428 367.34 83.1289 367.776 83.1289 368.263C83.1289 368.749 83.3193 369.121 83.7002 369.379C83.9873 369.578 84.5908 369.766 85.5107 369.941C86.4365 370.111 87.0635 370.272 87.3916 370.425C87.8604 370.63 88.209 370.908 88.4375 371.26C88.6719 371.611 88.7891 372.036 88.7891 372.534C88.7891 373.202 88.5283 373.791 88.0068 374.301C87.4854 374.805 86.7354 375.106 85.7568 375.206V377.377C85.7568 377.559 85.7217 377.688 85.6514 377.764C85.5869 377.84 85.499 377.878 85.3877 377.878C85.2764 377.878 85.1855 377.84 85.1152 377.764C85.0508 377.688 85.0186 377.559 85.0186 377.377V375.206C84.1162 375.147 83.3574 374.854 82.7422 374.327C82.7422 374.585 82.7305 374.743 82.707 374.802C82.6895 374.854 82.6484 374.904 82.584 374.951C82.5195 374.992 82.4492 375.013 82.373 375.013C82.2676 375.013 82.1797 374.975 82.1094 374.898C82.0391 374.822 82.0039 374.696 82.0039 374.521V373.079C82.0039 372.903 82.0361 372.777 82.1006 372.701C82.1709 372.619 82.2617 372.578 82.373 372.578C82.4785 372.578 82.5693 372.616 82.6455 372.692C82.6982 372.745 82.7305 372.862 82.7422 373.044C82.7773 373.354 83.0264 373.674 83.4893 374.002C83.958 374.324 84.5908 374.485 85.3877 374.485C86.2139 374.485 86.8643 374.289 87.3389 373.896C87.8135 373.504 88.0508 373.047 88.0508 372.525C88.0508 372.18 87.9629 371.884 87.7871 371.638C87.6113 371.392 87.3359 371.189 86.9609 371.031C86.7148 370.932 86.1992 370.809 85.4141 370.662C84.2773 370.439 83.4893 370.152 83.0498 369.801C82.6045 369.449 82.3818 368.934 82.3818 368.254C82.3818 367.621 82.6221 367.056 83.1025 366.558C83.583 366.06 84.2217 365.764 85.0186 365.67Z" fill="#6597E9"/>
<path d="M104.894 368.754V370.773C105.935 369.833 106.713 369.23 107.227 368.964C107.747 368.691 108.227 368.554 108.665 368.554C109.141 368.554 109.582 368.716 109.988 369.04C110.401 369.357 110.607 369.599 110.607 369.764C110.607 369.884 110.566 369.986 110.483 370.068C110.407 370.145 110.309 370.183 110.188 370.183C110.125 370.183 110.071 370.173 110.026 370.154C109.982 370.129 109.899 370.056 109.779 369.935C109.556 369.713 109.363 369.561 109.198 369.478C109.033 369.396 108.871 369.354 108.712 369.354C108.363 369.354 107.941 369.494 107.446 369.773C106.957 370.052 106.106 370.735 104.894 371.82V376.2H108.436C108.633 376.2 108.772 376.238 108.855 376.314C108.938 376.384 108.979 376.479 108.979 376.6C108.979 376.714 108.938 376.81 108.855 376.886C108.772 376.962 108.633 377 108.436 377H102.161C101.971 377 101.834 376.965 101.752 376.895C101.669 376.819 101.628 376.724 101.628 376.61C101.628 376.502 101.666 376.413 101.742 376.343C101.825 376.267 101.965 376.229 102.161 376.229H104.094V369.564H102.618C102.428 369.564 102.292 369.526 102.209 369.449C102.126 369.373 102.085 369.275 102.085 369.154C102.085 369.04 102.123 368.945 102.199 368.869C102.282 368.792 102.422 368.754 102.618 368.754H104.894ZM121.89 373.068H113.74C113.879 374.102 114.311 374.937 115.034 375.572C115.764 376.2 116.666 376.514 117.739 376.514C118.335 376.514 118.96 376.416 119.614 376.219C120.268 376.022 120.801 375.762 121.214 375.438C121.334 375.343 121.439 375.296 121.528 375.296C121.63 375.296 121.719 375.337 121.795 375.419C121.871 375.496 121.909 375.588 121.909 375.696C121.909 375.803 121.858 375.908 121.757 376.01C121.452 376.327 120.909 376.625 120.128 376.905C119.354 377.178 118.557 377.314 117.739 377.314C116.367 377.314 115.222 376.867 114.301 375.972C113.387 375.07 112.93 373.982 112.93 372.706C112.93 371.544 113.359 370.548 114.216 369.716C115.079 368.885 116.145 368.469 117.415 368.469C118.722 368.469 119.798 368.897 120.643 369.754C121.487 370.605 121.903 371.709 121.89 373.068ZM121.081 372.258C120.922 371.376 120.503 370.659 119.824 370.106C119.151 369.554 118.348 369.278 117.415 369.278C116.482 369.278 115.679 369.551 115.006 370.097C114.333 370.643 113.914 371.363 113.749 372.258H121.081ZM131.573 377V375.848C130.412 376.825 129.171 377.314 127.85 377.314C126.892 377.314 126.143 377.073 125.603 376.591C125.064 376.102 124.794 375.505 124.794 374.801C124.794 374.026 125.149 373.35 125.86 372.772C126.571 372.195 127.609 371.906 128.974 371.906C129.342 371.906 129.742 371.931 130.174 371.982C130.605 372.027 131.072 372.1 131.573 372.201V370.906C131.573 370.468 131.37 370.087 130.964 369.764C130.558 369.44 129.948 369.278 129.136 369.278C128.514 369.278 127.641 369.459 126.517 369.821C126.314 369.884 126.184 369.916 126.127 369.916C126.025 369.916 125.937 369.878 125.86 369.802C125.791 369.726 125.756 369.63 125.756 369.516C125.756 369.408 125.787 369.323 125.851 369.259C125.94 369.164 126.298 369.034 126.927 368.869C127.917 368.602 128.666 368.469 129.174 368.469C130.183 368.469 130.97 368.719 131.535 369.221C132.1 369.716 132.383 370.278 132.383 370.906V376.2H133.449C133.646 376.2 133.785 376.238 133.868 376.314C133.95 376.384 133.992 376.479 133.992 376.6C133.992 376.714 133.95 376.81 133.868 376.886C133.785 376.962 133.646 377 133.449 377H131.573ZM131.573 373.02C131.199 372.912 130.802 372.833 130.383 372.782C129.964 372.731 129.523 372.706 129.06 372.706C127.898 372.706 126.99 372.957 126.336 373.458C125.841 373.833 125.594 374.28 125.594 374.801C125.594 375.283 125.781 375.689 126.156 376.019C126.536 376.349 127.089 376.514 127.812 376.514C128.504 376.514 129.145 376.378 129.736 376.105C130.332 375.826 130.945 375.385 131.573 374.781V373.02ZM144.903 365.051V376.2H145.97C146.167 376.2 146.306 376.238 146.389 376.314C146.471 376.384 146.512 376.479 146.512 376.6C146.512 376.714 146.471 376.81 146.389 376.886C146.306 376.962 146.167 377 145.97 377H144.094V375.41C143.167 376.679 141.99 377.314 140.562 377.314C139.838 377.314 139.143 377.124 138.476 376.743C137.816 376.356 137.292 375.807 136.905 375.096C136.524 374.385 136.334 373.652 136.334 372.896C136.334 372.135 136.524 371.401 136.905 370.697C137.292 369.986 137.816 369.437 138.476 369.05C139.143 368.662 139.841 368.469 140.571 368.469C141.968 368.469 143.142 369.104 144.094 370.373V365.86H143.028C142.831 365.86 142.691 365.822 142.609 365.746C142.526 365.669 142.485 365.571 142.485 365.45C142.485 365.336 142.526 365.241 142.609 365.165C142.691 365.089 142.831 365.051 143.028 365.051H144.903ZM144.094 372.896C144.094 371.881 143.751 371.024 143.066 370.325C142.38 369.627 141.564 369.278 140.619 369.278C139.667 369.278 138.848 369.627 138.162 370.325C137.477 371.024 137.134 371.881 137.134 372.896C137.134 373.906 137.477 374.762 138.162 375.467C138.848 376.165 139.667 376.514 140.619 376.514C141.564 376.514 142.38 376.165 143.066 375.467C143.751 374.762 144.094 373.906 144.094 372.896ZM152.749 377L149.036 369.564H148.798C148.607 369.564 148.471 369.526 148.388 369.449C148.306 369.373 148.264 369.278 148.264 369.164C148.264 369.081 148.283 369.008 148.322 368.945C148.366 368.875 148.42 368.827 148.483 368.802C148.553 368.77 148.658 368.754 148.798 368.754H150.988C151.178 368.754 151.314 368.792 151.397 368.869C151.479 368.945 151.521 369.043 151.521 369.164C151.521 369.278 151.479 369.373 151.397 369.449C151.314 369.526 151.178 369.564 150.988 369.564H149.912L153.177 376.124L156.396 369.564H155.32C155.129 369.564 154.993 369.526 154.91 369.449C154.828 369.373 154.787 369.275 154.787 369.154C154.787 369.04 154.828 368.945 154.91 368.869C154.993 368.792 155.129 368.754 155.32 368.754H157.5C157.697 368.754 157.837 368.792 157.919 368.869C158.002 368.945 158.043 369.043 158.043 369.164C158.043 369.246 158.018 369.323 157.967 369.392C157.916 369.462 157.859 369.51 157.795 369.535C157.732 369.554 157.554 369.564 157.262 369.564L152.197 379.875H153.444C153.635 379.875 153.771 379.91 153.854 379.98C153.936 380.056 153.977 380.155 153.977 380.275C153.977 380.39 153.936 380.485 153.854 380.561C153.771 380.637 153.635 380.675 153.444 380.675H148.836C148.645 380.675 148.509 380.637 148.426 380.561C148.344 380.491 148.302 380.396 148.302 380.275C148.302 380.155 148.344 380.056 148.426 379.98C148.509 379.91 148.645 379.875 148.836 379.875H151.34L152.749 377ZM164.241 374.705H164.584C164.94 374.705 165.244 374.832 165.498 375.086C165.752 375.334 165.879 375.635 165.879 375.991C165.879 376.359 165.749 376.667 165.489 376.914C165.235 377.162 164.933 377.286 164.584 377.286H164.241C163.886 377.286 163.581 377.162 163.327 376.914C163.073 376.66 162.947 376.356 162.947 376C162.947 375.632 163.073 375.324 163.327 375.077C163.588 374.829 163.892 374.705 164.241 374.705Z" fill="#CAE0FF"/>
<path d="M440.638 504.069V503.761C440.638 503.542 440.678 503.384 440.759 503.289C440.846 503.194 440.96 503.146 441.099 503.146C441.238 503.146 441.348 503.194 441.429 503.289C441.517 503.384 441.561 503.542 441.561 503.761V506.112C441.561 506.332 441.517 506.49 441.429 506.585C441.348 506.68 441.238 506.728 441.099 506.728C440.967 506.728 440.857 506.684 440.77 506.596C440.689 506.508 440.645 506.365 440.638 506.167C440.601 505.552 440.282 504.999 439.682 504.508C439.089 504.018 438.309 503.772 437.342 503.772C436.324 503.772 435.514 504.036 434.914 504.563C434.313 505.083 434.013 505.698 434.013 506.409C434.013 506.775 434.097 507.108 434.266 507.409C434.434 507.709 434.657 507.954 434.936 508.145C435.214 508.328 435.529 508.478 435.881 508.595C436.232 508.705 436.781 508.822 437.529 508.947C438.781 509.152 439.645 509.361 440.121 509.573C440.759 509.859 441.238 510.254 441.561 510.76C441.89 511.265 442.055 511.862 442.055 512.55C442.055 513.605 441.634 514.506 440.792 515.253C439.949 515.993 438.814 516.363 437.386 516.363C435.782 516.363 434.5 515.861 433.541 514.857V515.385C433.541 515.604 433.497 515.762 433.409 515.857C433.328 515.952 433.218 516 433.079 516C432.947 516 432.837 515.952 432.75 515.857C432.662 515.762 432.618 515.604 432.618 515.385V512.836C432.618 512.609 432.658 512.448 432.739 512.353C432.826 512.257 432.94 512.21 433.079 512.21C433.211 512.21 433.317 512.254 433.398 512.342C433.486 512.429 433.533 512.572 433.541 512.77C433.577 513.444 433.936 514.059 434.617 514.616C435.306 515.165 436.229 515.44 437.386 515.44C438.543 515.44 439.455 515.15 440.121 514.572C440.795 513.993 441.132 513.308 441.132 512.517C441.132 512.034 441.004 511.605 440.748 511.232C440.491 510.851 440.11 510.551 439.605 510.331C439.253 510.177 438.521 510.005 437.408 509.815C435.877 509.558 434.775 509.167 434.101 508.639C433.427 508.112 433.09 507.361 433.09 506.387C433.09 505.42 433.475 504.589 434.244 503.893C435.02 503.197 436.042 502.849 437.309 502.849C438.598 502.849 439.708 503.256 440.638 504.069ZM447.812 502.212V507.892C448.398 507.255 448.958 506.808 449.493 506.552C450.035 506.288 450.639 506.156 451.305 506.156C452.023 506.156 452.631 506.284 453.129 506.541C453.635 506.79 454.056 507.178 454.393 507.705C454.729 508.225 454.898 508.775 454.898 509.353V515.077H455.931C456.158 515.077 456.315 515.121 456.403 515.209C456.498 515.29 456.546 515.399 456.546 515.539C456.546 515.67 456.498 515.78 456.403 515.868C456.315 515.956 456.158 516 455.931 516H452.931C452.704 516 452.543 515.956 452.448 515.868C452.353 515.78 452.305 515.67 452.305 515.539C452.305 515.399 452.353 515.29 452.448 515.209C452.543 515.121 452.704 515.077 452.931 515.077H453.964V509.419C453.964 508.753 453.722 508.196 453.239 507.749C452.763 507.302 452.096 507.079 451.24 507.079C450.566 507.079 449.991 507.244 449.515 507.573C449.17 507.808 448.603 508.361 447.812 509.232V515.077H448.855C449.075 515.077 449.233 515.121 449.328 515.209C449.423 515.29 449.471 515.399 449.471 515.539C449.471 515.67 449.423 515.78 449.328 515.868C449.233 515.956 449.075 516 448.855 516H445.845C445.625 516 445.468 515.956 445.373 515.868C445.278 515.78 445.23 515.67 445.23 515.539C445.23 515.399 445.278 515.29 445.373 515.209C445.468 515.121 445.625 515.077 445.845 515.077H446.889V503.146H445.647C445.428 503.146 445.27 503.102 445.175 503.014C445.08 502.926 445.032 502.813 445.032 502.674C445.032 502.542 445.08 502.432 445.175 502.344C445.27 502.256 445.428 502.212 445.647 502.212H447.812ZM467.016 516V514.671C465.676 515.799 464.244 516.363 462.72 516.363C461.614 516.363 460.75 516.084 460.127 515.528C459.505 514.964 459.194 514.275 459.194 513.462C459.194 512.569 459.604 511.789 460.424 511.122C461.244 510.456 462.442 510.122 464.017 510.122C464.441 510.122 464.903 510.152 465.401 510.21C465.899 510.261 466.437 510.346 467.016 510.463V508.969C467.016 508.463 466.781 508.024 466.313 507.65C465.844 507.277 465.141 507.09 464.203 507.09C463.486 507.09 462.479 507.299 461.182 507.716C460.948 507.79 460.798 507.826 460.732 507.826C460.615 507.826 460.512 507.782 460.424 507.694C460.344 507.606 460.303 507.497 460.303 507.365C460.303 507.24 460.34 507.141 460.413 507.068C460.516 506.958 460.929 506.808 461.655 506.618C462.797 506.31 463.661 506.156 464.247 506.156C465.412 506.156 466.32 506.446 466.972 507.024C467.624 507.595 467.95 508.244 467.95 508.969V515.077H469.18C469.407 515.077 469.568 515.121 469.664 515.209C469.759 515.29 469.806 515.399 469.806 515.539C469.806 515.67 469.759 515.78 469.664 515.868C469.568 515.956 469.407 516 469.18 516H467.016ZM467.016 511.408C466.584 511.283 466.126 511.192 465.643 511.133C465.159 511.074 464.65 511.045 464.115 511.045C462.775 511.045 461.728 511.334 460.973 511.913C460.402 512.345 460.116 512.862 460.116 513.462C460.116 514.019 460.333 514.488 460.765 514.868C461.204 515.249 461.841 515.44 462.676 515.44C463.475 515.44 464.214 515.282 464.896 514.967C465.584 514.645 466.291 514.136 467.016 513.44V511.408ZM476.772 506.486V508.815C477.973 507.731 478.87 507.035 479.463 506.728C480.064 506.413 480.617 506.255 481.122 506.255C481.672 506.255 482.181 506.442 482.649 506.815C483.125 507.182 483.364 507.46 483.364 507.65C483.364 507.79 483.316 507.907 483.221 508.002C483.133 508.09 483.019 508.134 482.88 508.134C482.807 508.134 482.745 508.123 482.693 508.101C482.642 508.072 482.547 507.987 482.408 507.848C482.151 507.592 481.928 507.416 481.738 507.321C481.547 507.226 481.36 507.178 481.177 507.178C480.774 507.178 480.287 507.339 479.716 507.661C479.152 507.984 478.171 508.771 476.772 510.023V515.077H480.859C481.086 515.077 481.247 515.121 481.342 515.209C481.437 515.29 481.485 515.399 481.485 515.539C481.485 515.67 481.437 515.78 481.342 515.868C481.247 515.956 481.086 516 480.859 516H473.619C473.399 516 473.241 515.96 473.146 515.879C473.051 515.791 473.003 515.681 473.003 515.55C473.003 515.425 473.047 515.323 473.135 515.242C473.23 515.154 473.392 515.11 473.619 515.11H475.849V507.42H474.146C473.926 507.42 473.769 507.376 473.674 507.288C473.578 507.2 473.531 507.086 473.531 506.947C473.531 506.815 473.575 506.706 473.663 506.618C473.758 506.53 473.919 506.486 474.146 506.486H476.772ZM496.382 511.463H486.978C487.139 512.656 487.637 513.62 488.472 514.352C489.314 515.077 490.354 515.44 491.592 515.44C492.281 515.44 493.002 515.326 493.757 515.099C494.511 514.872 495.126 514.572 495.602 514.198C495.741 514.088 495.862 514.033 495.965 514.033C496.082 514.033 496.185 514.081 496.272 514.176C496.36 514.264 496.404 514.37 496.404 514.495C496.404 514.619 496.346 514.74 496.229 514.857C495.877 515.224 495.251 515.568 494.35 515.89C493.456 516.205 492.537 516.363 491.592 516.363C490.01 516.363 488.688 515.846 487.626 514.813C486.572 513.773 486.044 512.517 486.044 511.045C486.044 509.705 486.539 508.555 487.527 507.595C488.523 506.636 489.754 506.156 491.219 506.156C492.728 506.156 493.969 506.651 494.943 507.639C495.917 508.621 496.397 509.895 496.382 511.463ZM495.448 510.529C495.265 509.511 494.782 508.683 493.998 508.046C493.222 507.409 492.295 507.09 491.219 507.09C490.142 507.09 489.216 507.405 488.439 508.035C487.663 508.665 487.179 509.496 486.989 510.529H495.448ZM521.069 516V514.671C519.728 515.799 518.296 516.363 516.773 516.363C515.667 516.363 514.803 516.084 514.18 515.528C513.558 514.964 513.246 514.275 513.246 513.462C513.246 512.569 513.656 511.789 514.477 511.122C515.297 510.456 516.495 510.122 518.069 510.122C518.494 510.122 518.956 510.152 519.454 510.21C519.952 510.261 520.49 510.346 521.069 510.463V508.969C521.069 508.463 520.834 508.024 520.365 507.65C519.897 507.277 519.194 507.09 518.256 507.09C517.538 507.09 516.531 507.299 515.235 507.716C515 507.79 514.85 507.826 514.784 507.826C514.667 507.826 514.565 507.782 514.477 507.694C514.396 507.606 514.356 507.497 514.356 507.365C514.356 507.24 514.393 507.141 514.466 507.068C514.568 506.958 514.982 506.808 515.707 506.618C516.85 506.31 517.714 506.156 518.3 506.156C519.465 506.156 520.373 506.446 521.025 507.024C521.677 507.595 522.002 508.244 522.002 508.969V515.077H523.233C523.46 515.077 523.621 515.121 523.716 515.209C523.812 515.29 523.859 515.399 523.859 515.539C523.859 515.67 523.812 515.78 523.716 515.868C523.621 515.956 523.46 516 523.233 516H521.069ZM521.069 511.408C520.636 511.283 520.179 511.192 519.695 511.133C519.212 511.074 518.703 511.045 518.168 511.045C516.828 511.045 515.781 511.334 515.026 511.913C514.455 512.345 514.169 512.862 514.169 513.462C514.169 514.019 514.385 514.488 514.817 514.868C515.257 515.249 515.894 515.44 516.729 515.44C517.527 515.44 518.267 515.282 518.948 514.967C519.637 514.645 520.344 514.136 521.069 513.44V511.408ZM528.946 506.486V507.881C529.59 507.229 530.173 506.779 530.693 506.53C531.213 506.281 531.799 506.156 532.45 506.156C533.154 506.156 533.794 506.306 534.373 506.607C534.783 506.826 535.153 507.193 535.483 507.705C535.82 508.211 535.988 508.731 535.988 509.265V515.077H536.768C536.988 515.077 537.145 515.121 537.24 515.209C537.336 515.29 537.383 515.399 537.383 515.539C537.383 515.67 537.336 515.78 537.24 515.868C537.145 515.956 536.988 516 536.768 516H534.296C534.069 516 533.908 515.956 533.813 515.868C533.718 515.78 533.67 515.67 533.67 515.539C533.67 515.399 533.718 515.29 533.813 515.209C533.908 515.121 534.069 515.077 534.296 515.077H535.065V509.419C535.065 508.767 534.827 508.218 534.351 507.771C533.875 507.317 533.238 507.09 532.439 507.09C531.832 507.09 531.304 507.215 530.857 507.464C530.411 507.705 529.773 508.313 528.946 509.287V515.077H529.99C530.209 515.077 530.367 515.121 530.462 515.209C530.557 515.29 530.605 515.399 530.605 515.539C530.605 515.67 530.557 515.78 530.462 515.868C530.367 515.956 530.209 516 529.99 516H526.979C526.76 516 526.602 515.956 526.507 515.868C526.412 515.78 526.364 515.67 526.364 515.539C526.364 515.399 526.412 515.29 526.507 515.209C526.602 515.121 526.76 515.077 526.979 515.077H528.023V507.42H527.243C527.023 507.42 526.866 507.376 526.771 507.288C526.675 507.2 526.628 507.086 526.628 506.947C526.628 506.815 526.675 506.706 526.771 506.618C526.866 506.53 527.023 506.486 527.243 506.486H528.946ZM545.502 516L541.218 507.42H540.943C540.723 507.42 540.566 507.376 540.47 507.288C540.375 507.2 540.328 507.09 540.328 506.958C540.328 506.863 540.35 506.779 540.394 506.706C540.445 506.625 540.507 506.57 540.58 506.541C540.661 506.504 540.782 506.486 540.943 506.486H543.47C543.689 506.486 543.847 506.53 543.942 506.618C544.037 506.706 544.085 506.819 544.085 506.958C544.085 507.09 544.037 507.2 543.942 507.288C543.847 507.376 543.689 507.42 543.47 507.42H542.228L545.997 514.989L549.71 507.42H548.469C548.249 507.42 548.091 507.376 547.996 507.288C547.901 507.2 547.853 507.086 547.853 506.947C547.853 506.815 547.901 506.706 547.996 506.618C548.091 506.53 548.249 506.486 548.469 506.486H550.984C551.211 506.486 551.373 506.53 551.468 506.618C551.563 506.706 551.611 506.819 551.611 506.958C551.611 507.053 551.581 507.141 551.523 507.222C551.464 507.302 551.398 507.357 551.325 507.387C551.252 507.409 551.047 507.42 550.71 507.42L544.865 519.318H546.304C546.524 519.318 546.681 519.358 546.777 519.439C546.872 519.527 546.919 519.64 546.919 519.779C546.919 519.911 546.872 520.021 546.777 520.109C546.681 520.197 546.524 520.241 546.304 520.241H540.987C540.767 520.241 540.61 520.197 540.514 520.109C540.419 520.028 540.372 519.918 540.372 519.779C540.372 519.64 540.419 519.527 540.514 519.439C540.61 519.358 540.767 519.318 540.987 519.318H543.876L545.502 516ZM557.06 506.486H562.07C562.289 506.486 562.447 506.53 562.542 506.618C562.637 506.706 562.685 506.819 562.685 506.958C562.685 507.09 562.637 507.2 562.542 507.288C562.447 507.376 562.289 507.42 562.07 507.42H557.06V513.561C557.06 514.096 557.272 514.542 557.697 514.901C558.129 515.26 558.759 515.44 559.587 515.44C560.209 515.44 560.883 515.348 561.608 515.165C562.333 514.975 562.897 514.762 563.3 514.528C563.447 514.433 563.567 514.385 563.663 514.385C563.78 514.385 563.882 514.433 563.97 514.528C564.058 514.616 564.102 514.722 564.102 514.846C564.102 514.956 564.054 515.059 563.959 515.154C563.725 515.396 563.154 515.659 562.245 515.945C561.344 516.223 560.48 516.363 559.653 516.363C558.576 516.363 557.719 516.11 557.082 515.604C556.445 515.099 556.126 514.418 556.126 513.561V507.42H554.423C554.203 507.42 554.046 507.376 553.951 507.288C553.855 507.2 553.808 507.086 553.808 506.947C553.808 506.815 553.855 506.706 553.951 506.618C554.046 506.53 554.203 506.486 554.423 506.486H556.126V503.761C556.126 503.542 556.17 503.384 556.258 503.289C556.346 503.194 556.456 503.146 556.587 503.146C556.727 503.146 556.84 503.194 556.928 503.289C557.016 503.384 557.06 503.542 557.06 503.761V506.486ZM569.43 502.212V507.892C570.016 507.255 570.577 506.808 571.111 506.552C571.653 506.288 572.258 506.156 572.924 506.156C573.642 506.156 574.25 506.284 574.748 506.541C575.253 506.79 575.674 507.178 576.011 507.705C576.348 508.225 576.517 508.775 576.517 509.353V515.077H577.549C577.776 515.077 577.934 515.121 578.022 515.209C578.117 515.29 578.165 515.399 578.165 515.539C578.165 515.67 578.117 515.78 578.022 515.868C577.934 515.956 577.776 516 577.549 516H574.55C574.323 516 574.162 515.956 574.067 515.868C573.971 515.78 573.924 515.67 573.924 515.539C573.924 515.399 573.971 515.29 574.067 515.209C574.162 515.121 574.323 515.077 574.55 515.077H575.583V509.419C575.583 508.753 575.341 508.196 574.858 507.749C574.382 507.302 573.715 507.079 572.858 507.079C572.184 507.079 571.609 507.244 571.133 507.573C570.789 507.808 570.221 508.361 569.43 509.232V515.077H570.474C570.694 515.077 570.851 515.121 570.947 515.209C571.042 515.29 571.089 515.399 571.089 515.539C571.089 515.67 571.042 515.78 570.947 515.868C570.851 515.956 570.694 516 570.474 516H567.464C567.244 516 567.087 515.956 566.991 515.868C566.896 515.78 566.849 515.67 566.849 515.539C566.849 515.399 566.896 515.29 566.991 515.209C567.087 515.121 567.244 515.077 567.464 515.077H568.508V503.146H567.266C567.046 503.146 566.889 503.102 566.794 503.014C566.698 502.926 566.651 502.813 566.651 502.674C566.651 502.542 566.698 502.432 566.794 502.344C566.889 502.256 567.046 502.212 567.266 502.212H569.43ZM586.437 501.751V504.135H585.075V501.751H586.437ZM586.47 506.486V515.077H590.096C590.323 515.077 590.484 515.121 590.579 515.209C590.674 515.29 590.722 515.399 590.722 515.539C590.722 515.67 590.674 515.78 590.579 515.868C590.484 515.956 590.323 516 590.096 516H581.922C581.702 516 581.545 515.956 581.449 515.868C581.354 515.78 581.307 515.67 581.307 515.539C581.307 515.399 581.354 515.29 581.449 515.209C581.545 515.121 581.702 515.077 581.922 515.077H585.547V507.42H582.856C582.636 507.42 582.475 507.376 582.372 507.288C582.277 507.2 582.229 507.09 582.229 506.958C582.229 506.819 582.277 506.706 582.372 506.618C582.468 506.53 582.629 506.486 582.856 506.486H586.47ZM596.512 506.486V507.881C597.156 507.229 597.739 506.779 598.259 506.53C598.779 506.281 599.365 506.156 600.016 506.156C600.719 506.156 601.36 506.306 601.939 506.607C602.349 506.826 602.719 507.193 603.049 507.705C603.385 508.211 603.554 508.731 603.554 509.265V515.077H604.334C604.554 515.077 604.711 515.121 604.806 515.209C604.902 515.29 604.949 515.399 604.949 515.539C604.949 515.67 604.902 515.78 604.806 515.868C604.711 515.956 604.554 516 604.334 516H601.862C601.635 516 601.474 515.956 601.379 515.868C601.283 515.78 601.236 515.67 601.236 515.539C601.236 515.399 601.283 515.29 601.379 515.209C601.474 515.121 601.635 515.077 601.862 515.077H602.631V509.419C602.631 508.767 602.393 508.218 601.917 507.771C601.441 507.317 600.804 507.09 600.005 507.09C599.397 507.09 598.87 507.215 598.423 507.464C597.977 507.705 597.339 508.313 596.512 509.287V515.077H597.555C597.775 515.077 597.933 515.121 598.028 515.209C598.123 515.29 598.171 515.399 598.171 515.539C598.171 515.67 598.123 515.78 598.028 515.868C597.933 515.956 597.775 516 597.555 516H594.545C594.325 516 594.168 515.956 594.073 515.868C593.978 515.78 593.93 515.67 593.93 515.539C593.93 515.399 593.978 515.29 594.073 515.209C594.168 515.121 594.325 515.077 594.545 515.077H595.589V507.42H594.809C594.589 507.42 594.432 507.376 594.336 507.288C594.241 507.2 594.194 507.086 594.194 506.947C594.194 506.815 594.241 506.706 594.336 506.618C594.432 506.53 594.589 506.486 594.809 506.486H596.512ZM616.111 508.178V506.486H618.276C618.495 506.486 618.653 506.53 618.748 506.618C618.843 506.706 618.891 506.819 618.891 506.958C618.891 507.09 618.843 507.2 618.748 507.288C618.653 507.376 618.495 507.42 618.276 507.42H617.034V516.637C617.034 517.252 616.902 517.802 616.639 518.285C616.463 518.607 616.17 518.941 615.76 519.285C615.35 519.629 614.976 519.875 614.639 520.021C614.302 520.167 613.852 520.241 613.288 520.241H610.673C610.453 520.241 610.296 520.197 610.201 520.109C610.105 520.028 610.058 519.918 610.058 519.779C610.058 519.64 610.105 519.527 610.201 519.439C610.296 519.351 610.453 519.307 610.673 519.307L613.321 519.318C613.863 519.318 614.35 519.179 614.782 518.9C615.221 518.622 615.584 518.216 615.87 517.681C616.031 517.373 616.111 516.981 616.111 516.505V513.737C615.123 515.092 613.848 515.769 612.288 515.769C611.021 515.769 609.926 515.301 609.003 514.363C608.088 513.418 607.63 512.283 607.63 510.957C607.63 509.632 608.088 508.5 609.003 507.562C609.926 506.625 611.021 506.156 612.288 506.156C613.848 506.156 615.123 506.83 616.111 508.178ZM616.111 510.957C616.111 509.873 615.738 508.958 614.991 508.211C614.251 507.464 613.365 507.09 612.332 507.09C611.299 507.09 610.413 507.467 609.673 508.222C608.934 508.969 608.564 509.881 608.564 510.957C608.564 512.041 608.934 512.96 609.673 513.715C610.413 514.462 611.299 514.835 612.332 514.835C613.365 514.835 614.251 514.462 614.991 513.715C615.738 512.96 616.111 512.041 616.111 510.957ZM624.692 512.682H627.691L624.428 518.747C624.23 519.113 623.992 519.296 623.714 519.296C623.531 519.296 623.373 519.23 623.241 519.098C623.117 518.974 623.055 518.82 623.055 518.637C623.055 518.563 623.066 518.483 623.088 518.395L624.692 512.682ZM656.2 516V514.671C654.86 515.799 653.428 516.363 651.905 516.363C650.799 516.363 649.935 516.084 649.312 515.528C648.689 514.964 648.378 514.275 648.378 513.462C648.378 512.569 648.788 511.789 649.609 511.122C650.429 510.456 651.626 510.122 653.201 510.122C653.626 510.122 654.087 510.152 654.585 510.21C655.083 510.261 655.622 510.346 656.2 510.463V508.969C656.2 508.463 655.966 508.024 655.497 507.65C655.029 507.277 654.325 507.09 653.388 507.09C652.67 507.09 651.663 507.299 650.367 507.716C650.132 507.79 649.982 507.826 649.916 507.826C649.799 507.826 649.697 507.782 649.609 507.694C649.528 507.606 649.488 507.497 649.488 507.365C649.488 507.24 649.524 507.141 649.598 507.068C649.7 506.958 650.114 506.808 650.839 506.618C651.982 506.31 652.846 506.156 653.432 506.156C654.596 506.156 655.505 506.446 656.156 507.024C656.808 507.595 657.134 508.244 657.134 508.969V515.077H658.365C658.592 515.077 658.753 515.121 658.848 515.209C658.943 515.29 658.991 515.399 658.991 515.539C658.991 515.67 658.943 515.78 658.848 515.868C658.753 515.956 658.592 516 658.365 516H656.2ZM656.2 511.408C655.768 511.283 655.311 511.192 654.827 511.133C654.344 511.074 653.835 511.045 653.3 511.045C651.96 511.045 650.912 511.334 650.158 511.913C649.587 512.345 649.301 512.862 649.301 513.462C649.301 514.019 649.517 514.488 649.949 514.868C650.389 515.249 651.026 515.44 651.861 515.44C652.659 515.44 653.399 515.282 654.08 514.967C654.769 514.645 655.475 514.136 656.2 513.44V511.408ZM664.078 506.486V507.881C664.722 507.229 665.304 506.779 665.824 506.53C666.344 506.281 666.93 506.156 667.582 506.156C668.285 506.156 668.926 506.306 669.505 506.607C669.915 506.826 670.285 507.193 670.615 507.705C670.951 508.211 671.12 508.731 671.12 509.265V515.077H671.9C672.12 515.077 672.277 515.121 672.372 515.209C672.468 515.29 672.515 515.399 672.515 515.539C672.515 515.67 672.468 515.78 672.372 515.868C672.277 515.956 672.12 516 671.9 516H669.428C669.201 516 669.04 515.956 668.945 515.868C668.849 515.78 668.802 515.67 668.802 515.539C668.802 515.399 668.849 515.29 668.945 515.209C669.04 515.121 669.201 515.077 669.428 515.077H670.197V509.419C670.197 508.767 669.959 508.218 669.483 507.771C669.007 507.317 668.37 507.09 667.571 507.09C666.963 507.09 666.436 507.215 665.989 507.464C665.542 507.705 664.905 508.313 664.078 509.287V515.077H665.121C665.341 515.077 665.499 515.121 665.594 515.209C665.689 515.29 665.737 515.399 665.737 515.539C665.737 515.67 665.689 515.78 665.594 515.868C665.499 515.956 665.341 516 665.121 516H662.111C661.891 516 661.734 515.956 661.639 515.868C661.543 515.78 661.496 515.67 661.496 515.539C661.496 515.399 661.543 515.29 661.639 515.209C661.734 515.121 661.891 515.077 662.111 515.077H663.155V507.42H662.375C662.155 507.42 661.998 507.376 661.902 507.288C661.807 507.2 661.76 507.086 661.76 506.947C661.76 506.815 661.807 506.706 661.902 506.618C661.998 506.53 662.155 506.486 662.375 506.486H664.078ZM680.634 516L676.349 507.42H676.075C675.855 507.42 675.698 507.376 675.602 507.288C675.507 507.2 675.459 507.09 675.459 506.958C675.459 506.863 675.481 506.779 675.525 506.706C675.577 506.625 675.639 506.57 675.712 506.541C675.793 506.504 675.914 506.486 676.075 506.486H678.602C678.821 506.486 678.979 506.53 679.074 506.618C679.169 506.706 679.217 506.819 679.217 506.958C679.217 507.09 679.169 507.2 679.074 507.288C678.979 507.376 678.821 507.42 678.602 507.42H677.36L681.128 514.989L684.842 507.42H683.6C683.381 507.42 683.223 507.376 683.128 507.288C683.033 507.2 682.985 507.086 682.985 506.947C682.985 506.815 683.033 506.706 683.128 506.618C683.223 506.53 683.381 506.486 683.6 506.486H686.116C686.343 506.486 686.504 506.53 686.6 506.618C686.695 506.706 686.742 506.819 686.742 506.958C686.742 507.053 686.713 507.141 686.655 507.222C686.596 507.302 686.53 507.357 686.457 507.387C686.384 507.409 686.178 507.42 685.842 507.42L679.997 519.318H681.436C681.656 519.318 681.813 519.358 681.908 519.439C682.004 519.527 682.051 519.64 682.051 519.779C682.051 519.911 682.004 520.021 681.908 520.109C681.813 520.197 681.656 520.241 681.436 520.241H676.119C675.899 520.241 675.741 520.197 675.646 520.109C675.551 520.028 675.503 519.918 675.503 519.779C675.503 519.64 675.551 519.527 675.646 519.439C675.741 519.358 675.899 519.318 676.119 519.318H679.008L680.634 516ZM697.267 516L696.125 516.011L694.092 510.078L692.071 516.011L690.928 516L689.017 507.42H688.566C688.346 507.42 688.189 507.376 688.094 507.288C687.999 507.2 687.951 507.086 687.951 506.947C687.951 506.815 687.999 506.706 688.094 506.618C688.189 506.53 688.346 506.486 688.566 506.486H691.104C691.324 506.486 691.481 506.53 691.576 506.618C691.672 506.706 691.719 506.819 691.719 506.958C691.719 507.09 691.672 507.2 691.576 507.288C691.481 507.376 691.324 507.42 691.104 507.42H689.928L691.565 514.737L693.532 508.892H694.631L696.652 514.737L698.223 507.42H697.059C696.839 507.42 696.678 507.376 696.575 507.288C696.48 507.2 696.432 507.086 696.432 506.947C696.432 506.815 696.48 506.706 696.575 506.618C696.67 506.53 696.832 506.486 697.059 506.486H699.585C699.812 506.486 699.974 506.53 700.069 506.618C700.164 506.706 700.212 506.819 700.212 506.958C700.212 507.09 700.164 507.2 700.069 507.288C699.974 507.376 699.812 507.42 699.585 507.42H699.146L697.267 516ZM704.562 502.212V507.892C705.148 507.255 705.708 506.808 706.243 506.552C706.785 506.288 707.389 506.156 708.056 506.156C708.774 506.156 709.382 506.284 709.88 506.541C710.385 506.79 710.806 507.178 711.143 507.705C711.48 508.225 711.648 508.775 711.648 509.353V515.077H712.681C712.908 515.077 713.066 515.121 713.154 515.209C713.249 515.29 713.296 515.399 713.296 515.539C713.296 515.67 713.249 515.78 713.154 515.868C713.066 515.956 712.908 516 712.681 516H709.682C709.455 516 709.294 515.956 709.198 515.868C709.103 515.78 709.056 515.67 709.056 515.539C709.056 515.399 709.103 515.29 709.198 515.209C709.294 515.121 709.455 515.077 709.682 515.077H710.715V509.419C710.715 508.753 710.473 508.196 709.99 507.749C709.513 507.302 708.847 507.079 707.99 507.079C707.316 507.079 706.741 507.244 706.265 507.573C705.921 507.808 705.353 508.361 704.562 509.232V515.077H705.606C705.826 515.077 705.983 515.121 706.078 515.209C706.174 515.29 706.221 515.399 706.221 515.539C706.221 515.67 706.174 515.78 706.078 515.868C705.983 515.956 705.826 516 705.606 516H702.596C702.376 516 702.219 515.956 702.123 515.868C702.028 515.78 701.98 515.67 701.98 515.539C701.98 515.399 702.028 515.29 702.123 515.209C702.219 515.121 702.376 515.077 702.596 515.077H703.639V503.146H702.398C702.178 503.146 702.021 503.102 701.926 503.014C701.83 502.926 701.783 502.813 701.783 502.674C701.783 502.542 701.83 502.432 701.926 502.344C702.021 502.256 702.178 502.212 702.398 502.212H704.562ZM726.106 511.463H716.702C716.863 512.656 717.361 513.62 718.196 514.352C719.039 515.077 720.079 515.44 721.316 515.44C722.005 515.44 722.726 515.326 723.481 515.099C724.235 514.872 724.85 514.572 725.326 514.198C725.466 514.088 725.586 514.033 725.689 514.033C725.806 514.033 725.909 514.081 725.997 514.176C726.084 514.264 726.128 514.37 726.128 514.495C726.128 514.619 726.07 514.74 725.953 514.857C725.601 515.224 724.975 515.568 724.074 515.89C723.18 516.205 722.261 516.363 721.316 516.363C719.734 516.363 718.412 515.846 717.35 514.813C716.296 513.773 715.768 512.517 715.768 511.045C715.768 509.705 716.263 508.555 717.251 507.595C718.248 506.636 719.478 506.156 720.943 506.156C722.452 506.156 723.693 506.651 724.667 507.639C725.641 508.621 726.121 509.895 726.106 511.463ZM725.173 510.529C724.99 509.511 724.506 508.683 723.722 508.046C722.946 507.409 722.02 507.09 720.943 507.09C719.866 507.09 718.94 507.405 718.163 508.035C717.387 508.665 716.904 509.496 716.713 510.529H725.173ZM733.522 506.486V508.815C734.723 507.731 735.621 507.035 736.214 506.728C736.814 506.413 737.367 506.255 737.873 506.255C738.422 506.255 738.931 506.442 739.4 506.815C739.876 507.182 740.114 507.46 740.114 507.65C740.114 507.79 740.066 507.907 739.971 508.002C739.883 508.09 739.77 508.134 739.631 508.134C739.557 508.134 739.495 508.123 739.444 508.101C739.393 508.072 739.297 507.987 739.158 507.848C738.902 507.592 738.678 507.416 738.488 507.321C738.298 507.226 738.111 507.178 737.928 507.178C737.525 507.178 737.038 507.339 736.467 507.661C735.903 507.984 734.921 508.771 733.522 510.023V515.077H737.609C737.836 515.077 737.997 515.121 738.093 515.209C738.188 515.29 738.235 515.399 738.235 515.539C738.235 515.67 738.188 515.78 738.093 515.868C737.997 515.956 737.836 516 737.609 516H730.369C730.149 516 729.992 515.96 729.897 515.879C729.802 515.791 729.754 515.681 729.754 515.55C729.754 515.425 729.798 515.323 729.886 515.242C729.981 515.154 730.142 515.11 730.369 515.11H732.599V507.42H730.896C730.677 507.42 730.519 507.376 730.424 507.288C730.329 507.2 730.281 507.086 730.281 506.947C730.281 506.815 730.325 506.706 730.413 506.618C730.508 506.53 730.669 506.486 730.896 506.486H733.522ZM753.133 511.463H743.729C743.89 512.656 744.388 513.62 745.223 514.352C746.065 515.077 747.105 515.44 748.343 515.44C749.031 515.44 749.753 515.326 750.507 515.099C751.261 514.872 751.877 514.572 752.353 514.198C752.492 514.088 752.613 514.033 752.715 514.033C752.833 514.033 752.935 514.081 753.023 514.176C753.111 514.264 753.155 514.37 753.155 514.495C753.155 514.619 753.096 514.74 752.979 514.857C752.627 515.224 752.001 515.568 751.1 515.89C750.207 516.205 749.288 516.363 748.343 516.363C746.761 516.363 745.439 515.846 744.377 514.813C743.322 513.773 742.795 512.517 742.795 511.045C742.795 509.705 743.289 508.555 744.278 507.595C745.274 506.636 746.504 506.156 747.969 506.156C749.478 506.156 750.719 506.651 751.694 507.639C752.668 508.621 753.147 509.895 753.133 511.463ZM752.199 510.529C752.016 509.511 751.532 508.683 750.749 508.046C749.972 507.409 749.046 507.09 747.969 507.09C746.893 507.09 745.966 507.405 745.19 508.035C744.413 508.665 743.93 509.496 743.74 510.529H752.199ZM761.46 513.352H761.856C762.266 513.352 762.618 513.499 762.911 513.792C763.204 514.077 763.35 514.425 763.35 514.835C763.35 515.26 763.2 515.615 762.9 515.901C762.607 516.187 762.259 516.33 761.856 516.33H761.46C761.05 516.33 760.699 516.187 760.406 515.901C760.113 515.608 759.966 515.257 759.966 514.846C759.966 514.422 760.113 514.066 760.406 513.781C760.706 513.495 761.058 513.352 761.46 513.352Z" fill="#CAE0FF"/>
</g>
<defs>
<clipPath id="clip0_969_79">
<rect width="1200" height="630" fill="white"/>
</clipPath>
</defs>
</svg>
