<svg width="1200" height="300" viewBox="0 0 1200 300" fill="none" xmlns="http://www.w3.org/2000/svg">
<g clip-path="url(#clip0_968_54)">
<path d="M1200 0H0V300H1200V0Z" fill="#0C0E13"/>
<path d="M1132 40H68C63.5817 40 60 43.5817 60 48V252C60 256.418 63.5817 260 68 260H1132C1136.42 260 1140 256.418 1140 252V48C1140 43.5817 1136.42 40 1132 40Z" fill="white" fill-opacity="0.02" stroke="white" stroke-opacity="0.08"/>
<path d="M85 70C87.7614 70 90 67.7614 90 65C90 62.2386 87.7614 60 85 60C82.2386 60 80 62.2386 80 65C80 67.7614 82.2386 70 85 70Z" fill="#FF5F56"/>
<path d="M105 70C107.761 70 110 67.7614 110 65C110 62.2386 107.761 60 105 60C102.239 60 100 62.2386 100 65C100 67.7614 102.239 70 105 70Z" fill="#FFBD2E"/>
<path d="M125 70C127.761 70 130 67.7614 130 65C130 62.2386 127.761 60 125 60C122.239 60 120 62.2386 120 65C120 67.7614 122.239 70 125 70Z" fill="#27C93F"/>
<path d="M85.0186 106.471V105.539C85.0186 105.357 85.0508 105.229 85.1152 105.152C85.1855 105.076 85.2764 105.038 85.3877 105.038C85.499 105.038 85.5869 105.076 85.6514 105.152C85.7217 105.229 85.7568 105.357 85.7568 105.539V106.471C86.1553 106.506 86.4834 106.57 86.7412 106.664C86.999 106.752 87.3037 106.913 87.6553 107.147C87.6611 107.001 87.6992 106.893 87.7695 106.822C87.8398 106.752 87.9248 106.717 88.0244 106.717C88.1357 106.717 88.2266 106.755 88.2969 106.831C88.3672 106.907 88.4023 107.033 88.4023 107.209V108.308C88.4023 108.483 88.3672 108.609 88.2969 108.686C88.2266 108.762 88.1357 108.8 88.0244 108.8C87.9307 108.8 87.8516 108.771 87.7871 108.712C87.7227 108.647 87.6787 108.542 87.6553 108.396C87.6201 108.12 87.4385 107.871 87.1104 107.648C86.6299 107.332 86.0645 107.174 85.4141 107.174C84.752 107.174 84.2041 107.367 83.7705 107.754C83.3428 108.141 83.1289 108.577 83.1289 109.063C83.1289 109.55 83.3193 109.922 83.7002 110.18C83.9873 110.379 84.5908 110.566 85.5107 110.742C86.4365 110.912 87.0635 111.073 87.3916 111.226C87.8604 111.431 88.209 111.709 88.4375 112.061C88.6719 112.412 88.7891 112.837 88.7891 113.335C88.7891 114.003 88.5283 114.592 88.0068 115.102C87.4854 115.605 86.7354 115.907 85.7568 116.007V118.178C85.7568 118.359 85.7217 118.488 85.6514 118.564C85.5869 118.641 85.499 118.679 85.3877 118.679C85.2764 118.679 85.1855 118.641 85.1152 118.564C85.0508 118.488 85.0186 118.359 85.0186 118.178V116.007C84.1162 115.948 83.3574 115.655 82.7422 115.128C82.7422 115.386 82.7305 115.544 82.707 115.603C82.6895 115.655 82.6484 115.705 82.584 115.752C82.5195 115.793 82.4492 115.813 82.373 115.813C82.2676 115.813 82.1797 115.775 82.1094 115.699C82.0391 115.623 82.0039 115.497 82.0039 115.321V113.88C82.0039 113.704 82.0361 113.578 82.1006 113.502C82.1709 113.42 82.2617 113.379 82.373 113.379C82.4785 113.379 82.5693 113.417 82.6455 113.493C82.6982 113.546 82.7305 113.663 82.7422 113.845C82.7773 114.155 83.0264 114.475 83.4893 114.803C83.958 115.125 84.5908 115.286 85.3877 115.286C86.2139 115.286 86.8643 115.09 87.3389 114.697C87.8135 114.305 88.0508 113.848 88.0508 113.326C88.0508 112.98 87.9629 112.685 87.7871 112.438C87.6113 112.192 87.3359 111.99 86.9609 111.832C86.7148 111.732 86.1992 111.609 85.4141 111.463C84.2773 111.24 83.4893 110.953 83.0498 110.602C82.6045 110.25 82.3818 109.734 82.3818 109.055C82.3818 108.422 82.6221 107.856 83.1025 107.358C83.583 106.86 84.2217 106.564 85.0186 106.471Z" fill="#6597E9"/>
<path d="M107.523 117V115.937C106.451 116.839 105.306 117.29 104.087 117.29C103.202 117.29 102.511 117.067 102.013 116.622C101.515 116.171 101.266 115.62 101.266 114.97C101.266 114.255 101.594 113.631 102.25 113.098C102.906 112.564 103.864 112.298 105.124 112.298C105.464 112.298 105.833 112.321 106.231 112.368C106.63 112.409 107.061 112.477 107.523 112.57V111.375C107.523 110.971 107.336 110.619 106.961 110.32C106.586 110.021 106.023 109.872 105.273 109.872C104.699 109.872 103.894 110.039 102.856 110.373C102.669 110.432 102.549 110.461 102.496 110.461C102.402 110.461 102.32 110.426 102.25 110.355C102.186 110.285 102.153 110.197 102.153 110.092C102.153 109.992 102.183 109.913 102.241 109.854C102.323 109.767 102.654 109.646 103.234 109.494C104.148 109.248 104.84 109.125 105.309 109.125C106.24 109.125 106.967 109.356 107.488 109.819C108.01 110.276 108.271 110.795 108.271 111.375V116.262H109.255C109.437 116.262 109.565 116.297 109.642 116.367C109.718 116.432 109.756 116.52 109.756 116.631C109.756 116.736 109.718 116.824 109.642 116.895C109.565 116.965 109.437 117 109.255 117H107.523ZM107.523 113.326C107.178 113.227 106.812 113.153 106.425 113.106C106.038 113.06 105.631 113.036 105.203 113.036C104.131 113.036 103.293 113.268 102.689 113.73C102.232 114.076 102.004 114.489 102.004 114.97C102.004 115.415 102.177 115.79 102.522 116.095C102.874 116.399 103.384 116.552 104.052 116.552C104.69 116.552 105.282 116.426 105.827 116.174C106.378 115.916 106.943 115.509 107.523 114.952V113.326ZM115.328 109.389V111.252C116.289 110.385 117.007 109.828 117.481 109.582C117.962 109.33 118.404 109.204 118.809 109.204C119.248 109.204 119.655 109.354 120.03 109.652C120.411 109.945 120.602 110.168 120.602 110.32C120.602 110.432 120.563 110.525 120.487 110.602C120.417 110.672 120.326 110.707 120.215 110.707C120.156 110.707 120.106 110.698 120.065 110.681C120.024 110.657 119.948 110.59 119.837 110.479C119.632 110.273 119.453 110.133 119.301 110.057C119.148 109.98 118.999 109.942 118.853 109.942C118.53 109.942 118.141 110.071 117.684 110.329C117.232 110.587 116.447 111.217 115.328 112.219V116.262H118.598C118.779 116.262 118.908 116.297 118.984 116.367C119.061 116.432 119.099 116.52 119.099 116.631C119.099 116.736 119.061 116.824 118.984 116.895C118.908 116.965 118.779 117 118.598 117H112.806C112.63 117 112.504 116.968 112.428 116.903C112.352 116.833 112.313 116.745 112.313 116.64C112.313 116.54 112.349 116.458 112.419 116.394C112.495 116.323 112.624 116.288 112.806 116.288H114.59V110.136H113.228C113.052 110.136 112.926 110.101 112.85 110.03C112.773 109.96 112.735 109.869 112.735 109.758C112.735 109.652 112.771 109.564 112.841 109.494C112.917 109.424 113.046 109.389 113.228 109.389H115.328ZM130.103 110.136V109.89C130.103 109.708 130.138 109.579 130.208 109.503C130.278 109.427 130.366 109.389 130.472 109.389C130.583 109.389 130.674 109.427 130.744 109.503C130.814 109.579 130.85 109.708 130.85 109.89V111.56C130.844 111.741 130.806 111.87 130.735 111.946C130.671 112.022 130.583 112.061 130.472 112.061C130.372 112.061 130.287 112.028 130.217 111.964C130.152 111.894 130.114 111.779 130.103 111.621C130.067 111.205 129.792 110.81 129.276 110.435C128.767 110.06 128.078 109.872 127.211 109.872C126.115 109.872 125.283 110.215 124.715 110.9C124.146 111.586 123.862 112.371 123.862 113.256C123.862 114.211 124.176 114.999 124.803 115.62C125.43 116.241 126.241 116.552 127.237 116.552C127.812 116.552 128.395 116.446 128.986 116.235C129.584 116.024 130.123 115.685 130.604 115.216C130.727 115.099 130.835 115.04 130.929 115.04C131.028 115.04 131.11 115.075 131.175 115.146C131.245 115.21 131.28 115.292 131.28 115.392C131.28 115.644 130.984 115.963 130.393 116.35C129.438 116.977 128.374 117.29 127.202 117.29C126.013 117.29 125.034 116.912 124.267 116.156C123.505 115.395 123.124 114.431 123.124 113.265C123.124 112.075 123.514 111.088 124.293 110.303C125.078 109.518 126.065 109.125 127.255 109.125C128.386 109.125 129.335 109.462 130.103 110.136ZM139.955 117V115.937C138.883 116.839 137.737 117.29 136.519 117.29C135.634 117.29 134.942 117.067 134.444 116.622C133.946 116.171 133.697 115.62 133.697 114.97C133.697 114.255 134.025 113.631 134.682 113.098C135.338 112.564 136.296 112.298 137.556 112.298C137.896 112.298 138.265 112.321 138.663 112.368C139.062 112.409 139.492 112.477 139.955 112.57V111.375C139.955 110.971 139.768 110.619 139.393 110.32C139.018 110.021 138.455 109.872 137.705 109.872C137.131 109.872 136.325 110.039 135.288 110.373C135.101 110.432 134.98 110.461 134.928 110.461C134.834 110.461 134.752 110.426 134.682 110.355C134.617 110.285 134.585 110.197 134.585 110.092C134.585 109.992 134.614 109.913 134.673 109.854C134.755 109.767 135.086 109.646 135.666 109.494C136.58 109.248 137.271 109.125 137.74 109.125C138.672 109.125 139.398 109.356 139.92 109.819C140.441 110.276 140.702 110.795 140.702 111.375V116.262H141.687C141.868 116.262 141.997 116.297 142.073 116.367C142.149 116.432 142.188 116.52 142.188 116.631C142.188 116.736 142.149 116.824 142.073 116.895C141.997 116.965 141.868 117 141.687 117H139.955ZM139.955 113.326C139.609 113.227 139.243 113.153 138.856 113.106C138.47 113.06 138.062 113.036 137.635 113.036C136.562 113.036 135.725 113.268 135.121 113.73C134.664 114.076 134.436 114.489 134.436 114.97C134.436 115.415 134.608 115.79 134.954 116.095C135.306 116.399 135.815 116.552 136.483 116.552C137.122 116.552 137.714 116.426 138.259 116.174C138.81 115.916 139.375 115.509 139.955 114.952V113.326ZM146.257 109.389V110.505C146.772 109.983 147.238 109.623 147.654 109.424C148.07 109.225 148.539 109.125 149.061 109.125C149.623 109.125 150.136 109.245 150.599 109.485C150.927 109.661 151.223 109.954 151.486 110.364C151.756 110.769 151.891 111.185 151.891 111.612V116.262H152.515C152.69 116.262 152.816 116.297 152.893 116.367C152.969 116.432 153.007 116.52 153.007 116.631C153.007 116.736 152.969 116.824 152.893 116.895C152.816 116.965 152.69 117 152.515 117H150.537C150.355 117 150.227 116.965 150.15 116.895C150.074 116.824 150.036 116.736 150.036 116.631C150.036 116.52 150.074 116.432 150.15 116.367C150.227 116.297 150.355 116.262 150.537 116.262H151.152V111.735C151.152 111.214 150.962 110.774 150.581 110.417C150.2 110.054 149.69 109.872 149.052 109.872C148.565 109.872 148.144 109.972 147.786 110.171C147.429 110.364 146.919 110.851 146.257 111.63V116.262H147.092C147.268 116.262 147.394 116.297 147.47 116.367C147.546 116.432 147.584 116.52 147.584 116.631C147.584 116.736 147.546 116.824 147.47 116.895C147.394 116.965 147.268 117 147.092 117H144.684C144.508 117 144.382 116.965 144.306 116.895C144.229 116.824 144.191 116.736 144.191 116.631C144.191 116.52 144.229 116.432 144.306 116.367C144.382 116.297 144.508 116.262 144.684 116.262H145.519V110.136H144.895C144.719 110.136 144.593 110.101 144.517 110.03C144.44 109.96 144.402 109.869 144.402 109.758C144.402 109.652 144.44 109.564 144.517 109.494C144.593 109.424 144.719 109.389 144.895 109.389H146.257ZM161.98 117V115.919C160.973 116.833 159.883 117.29 158.711 117.29C157.99 117.29 157.442 117.094 157.067 116.701C156.581 116.186 156.338 115.585 156.338 114.899V110.136H155.345C155.169 110.136 155.043 110.101 154.967 110.03C154.891 109.96 154.853 109.869 154.853 109.758C154.853 109.652 154.891 109.564 154.967 109.494C155.043 109.424 155.169 109.389 155.345 109.389H157.076V114.899C157.076 115.38 157.229 115.775 157.533 116.086C157.838 116.396 158.219 116.552 158.676 116.552C159.877 116.552 160.979 116.001 161.98 114.899V110.136H160.618C160.442 110.136 160.316 110.101 160.24 110.03C160.164 109.96 160.126 109.869 160.126 109.758C160.126 109.652 160.164 109.564 160.24 109.494C160.316 109.424 160.442 109.389 160.618 109.389H162.719V116.262H163.343C163.519 116.262 163.645 116.297 163.721 116.367C163.797 116.432 163.835 116.52 163.835 116.631C163.835 116.736 163.797 116.824 163.721 116.895C163.645 116.965 163.519 117 163.343 117H161.98ZM166.902 109.389V110.136C167.529 109.462 168.159 109.125 168.792 109.125C169.173 109.125 169.507 109.228 169.794 109.433C170.081 109.632 170.321 109.937 170.515 110.347C170.843 109.937 171.174 109.632 171.508 109.433C171.848 109.228 172.188 109.125 172.527 109.125C173.061 109.125 173.485 109.298 173.802 109.644C174.218 110.089 174.426 110.575 174.426 111.103V116.262H175.05C175.226 116.262 175.352 116.297 175.428 116.367C175.504 116.432 175.542 116.52 175.542 116.631C175.542 116.736 175.504 116.824 175.428 116.895C175.352 116.965 175.226 117 175.05 117H173.688V111.173C173.688 110.798 173.573 110.487 173.345 110.241C173.116 109.995 172.853 109.872 172.554 109.872C172.284 109.872 172 109.975 171.701 110.18C171.402 110.379 171.062 110.774 170.682 111.366V116.262H171.297C171.473 116.262 171.599 116.297 171.675 116.367C171.751 116.432 171.789 116.52 171.789 116.631C171.789 116.736 171.751 116.824 171.675 116.895C171.599 116.965 171.473 117 171.297 117H169.935V111.226C169.935 110.833 169.817 110.511 169.583 110.259C169.354 110.001 169.097 109.872 168.81 109.872C168.546 109.872 168.285 109.957 168.027 110.127C167.67 110.367 167.295 110.78 166.902 111.366V116.262H167.526C167.702 116.262 167.828 116.297 167.904 116.367C167.98 116.432 168.019 116.52 168.019 116.631C168.019 116.736 167.98 116.824 167.904 116.895C167.828 116.965 167.702 117 167.526 117H165.54C165.364 117 165.238 116.965 165.162 116.895C165.086 116.824 165.048 116.736 165.048 116.631C165.048 116.52 165.086 116.432 165.162 116.367C165.238 116.297 165.364 116.262 165.54 116.262H166.164V110.136H165.54C165.364 110.136 165.238 110.101 165.162 110.03C165.086 109.96 165.048 109.869 165.048 109.758C165.048 109.652 165.086 109.564 165.162 109.494C165.238 109.424 165.364 109.389 165.54 109.389H166.902ZM195.651 111.384V112.438H188.119V111.384H195.651ZM206.462 111.384V112.438H198.93V111.384H206.462ZM215.945 109.872C215.945 109.702 215.98 109.579 216.051 109.503C216.121 109.427 216.209 109.389 216.314 109.389C216.426 109.389 216.517 109.427 216.587 109.503C216.657 109.579 216.692 109.708 216.692 109.89V111.155C216.692 111.331 216.657 111.457 216.587 111.533C216.517 111.609 216.426 111.647 216.314 111.647C216.215 111.647 216.13 111.615 216.06 111.551C215.995 111.486 215.957 111.381 215.945 111.234C215.91 110.883 215.729 110.593 215.4 110.364C214.92 110.036 214.284 109.872 213.493 109.872C212.667 109.872 212.025 110.039 211.568 110.373C211.223 110.625 211.05 110.906 211.05 111.217C211.05 111.568 211.255 111.861 211.665 112.096C211.946 112.26 212.479 112.386 213.265 112.474C214.29 112.585 215.002 112.711 215.4 112.852C215.969 113.057 216.391 113.341 216.666 113.704C216.947 114.067 217.088 114.46 217.088 114.882C217.088 115.509 216.786 116.068 216.183 116.561C215.579 117.047 214.694 117.29 213.528 117.29C212.362 117.29 211.407 116.994 210.663 116.402C210.663 116.602 210.651 116.73 210.628 116.789C210.604 116.848 210.561 116.897 210.496 116.938C210.438 116.979 210.37 117 210.294 117C210.188 117 210.101 116.962 210.03 116.886C209.96 116.81 209.925 116.684 209.925 116.508V114.987C209.925 114.812 209.957 114.686 210.021 114.609C210.092 114.533 210.183 114.495 210.294 114.495C210.399 114.495 210.487 114.533 210.558 114.609C210.634 114.68 210.672 114.776 210.672 114.899C210.672 115.169 210.739 115.395 210.874 115.576C211.079 115.857 211.404 116.092 211.85 116.279C212.301 116.461 212.852 116.552 213.502 116.552C214.463 116.552 215.178 116.373 215.646 116.016C216.115 115.658 216.35 115.28 216.35 114.882C216.35 114.425 216.112 114.059 215.638 113.783C215.157 113.508 214.457 113.323 213.537 113.229C212.623 113.136 211.967 113.013 211.568 112.86C211.17 112.708 210.859 112.479 210.637 112.175C210.414 111.87 210.303 111.542 210.303 111.19C210.303 110.558 210.613 110.057 211.234 109.688C211.855 109.312 212.597 109.125 213.458 109.125C214.478 109.125 215.307 109.374 215.945 109.872ZM221.887 105.97V110.514C222.355 110.004 222.804 109.646 223.231 109.441C223.665 109.23 224.148 109.125 224.682 109.125C225.256 109.125 225.742 109.228 226.141 109.433C226.545 109.632 226.882 109.942 227.151 110.364C227.421 110.78 227.556 111.22 227.556 111.683V116.262H228.382C228.563 116.262 228.689 116.297 228.76 116.367C228.836 116.432 228.874 116.52 228.874 116.631C228.874 116.736 228.836 116.824 228.76 116.895C228.689 116.965 228.563 117 228.382 117H225.982C225.801 117 225.672 116.965 225.596 116.895C225.52 116.824 225.481 116.736 225.481 116.631C225.481 116.52 225.52 116.432 225.596 116.367C225.672 116.297 225.801 116.262 225.982 116.262H226.809V111.735C226.809 111.202 226.615 110.757 226.229 110.399C225.848 110.042 225.314 109.863 224.629 109.863C224.09 109.863 223.63 109.995 223.249 110.259C222.974 110.446 222.52 110.889 221.887 111.586V116.262H222.722C222.897 116.262 223.023 116.297 223.1 116.367C223.176 116.432 223.214 116.52 223.214 116.631C223.214 116.736 223.176 116.824 223.1 116.895C223.023 116.965 222.897 117 222.722 117H220.313C220.138 117 220.012 116.965 219.936 116.895C219.859 116.824 219.821 116.736 219.821 116.631C219.821 116.52 219.859 116.432 219.936 116.367C220.012 116.297 220.138 116.262 220.313 116.262H221.148V106.717H220.155C219.979 106.717 219.854 106.682 219.777 106.611C219.701 106.541 219.663 106.45 219.663 106.339C219.663 106.233 219.701 106.146 219.777 106.075C219.854 106.005 219.979 105.97 220.155 105.97H221.887ZM237.25 117V115.937C236.178 116.839 235.032 117.29 233.813 117.29C232.929 117.29 232.237 117.067 231.739 116.622C231.241 116.171 230.992 115.62 230.992 114.97C230.992 114.255 231.32 113.631 231.977 113.098C232.633 112.564 233.591 112.298 234.851 112.298C235.19 112.298 235.56 112.321 235.958 112.368C236.356 112.409 236.787 112.477 237.25 112.57V111.375C237.25 110.971 237.062 110.619 236.688 110.32C236.312 110.021 235.75 109.872 235 109.872C234.426 109.872 233.62 110.039 232.583 110.373C232.396 110.432 232.275 110.461 232.223 110.461C232.129 110.461 232.047 110.426 231.977 110.355C231.912 110.285 231.88 110.197 231.88 110.092C231.88 109.992 231.909 109.913 231.968 109.854C232.05 109.767 232.381 109.646 232.961 109.494C233.875 109.248 234.566 109.125 235.035 109.125C235.967 109.125 236.693 109.356 237.215 109.819C237.736 110.276 237.997 110.795 237.997 111.375V116.262H238.981C239.163 116.262 239.292 116.297 239.368 116.367C239.444 116.432 239.482 116.52 239.482 116.631C239.482 116.736 239.444 116.824 239.368 116.895C239.292 116.965 239.163 117 238.981 117H237.25ZM237.25 113.326C236.904 113.227 236.538 113.153 236.151 113.106C235.765 113.06 235.357 113.036 234.93 113.036C233.857 113.036 233.02 113.268 232.416 113.73C231.959 114.076 231.73 114.489 231.73 114.97C231.73 115.415 231.903 115.79 232.249 116.095C232.601 116.399 233.11 116.552 233.778 116.552C234.417 116.552 235.009 116.426 235.554 116.174C236.104 115.916 236.67 115.509 237.25 114.952V113.326ZM245.055 109.389V111.252C246.016 110.385 246.733 109.828 247.208 109.582C247.688 109.33 248.131 109.204 248.535 109.204C248.975 109.204 249.382 109.354 249.757 109.652C250.138 109.945 250.328 110.168 250.328 110.32C250.328 110.432 250.29 110.525 250.214 110.602C250.144 110.672 250.053 110.707 249.941 110.707C249.883 110.707 249.833 110.698 249.792 110.681C249.751 110.657 249.675 110.59 249.563 110.479C249.358 110.273 249.18 110.133 249.027 110.057C248.875 109.98 248.726 109.942 248.579 109.942C248.257 109.942 247.867 110.071 247.41 110.329C246.959 110.587 246.174 111.217 245.055 112.219V116.262H248.324C248.506 116.262 248.635 116.297 248.711 116.367C248.787 116.432 248.825 116.52 248.825 116.631C248.825 116.736 248.787 116.824 248.711 116.895C248.635 116.965 248.506 117 248.324 117H242.532C242.356 117 242.23 116.968 242.154 116.903C242.078 116.833 242.04 116.745 242.04 116.64C242.04 116.54 242.075 116.458 242.146 116.394C242.222 116.323 242.351 116.288 242.532 116.288H244.316V110.136H242.954C242.778 110.136 242.652 110.101 242.576 110.03C242.5 109.96 242.462 109.869 242.462 109.758C242.462 109.652 242.497 109.564 242.567 109.494C242.644 109.424 242.772 109.389 242.954 109.389H245.055ZM260.743 113.37H253.22C253.349 114.325 253.747 115.096 254.415 115.682C255.089 116.262 255.921 116.552 256.911 116.552C257.462 116.552 258.039 116.461 258.643 116.279C259.246 116.098 259.738 115.857 260.119 115.559C260.23 115.471 260.327 115.427 260.409 115.427C260.503 115.427 260.585 115.465 260.655 115.541C260.726 115.611 260.761 115.696 260.761 115.796C260.761 115.896 260.714 115.992 260.62 116.086C260.339 116.379 259.838 116.654 259.117 116.912C258.402 117.164 257.667 117.29 256.911 117.29C255.646 117.29 254.588 116.877 253.738 116.051C252.895 115.219 252.473 114.214 252.473 113.036C252.473 111.964 252.868 111.044 253.659 110.276C254.456 109.509 255.44 109.125 256.612 109.125C257.819 109.125 258.812 109.521 259.592 110.312C260.371 111.097 260.755 112.116 260.743 113.37ZM259.996 112.623C259.85 111.809 259.463 111.146 258.836 110.637C258.215 110.127 257.474 109.872 256.612 109.872C255.751 109.872 255.01 110.124 254.389 110.628C253.768 111.132 253.381 111.797 253.229 112.623H259.996ZM275.307 106.154H277.645L277.029 110.426C276.994 110.648 276.93 110.807 276.836 110.9C276.742 110.988 276.622 111.032 276.476 111.032C276.329 111.032 276.209 110.988 276.115 110.9C276.021 110.807 275.957 110.648 275.922 110.426L275.307 106.154ZM279.077 106.154H281.415L280.8 110.426C280.765 110.648 280.7 110.807 280.606 110.9C280.513 110.988 280.396 111.032 280.255 111.032C280.103 111.032 279.979 110.988 279.886 110.9C279.792 110.807 279.73 110.648 279.701 110.426L279.077 106.154ZM289.554 105.97V116.262H292.454C292.636 116.262 292.765 116.297 292.841 116.367C292.917 116.432 292.955 116.52 292.955 116.631C292.955 116.736 292.917 116.824 292.841 116.895C292.765 116.965 292.636 117 292.454 117H285.915C285.739 117 285.613 116.965 285.537 116.895C285.461 116.824 285.423 116.736 285.423 116.631C285.423 116.52 285.461 116.432 285.537 116.367C285.613 116.297 285.739 116.262 285.915 116.262H288.815V106.717H286.688C286.513 106.717 286.384 106.682 286.302 106.611C286.226 106.541 286.188 106.45 286.188 106.339C286.188 106.233 286.226 106.146 286.302 106.075C286.378 106.005 286.507 105.97 286.688 105.97H289.554ZM300.355 105.601V107.508H299.266V105.601H300.355ZM300.382 109.389V116.262H303.282C303.464 116.262 303.593 116.297 303.669 116.367C303.745 116.432 303.783 116.52 303.783 116.631C303.783 116.736 303.745 116.824 303.669 116.895C303.593 116.965 303.464 117 303.282 117H296.743C296.567 117 296.441 116.965 296.365 116.895C296.289 116.824 296.251 116.736 296.251 116.631C296.251 116.52 296.289 116.432 296.365 116.367C296.441 116.297 296.567 116.262 296.743 116.262H299.644V110.136H297.49C297.314 110.136 297.186 110.101 297.104 110.03C297.027 109.96 296.989 109.872 296.989 109.767C296.989 109.655 297.027 109.564 297.104 109.494C297.18 109.424 297.309 109.389 297.49 109.389H300.382ZM308.415 109.389V110.505C308.931 109.983 309.396 109.623 309.812 109.424C310.229 109.225 310.697 109.125 311.219 109.125C311.781 109.125 312.294 109.245 312.757 109.485C313.085 109.661 313.381 109.954 313.645 110.364C313.914 110.769 314.049 111.185 314.049 111.612V116.262H314.673C314.849 116.262 314.975 116.297 315.051 116.367C315.127 116.432 315.165 116.52 315.165 116.631C315.165 116.736 315.127 116.824 315.051 116.895C314.975 116.965 314.849 117 314.673 117H312.695C312.514 117 312.385 116.965 312.309 116.895C312.232 116.824 312.194 116.736 312.194 116.631C312.194 116.52 312.232 116.432 312.309 116.367C312.385 116.297 312.514 116.262 312.695 116.262H313.311V111.735C313.311 111.214 313.12 110.774 312.739 110.417C312.358 110.054 311.849 109.872 311.21 109.872C310.724 109.872 310.302 109.972 309.944 110.171C309.587 110.364 309.077 110.851 308.415 111.63V116.262H309.25C309.426 116.262 309.552 116.297 309.628 116.367C309.704 116.432 309.742 116.52 309.742 116.631C309.742 116.736 309.704 116.824 309.628 116.895C309.552 116.965 309.426 117 309.25 117H306.842C306.666 117 306.54 116.965 306.464 116.895C306.388 116.824 306.35 116.736 306.35 116.631C306.35 116.52 306.388 116.432 306.464 116.367C306.54 116.297 306.666 116.262 306.842 116.262H307.677V110.136H307.053C306.877 110.136 306.751 110.101 306.675 110.03C306.599 109.96 306.561 109.869 306.561 109.758C306.561 109.652 306.599 109.564 306.675 109.494C306.751 109.424 306.877 109.389 307.053 109.389H308.415ZM320.113 113.713V117H318.382C318.206 117 318.08 116.965 318.004 116.895C317.928 116.824 317.89 116.736 317.89 116.631C317.89 116.52 317.928 116.432 318.004 116.367C318.08 116.297 318.206 116.262 318.382 116.262H319.375V106.717H318.382C318.206 106.717 318.08 106.682 318.004 106.611C317.928 106.541 317.89 106.45 317.89 106.339C317.89 106.233 317.928 106.146 318.004 106.075C318.08 106.005 318.206 105.97 318.382 105.97H320.113V112.772L323.251 110.136H322.873C322.697 110.136 322.571 110.101 322.495 110.03C322.419 109.96 322.381 109.872 322.381 109.767C322.381 109.655 322.419 109.564 322.495 109.494C322.571 109.424 322.697 109.389 322.873 109.389H325.237C325.419 109.389 325.548 109.424 325.624 109.494C325.7 109.564 325.738 109.655 325.738 109.767C325.738 109.872 325.7 109.96 325.624 110.03C325.548 110.101 325.419 110.136 325.237 110.136H324.385L321.502 112.544L325.149 116.262H326.002C326.184 116.262 326.312 116.297 326.389 116.367C326.465 116.432 326.503 116.52 326.503 116.631C326.503 116.736 326.465 116.824 326.389 116.895C326.312 116.965 326.184 117 326.002 117H323.611C323.436 117 323.31 116.965 323.233 116.895C323.157 116.824 323.119 116.736 323.119 116.631C323.119 116.52 323.157 116.432 323.233 116.367C323.31 116.297 323.436 116.262 323.611 116.262H324.13L320.957 113.001L320.113 113.713ZM334.861 109.872C334.861 109.702 334.896 109.579 334.967 109.503C335.037 109.427 335.125 109.389 335.23 109.389C335.342 109.389 335.433 109.427 335.503 109.503C335.573 109.579 335.608 109.708 335.608 109.89V111.155C335.608 111.331 335.573 111.457 335.503 111.533C335.433 111.609 335.342 111.647 335.23 111.647C335.131 111.647 335.046 111.615 334.976 111.551C334.911 111.486 334.873 111.381 334.861 111.234C334.826 110.883 334.645 110.593 334.316 110.364C333.836 110.036 333.2 109.872 332.409 109.872C331.583 109.872 330.941 110.039 330.484 110.373C330.139 110.625 329.966 110.906 329.966 111.217C329.966 111.568 330.171 111.861 330.581 112.096C330.862 112.26 331.396 112.386 332.181 112.474C333.206 112.585 333.918 112.711 334.316 112.852C334.885 113.057 335.307 113.341 335.582 113.704C335.863 114.067 336.004 114.46 336.004 114.882C336.004 115.509 335.702 116.068 335.099 116.561C334.495 117.047 333.61 117.29 332.444 117.29C331.278 117.29 330.323 116.994 329.579 116.402C329.579 116.602 329.567 116.73 329.544 116.789C329.521 116.848 329.477 116.897 329.412 116.938C329.354 116.979 329.286 117 329.21 117C329.104 117 329.017 116.962 328.946 116.886C328.876 116.81 328.841 116.684 328.841 116.508V114.987C328.841 114.812 328.873 114.686 328.938 114.609C329.008 114.533 329.099 114.495 329.21 114.495C329.315 114.495 329.403 114.533 329.474 114.609C329.55 114.68 329.588 114.776 329.588 114.899C329.588 115.169 329.655 115.395 329.79 115.576C329.995 115.857 330.32 116.092 330.766 116.279C331.217 116.461 331.768 116.552 332.418 116.552C333.379 116.552 334.094 116.373 334.562 116.016C335.031 115.658 335.266 115.28 335.266 114.882C335.266 114.425 335.028 114.059 334.554 113.783C334.073 113.508 333.373 113.323 332.453 113.229C331.539 113.136 330.883 113.013 330.484 112.86C330.086 112.708 329.775 112.479 329.553 112.175C329.33 111.87 329.219 111.542 329.219 111.19C329.219 110.558 329.529 110.057 330.15 109.688C330.771 109.312 331.513 109.125 332.374 109.125C333.394 109.125 334.223 109.374 334.861 109.872ZM341.77 114.346H344.169L341.559 119.197C341.4 119.49 341.21 119.637 340.987 119.637C340.841 119.637 340.715 119.584 340.609 119.479C340.51 119.379 340.46 119.256 340.46 119.109C340.46 119.051 340.469 118.986 340.486 118.916L341.77 114.346ZM364.366 110.136V116.262H367.609C367.785 116.262 367.911 116.297 367.987 116.367C368.063 116.432 368.102 116.52 368.102 116.631C368.102 116.736 368.063 116.824 367.987 116.895C367.911 116.965 367.785 117 367.609 117H361.835C361.659 117 361.533 116.965 361.457 116.895C361.381 116.824 361.343 116.736 361.343 116.631C361.343 116.52 361.381 116.432 361.457 116.367C361.533 116.297 361.659 116.262 361.835 116.262H363.619V110.136H362.02C361.844 110.136 361.718 110.101 361.642 110.03C361.565 109.96 361.527 109.869 361.527 109.758C361.527 109.652 361.565 109.564 361.642 109.494C361.718 109.424 361.844 109.389 362.02 109.389H363.619V108.272C363.619 107.651 363.871 107.112 364.375 106.655C364.879 106.198 365.547 105.97 366.379 105.97C367.076 105.97 367.82 106.034 368.611 106.163C368.91 106.21 369.089 106.266 369.147 106.33C369.212 106.395 369.244 106.479 369.244 106.585C369.244 106.69 369.209 106.778 369.139 106.849C369.068 106.913 368.975 106.945 368.857 106.945C368.811 106.945 368.731 106.937 368.62 106.919C367.735 106.784 366.988 106.717 366.379 106.717C365.734 106.717 365.236 106.875 364.885 107.191C364.539 107.508 364.366 107.868 364.366 108.272V109.389H367.82C367.996 109.389 368.122 109.424 368.198 109.494C368.274 109.564 368.312 109.655 368.312 109.767C368.312 109.872 368.274 109.96 368.198 110.03C368.122 110.101 367.996 110.136 367.82 110.136H364.366ZM376.029 105.601V107.508H374.939V105.601H376.029ZM376.056 109.389V116.262H378.956C379.138 116.262 379.267 116.297 379.343 116.367C379.419 116.432 379.457 116.52 379.457 116.631C379.457 116.736 379.419 116.824 379.343 116.895C379.267 116.965 379.138 117 378.956 117H372.417C372.241 117 372.115 116.965 372.039 116.895C371.963 116.824 371.925 116.736 371.925 116.631C371.925 116.52 371.963 116.432 372.039 116.367C372.115 116.297 372.241 116.262 372.417 116.262H375.317V110.136H373.164C372.988 110.136 372.859 110.101 372.777 110.03C372.701 109.96 372.663 109.872 372.663 109.767C372.663 109.655 372.701 109.564 372.777 109.494C372.854 109.424 372.982 109.389 373.164 109.389H376.056ZM386.849 105.97V116.262H389.749C389.931 116.262 390.06 116.297 390.136 116.367C390.212 116.432 390.25 116.52 390.25 116.631C390.25 116.736 390.212 116.824 390.136 116.895C390.06 116.965 389.931 117 389.749 117H383.21C383.034 117 382.908 116.965 382.832 116.895C382.756 116.824 382.718 116.736 382.718 116.631C382.718 116.52 382.756 116.432 382.832 116.367C382.908 116.297 383.034 116.262 383.21 116.262H386.11V106.717H383.983C383.808 106.717 383.679 106.682 383.597 106.611C383.521 106.541 383.482 106.45 383.482 106.339C383.482 106.233 383.521 106.146 383.597 106.075C383.673 106.005 383.802 105.97 383.983 105.97H386.849ZM401.28 113.37H393.757C393.886 114.325 394.284 115.096 394.952 115.682C395.626 116.262 396.458 116.552 397.448 116.552C397.999 116.552 398.576 116.461 399.18 116.279C399.783 116.098 400.275 115.857 400.656 115.559C400.768 115.471 400.864 115.427 400.946 115.427C401.04 115.427 401.122 115.465 401.192 115.541C401.263 115.611 401.298 115.696 401.298 115.796C401.298 115.896 401.251 115.992 401.157 116.086C400.876 116.379 400.375 116.654 399.654 116.912C398.939 117.164 398.204 117.29 397.448 117.29C396.183 117.29 395.125 116.877 394.275 116.051C393.432 115.219 393.01 114.214 393.01 113.036C393.01 111.964 393.405 111.044 394.196 110.276C394.993 109.509 395.978 109.125 397.149 109.125C398.356 109.125 399.35 109.521 400.129 110.312C400.908 111.097 401.292 112.116 401.28 113.37ZM400.533 112.623C400.387 111.809 400 111.146 399.373 110.637C398.752 110.127 398.011 109.872 397.149 109.872C396.288 109.872 395.547 110.124 394.926 110.628C394.305 111.132 393.918 111.797 393.766 112.623H400.533ZM410.535 109.872C410.535 109.702 410.57 109.579 410.641 109.503C410.711 109.427 410.799 109.389 410.904 109.389C411.016 109.389 411.106 109.427 411.177 109.503C411.247 109.579 411.282 109.708 411.282 109.89V111.155C411.282 111.331 411.247 111.457 411.177 111.533C411.106 111.609 411.016 111.647 410.904 111.647C410.805 111.647 410.72 111.615 410.649 111.551C410.585 111.486 410.547 111.381 410.535 111.234C410.5 110.883 410.318 110.593 409.99 110.364C409.51 110.036 408.874 109.872 408.083 109.872C407.257 109.872 406.615 110.039 406.158 110.373C405.812 110.625 405.64 110.906 405.64 111.217C405.64 111.568 405.845 111.861 406.255 112.096C406.536 112.26 407.069 112.386 407.854 112.474C408.88 112.585 409.592 112.711 409.99 112.852C410.559 113.057 410.98 113.341 411.256 113.704C411.537 114.067 411.678 114.46 411.678 114.882C411.678 115.509 411.376 116.068 410.772 116.561C410.169 117.047 409.284 117.29 408.118 117.29C406.952 117.29 405.997 116.994 405.253 116.402C405.253 116.602 405.241 116.73 405.218 116.789C405.194 116.848 405.15 116.897 405.086 116.938C405.027 116.979 404.96 117 404.884 117C404.778 117 404.69 116.962 404.62 116.886C404.55 116.81 404.515 116.684 404.515 116.508V114.987C404.515 114.812 404.547 114.686 404.611 114.609C404.682 114.533 404.772 114.495 404.884 114.495C404.989 114.495 405.077 114.533 405.147 114.609C405.224 114.68 405.262 114.776 405.262 114.899C405.262 115.169 405.329 115.395 405.464 115.576C405.669 115.857 405.994 116.092 406.439 116.279C406.891 116.461 407.441 116.552 408.092 116.552C409.053 116.552 409.768 116.373 410.236 116.016C410.705 115.658 410.939 115.28 410.939 114.882C410.939 114.425 410.702 114.059 410.228 113.783C409.747 113.508 409.047 113.323 408.127 113.229C407.213 113.136 406.557 113.013 406.158 112.86C405.76 112.708 405.449 112.479 405.227 112.175C405.004 111.87 404.893 111.542 404.893 111.19C404.893 110.558 405.203 110.057 405.824 109.688C406.445 109.312 407.187 109.125 408.048 109.125C409.067 109.125 409.896 109.374 410.535 109.872ZM415.844 106.154H418.182L417.566 110.426C417.531 110.648 417.467 110.807 417.373 110.9C417.279 110.988 417.159 111.032 417.013 111.032C416.866 111.032 416.746 110.988 416.652 110.9C416.559 110.807 416.494 110.648 416.459 110.426L415.844 106.154ZM419.614 106.154H421.952L421.337 110.426C421.302 110.648 421.237 110.807 421.144 110.9C421.05 110.988 420.933 111.032 420.792 111.032C420.64 111.032 420.517 110.988 420.423 110.9C420.329 110.807 420.268 110.648 420.238 110.426L419.614 106.154Z" fill="#CAE0FF"/>
<path d="M89.9404 146.876L81.96 151.323C81.8311 151.394 81.7344 151.429 81.6699 151.429C81.5703 151.429 81.4824 151.394 81.4062 151.323C81.3359 151.247 81.3008 151.159 81.3008 151.06C81.3008 150.913 81.4004 150.784 81.5996 150.673L88.4375 146.876L81.6084 143.079C81.4092 142.968 81.3096 142.839 81.3096 142.692C81.3096 142.593 81.3447 142.508 81.415 142.438C81.4912 142.361 81.5791 142.323 81.6787 142.323C81.7432 142.323 81.8398 142.358 81.9688 142.429L89.9404 146.876Z" fill="#6597E9"/>
<path d="M107.603 149.1H103.226L102.786 150.198H103.226C103.659 150.198 103.967 150.283 104.148 150.453C104.336 150.617 104.43 150.834 104.43 151.104C104.43 151.367 104.336 151.584 104.148 151.754C103.967 151.918 103.659 152 103.226 152H100.8C100.366 152 100.059 151.918 99.877 151.754C99.6895 151.584 99.5957 151.364 99.5957 151.095C99.5957 150.825 99.6924 150.605 99.8857 150.436C100.079 150.266 100.398 150.187 100.844 150.198L103.674 143.149H102.496C102.062 143.149 101.752 143.067 101.564 142.903C101.383 142.733 101.292 142.514 101.292 142.244C101.292 141.975 101.383 141.758 101.564 141.594C101.752 141.424 102.062 141.339 102.496 141.339L106.39 141.348L109.976 150.198C110.397 150.198 110.676 150.245 110.811 150.339C111.08 150.532 111.215 150.787 111.215 151.104C111.215 151.367 111.124 151.584 110.942 151.754C110.761 151.918 110.453 152 110.02 152H107.594C107.16 152 106.85 151.918 106.662 151.754C106.48 151.584 106.39 151.364 106.39 151.095C106.39 150.831 106.48 150.617 106.662 150.453C106.85 150.283 107.16 150.198 107.594 150.198H108.033L107.603 149.1ZM106.855 147.298L105.405 143.729L103.946 147.298H106.855ZM115.838 144.02V145.145C116.594 144.6 117.188 144.236 117.622 144.055C118.062 143.873 118.472 143.782 118.853 143.782C119.438 143.782 120.007 143.999 120.558 144.433C120.933 144.726 121.12 145.024 121.12 145.329C121.12 145.587 121.029 145.807 120.848 145.988C120.672 146.164 120.458 146.252 120.206 146.252C119.983 146.252 119.749 146.141 119.503 145.918C119.257 145.695 119.037 145.584 118.844 145.584C118.592 145.584 118.214 145.742 117.71 146.059C117.212 146.375 116.588 146.85 115.838 147.482V150.198H118.404C118.838 150.198 119.146 150.283 119.327 150.453C119.515 150.617 119.608 150.834 119.608 151.104C119.608 151.367 119.515 151.584 119.327 151.754C119.146 151.918 118.838 152 118.404 152H112.964C112.53 152 112.22 151.918 112.032 151.754C111.851 151.584 111.76 151.364 111.76 151.095C111.76 150.831 111.851 150.617 112.032 150.453C112.22 150.283 112.53 150.198 112.964 150.198H114.036V145.821H113.386C112.952 145.821 112.642 145.739 112.454 145.575C112.272 145.405 112.182 145.186 112.182 144.916C112.182 144.652 112.272 144.438 112.454 144.274C112.642 144.104 112.952 144.02 113.386 144.02H115.838ZM129.83 144.345C130.047 144.14 130.27 144.037 130.498 144.037C130.756 144.037 130.967 144.131 131.131 144.318C131.301 144.5 131.386 144.805 131.386 145.232V146.393C131.386 146.826 131.301 147.134 131.131 147.315C130.967 147.497 130.75 147.588 130.48 147.588C130.234 147.588 130.026 147.518 129.856 147.377C129.733 147.271 129.637 147.058 129.566 146.735C129.496 146.407 129.326 146.164 129.057 146.006C128.582 145.725 127.976 145.584 127.237 145.584C126.388 145.584 125.705 145.833 125.189 146.331C124.68 146.829 124.425 147.459 124.425 148.221C124.425 148.924 124.671 149.48 125.163 149.891C125.655 150.295 126.473 150.497 127.615 150.497C128.365 150.497 128.978 150.421 129.452 150.269C129.733 150.175 130 150.017 130.252 149.794C130.504 149.565 130.732 149.451 130.938 149.451C131.184 149.451 131.395 149.542 131.57 149.724C131.752 149.905 131.843 150.119 131.843 150.365C131.843 150.764 131.57 151.142 131.025 151.499C130.217 152.032 129.033 152.299 127.475 152.299C126.074 152.299 124.984 152.009 124.205 151.429C123.15 150.649 122.623 149.583 122.623 148.229C122.623 146.946 123.051 145.886 123.906 145.048C124.762 144.204 125.878 143.782 127.255 143.782C127.753 143.782 128.216 143.829 128.644 143.923C129.071 144.017 129.467 144.157 129.83 144.345ZM139.454 152V151.578C139.003 151.818 138.505 151.997 137.96 152.114C137.415 152.237 136.92 152.299 136.475 152.299C135.508 152.299 134.723 152.044 134.119 151.534C133.516 151.019 133.214 150.45 133.214 149.829C133.214 149.073 133.598 148.373 134.365 147.729C135.139 147.078 136.205 146.753 137.564 146.753C138.109 146.753 138.739 146.812 139.454 146.929V146.498C139.454 146.229 139.337 146.009 139.103 145.839C138.874 145.669 138.435 145.584 137.784 145.584C137.251 145.584 136.56 145.689 135.71 145.9C135.394 145.977 135.147 146.015 134.972 146.015C134.731 146.015 134.526 145.93 134.356 145.76C134.192 145.584 134.11 145.361 134.11 145.092C134.11 144.939 134.14 144.808 134.198 144.696C134.257 144.585 134.339 144.497 134.444 144.433C134.55 144.362 134.77 144.28 135.104 144.187C135.549 144.063 136.003 143.967 136.466 143.896C136.929 143.82 137.348 143.782 137.723 143.782C138.842 143.782 139.709 144.025 140.324 144.512C140.945 144.992 141.256 145.651 141.256 146.489V150.198H141.563C141.997 150.198 142.305 150.283 142.486 150.453C142.674 150.617 142.768 150.834 142.768 151.104C142.768 151.367 142.674 151.584 142.486 151.754C142.305 151.918 141.997 152 141.563 152H139.454ZM139.454 148.774C138.733 148.634 138.068 148.563 137.459 148.563C136.727 148.563 136.097 148.742 135.569 149.1C135.241 149.328 135.077 149.56 135.077 149.794C135.077 149.964 135.156 150.102 135.314 150.207C135.607 150.4 136.009 150.497 136.519 150.497C136.952 150.497 137.441 150.412 137.986 150.242C138.537 150.072 139.026 149.841 139.454 149.548V148.774ZM146.819 144.02V144.626C147.147 144.345 147.508 144.134 147.9 143.993C148.299 143.853 148.729 143.782 149.192 143.782C150.259 143.782 151.103 144.113 151.724 144.775C152.216 145.303 152.462 145.994 152.462 146.85V150.198C152.843 150.198 153.124 150.283 153.306 150.453C153.487 150.617 153.578 150.834 153.578 151.104C153.578 151.367 153.484 151.584 153.297 151.754C153.115 151.918 152.808 152 152.374 152H150.748C150.314 152 150.004 151.918 149.816 151.754C149.635 151.584 149.544 151.364 149.544 151.095C149.544 150.831 149.635 150.617 149.816 150.453C149.998 150.283 150.279 150.198 150.66 150.198V146.797C150.66 146.404 150.555 146.117 150.344 145.936C150.068 145.701 149.655 145.584 149.104 145.584C148.688 145.584 148.322 145.666 148.006 145.83C147.695 145.988 147.3 146.328 146.819 146.85V150.198C147.282 150.198 147.581 150.242 147.716 150.33C148.003 150.506 148.146 150.764 148.146 151.104C148.146 151.367 148.053 151.584 147.865 151.754C147.684 151.918 147.376 152 146.942 152H144.895C144.461 152 144.15 151.918 143.963 151.754C143.781 151.584 143.69 151.364 143.69 151.095C143.69 150.767 143.831 150.512 144.112 150.33C144.253 150.242 144.555 150.198 145.018 150.198V145.821C144.637 145.821 144.355 145.736 144.174 145.566C143.992 145.396 143.901 145.18 143.901 144.916C143.901 144.652 143.992 144.438 144.174 144.274C144.361 144.104 144.672 144.02 145.105 144.02H146.819ZM163.281 144.02V150.198C163.662 150.198 163.943 150.283 164.125 150.453C164.307 150.623 164.397 150.84 164.397 151.104C164.397 151.367 164.304 151.584 164.116 151.754C163.935 151.918 163.627 152 163.193 152H161.479V151.587C160.964 151.821 160.472 151.997 160.003 152.114C159.534 152.231 159.089 152.29 158.667 152.29C158.075 152.29 157.562 152.167 157.129 151.921C156.695 151.669 156.353 151.323 156.101 150.884C155.919 150.567 155.828 150.172 155.828 149.697V145.821H155.521C155.087 145.821 154.776 145.739 154.589 145.575C154.407 145.405 154.316 145.186 154.316 144.916C154.316 144.652 154.407 144.438 154.589 144.274C154.776 144.104 155.087 144.02 155.521 144.02H157.63V149.381C157.63 149.762 157.721 150.043 157.902 150.225C158.09 150.4 158.374 150.488 158.755 150.488C159.118 150.488 159.508 150.418 159.924 150.277C160.346 150.131 160.864 149.87 161.479 149.495V145.821H160.829C160.396 145.821 160.085 145.739 159.897 145.575C159.716 145.405 159.625 145.186 159.625 144.916C159.625 144.652 159.716 144.438 159.897 144.274C160.085 144.104 160.396 144.02 160.829 144.02H163.281ZM167.482 144.02V144.529C167.775 144.242 168.039 144.046 168.273 143.94C168.514 143.829 168.789 143.773 169.1 143.773C169.363 143.773 169.624 143.838 169.882 143.967C170.14 144.096 170.392 144.289 170.638 144.547C170.948 144.289 171.262 144.099 171.578 143.976C171.9 143.847 172.229 143.782 172.562 143.782C173.23 143.782 173.772 143.961 174.188 144.318C174.739 144.787 175.015 145.402 175.015 146.164V150.198C175.39 150.198 175.668 150.283 175.85 150.453C176.031 150.623 176.122 150.84 176.122 151.104C176.122 151.367 176.031 151.584 175.85 151.754C175.668 151.918 175.36 152 174.927 152H173.213V146.313C173.213 146.038 173.163 145.848 173.063 145.742C172.964 145.637 172.812 145.584 172.606 145.584C172.407 145.584 172.223 145.637 172.053 145.742C171.836 145.889 171.572 146.164 171.262 146.568V150.198C171.637 150.198 171.915 150.283 172.097 150.453C172.278 150.623 172.369 150.84 172.369 151.104C172.369 151.367 172.278 151.584 172.097 151.754C171.915 151.918 171.607 152 171.174 152H169.46V146.313C169.46 146.044 169.407 145.856 169.302 145.751C169.202 145.64 169.05 145.584 168.845 145.584C168.634 145.584 168.426 145.651 168.221 145.786C168.016 145.915 167.77 146.176 167.482 146.568V150.198C167.857 150.198 168.136 150.283 168.317 150.453C168.505 150.623 168.599 150.84 168.599 151.104C168.599 151.367 168.505 151.584 168.317 151.754C168.136 151.918 167.828 152 167.395 152H165.769C165.335 152 165.027 151.918 164.846 151.754C164.658 151.584 164.564 151.364 164.564 151.095C164.564 150.831 164.655 150.617 164.837 150.453C165.019 150.283 165.3 150.198 165.681 150.198V145.821C165.3 145.821 165.019 145.736 164.837 145.566C164.655 145.396 164.564 145.18 164.564 144.916C164.564 144.652 164.658 144.438 164.846 144.274C165.027 144.104 165.335 144.02 165.769 144.02H167.482ZM191.898 149.812L193.841 145.821C193.36 145.821 193.053 145.78 192.918 145.698C192.625 145.517 192.479 145.256 192.479 144.916C192.479 144.652 192.569 144.438 192.751 144.274C192.938 144.104 193.249 144.02 193.683 144.02H196.152C196.586 144.02 196.894 144.104 197.075 144.274C197.263 144.438 197.356 144.655 197.356 144.925C197.356 145.188 197.263 145.405 197.075 145.575C196.894 145.739 196.586 145.821 196.152 145.821H195.854L192.839 152H190.958L187.943 145.821H187.688C187.255 145.821 186.944 145.739 186.757 145.575C186.575 145.405 186.484 145.186 186.484 144.916C186.484 144.652 186.575 144.438 186.757 144.274C186.944 144.104 187.255 144.02 187.688 144.02H190.105C190.533 144.02 190.838 144.104 191.02 144.274C191.207 144.438 191.301 144.655 191.301 144.925C191.301 145.259 191.16 145.514 190.879 145.689C190.738 145.777 190.425 145.821 189.938 145.821L191.898 149.812ZM205.267 145.979C205.8 146.343 206.198 146.765 206.462 147.245C206.726 147.72 206.857 148.253 206.857 148.845C206.857 149.483 206.682 150.075 206.33 150.62C205.984 151.159 205.48 151.569 204.818 151.851C204.156 152.126 203.289 152.264 202.217 152.264C200.822 152.264 199.773 152.047 199.07 151.613C198.678 151.367 198.481 151.074 198.481 150.734C198.481 150.477 198.566 150.26 198.736 150.084C198.912 149.902 199.123 149.812 199.369 149.812C199.539 149.812 199.715 149.87 199.896 149.987C200.154 150.163 200.397 150.28 200.626 150.339C200.978 150.421 201.461 150.462 202.076 150.462C203.125 150.462 203.884 150.327 204.353 150.058C204.821 149.782 205.056 149.396 205.056 148.897C205.056 148.528 204.918 148.174 204.643 147.834C204.373 147.488 204.01 147.222 203.553 147.034C203.289 146.929 202.844 146.855 202.217 146.814C201.918 146.797 201.687 146.706 201.522 146.542C201.364 146.372 201.285 146.164 201.285 145.918C201.285 145.66 201.373 145.443 201.549 145.268C201.725 145.092 201.947 145.004 202.217 145.004C202.814 145.004 203.134 145.001 203.175 144.995C203.409 144.972 203.644 144.896 203.878 144.767C204.112 144.638 204.3 144.462 204.44 144.239C204.587 144.011 204.66 143.776 204.66 143.536C204.66 143.155 204.49 142.827 204.15 142.552C203.816 142.271 203.312 142.13 202.639 142.13C201.771 142.13 201.109 142.382 200.652 142.886C200.518 143.032 200.409 143.126 200.327 143.167C200.204 143.231 200.066 143.264 199.914 143.264C199.668 143.264 199.457 143.176 199.281 143C199.105 142.824 199.018 142.607 199.018 142.35C199.018 141.945 199.287 141.553 199.826 141.172C200.611 140.615 201.593 140.337 202.771 140.337C203.884 140.337 204.777 140.653 205.451 141.286C206.125 141.919 206.462 142.681 206.462 143.571C206.462 144.034 206.362 144.468 206.163 144.872C205.964 145.271 205.665 145.64 205.267 145.979ZM214.882 151.095C214.882 151.435 214.762 151.719 214.521 151.947C214.281 152.176 213.95 152.29 213.528 152.29C213.106 152.29 212.775 152.176 212.535 151.947C212.295 151.719 212.175 151.435 212.175 151.095C212.175 150.755 212.295 150.471 212.535 150.242C212.775 150.014 213.106 149.899 213.528 149.899C213.95 149.899 214.281 150.014 214.521 150.242C214.762 150.471 214.882 150.755 214.882 151.095ZM226.87 146.243C227.333 146.601 227.679 147.008 227.907 147.465C228.142 147.916 228.259 148.414 228.259 148.959C228.259 149.562 228.109 150.119 227.811 150.629C227.518 151.133 227.055 151.531 226.422 151.824C225.789 152.117 225.086 152.264 224.312 152.264C223.539 152.264 222.842 152.117 222.221 151.824C221.6 151.531 221.14 151.13 220.841 150.62C220.548 150.11 220.401 149.557 220.401 148.959C220.401 148.414 220.516 147.916 220.744 147.465C220.979 147.008 221.327 146.601 221.79 146.243C221.386 145.868 221.081 145.47 220.876 145.048C220.671 144.626 220.568 144.181 220.568 143.712C220.568 142.792 220.92 142.001 221.623 141.339C222.326 140.671 223.229 140.337 224.33 140.337C225.432 140.337 226.334 140.671 227.037 141.339C227.74 142.001 228.092 142.792 228.092 143.712C228.092 144.187 227.989 144.635 227.784 145.057C227.585 145.479 227.28 145.874 226.87 146.243ZM226.246 143.747C226.246 143.302 226.07 142.924 225.719 142.613C225.373 142.297 224.904 142.139 224.312 142.139C223.715 142.139 223.24 142.297 222.889 142.613C222.543 142.924 222.37 143.302 222.37 143.747C222.37 144.198 222.543 144.582 222.889 144.898C223.24 145.209 223.715 145.364 224.312 145.364C224.904 145.364 225.373 145.209 225.719 144.898C226.07 144.582 226.246 144.198 226.246 143.747ZM226.457 149.047C226.457 148.572 226.252 148.145 225.842 147.764C225.438 147.377 224.934 147.184 224.33 147.184C223.727 147.184 223.22 147.377 222.81 147.764C222.405 148.145 222.203 148.578 222.203 149.064C222.203 149.439 222.379 149.768 222.73 150.049C223.082 150.324 223.615 150.462 224.33 150.462C225.051 150.462 225.584 150.324 225.93 150.049C226.281 149.768 226.457 149.434 226.457 149.047Z" fill="white"/>
<path d="M85.0186 176.471V175.539C85.0186 175.357 85.0508 175.229 85.1152 175.152C85.1855 175.076 85.2764 175.038 85.3877 175.038C85.499 175.038 85.5869 175.076 85.6514 175.152C85.7217 175.229 85.7568 175.357 85.7568 175.539V176.471C86.1553 176.506 86.4834 176.57 86.7412 176.664C86.999 176.752 87.3037 176.913 87.6553 177.147C87.6611 177.001 87.6992 176.893 87.7695 176.822C87.8398 176.752 87.9248 176.717 88.0244 176.717C88.1357 176.717 88.2266 176.755 88.2969 176.831C88.3672 176.907 88.4023 177.033 88.4023 177.209V178.308C88.4023 178.483 88.3672 178.609 88.2969 178.686C88.2266 178.762 88.1357 178.8 88.0244 178.8C87.9307 178.8 87.8516 178.771 87.7871 178.712C87.7227 178.647 87.6787 178.542 87.6553 178.396C87.6201 178.12 87.4385 177.871 87.1104 177.648C86.6299 177.332 86.0645 177.174 85.4141 177.174C84.752 177.174 84.2041 177.367 83.7705 177.754C83.3428 178.141 83.1289 178.577 83.1289 179.063C83.1289 179.55 83.3193 179.922 83.7002 180.18C83.9873 180.379 84.5908 180.566 85.5107 180.742C86.4365 180.912 87.0635 181.073 87.3916 181.226C87.8604 181.431 88.209 181.709 88.4375 182.061C88.6719 182.412 88.7891 182.837 88.7891 183.335C88.7891 184.003 88.5283 184.592 88.0068 185.102C87.4854 185.605 86.7354 185.907 85.7568 186.007V188.178C85.7568 188.359 85.7217 188.488 85.6514 188.564C85.5869 188.641 85.499 188.679 85.3877 188.679C85.2764 188.679 85.1855 188.641 85.1152 188.564C85.0508 188.488 85.0186 188.359 85.0186 188.178V186.007C84.1162 185.948 83.3574 185.655 82.7422 185.128C82.7422 185.386 82.7305 185.544 82.707 185.603C82.6895 185.655 82.6484 185.705 82.584 185.752C82.5195 185.793 82.4492 185.813 82.373 185.813C82.2676 185.813 82.1797 185.775 82.1094 185.699C82.0391 185.623 82.0039 185.497 82.0039 185.321V183.88C82.0039 183.704 82.0361 183.578 82.1006 183.502C82.1709 183.42 82.2617 183.379 82.373 183.379C82.4785 183.379 82.5693 183.417 82.6455 183.493C82.6982 183.546 82.7305 183.663 82.7422 183.845C82.7773 184.155 83.0264 184.475 83.4893 184.803C83.958 185.125 84.5908 185.286 85.3877 185.286C86.2139 185.286 86.8643 185.09 87.3389 184.697C87.8135 184.305 88.0508 183.848 88.0508 183.326C88.0508 182.98 87.9629 182.685 87.7871 182.438C87.6113 182.192 87.3359 181.99 86.9609 181.832C86.7148 181.732 86.1992 181.609 85.4141 181.463C84.2773 181.24 83.4893 180.953 83.0498 180.602C82.6045 180.25 82.3818 179.734 82.3818 179.055C82.3818 178.422 82.6221 177.856 83.1025 177.358C83.583 176.86 84.2217 176.564 85.0186 176.471Z" fill="#6597E9"/>
<path d="M104.518 179.389V181.252C105.479 180.385 106.196 179.828 106.671 179.582C107.151 179.33 107.594 179.204 107.998 179.204C108.438 179.204 108.845 179.354 109.22 179.652C109.601 179.945 109.791 180.168 109.791 180.32C109.791 180.432 109.753 180.525 109.677 180.602C109.606 180.672 109.516 180.707 109.404 180.707C109.346 180.707 109.296 180.698 109.255 180.681C109.214 180.657 109.138 180.59 109.026 180.479C108.821 180.273 108.643 180.133 108.49 180.057C108.338 179.98 108.188 179.942 108.042 179.942C107.72 179.942 107.33 180.071 106.873 180.329C106.422 180.587 105.637 181.217 104.518 182.219V186.262H107.787C107.969 186.262 108.098 186.297 108.174 186.367C108.25 186.432 108.288 186.52 108.288 186.631C108.288 186.736 108.25 186.824 108.174 186.895C108.098 186.965 107.969 187 107.787 187H101.995C101.819 187 101.693 186.968 101.617 186.903C101.541 186.833 101.503 186.745 101.503 186.64C101.503 186.54 101.538 186.458 101.608 186.394C101.685 186.323 101.813 186.288 101.995 186.288H103.779V180.136H102.417C102.241 180.136 102.115 180.101 102.039 180.03C101.963 179.96 101.925 179.869 101.925 179.758C101.925 179.652 101.96 179.564 102.03 179.494C102.106 179.424 102.235 179.389 102.417 179.389H104.518ZM120.206 183.37H112.683C112.812 184.325 113.21 185.096 113.878 185.682C114.552 186.262 115.384 186.552 116.374 186.552C116.925 186.552 117.502 186.461 118.105 186.279C118.709 186.098 119.201 185.857 119.582 185.559C119.693 185.471 119.79 185.427 119.872 185.427C119.966 185.427 120.048 185.465 120.118 185.541C120.188 185.611 120.224 185.696 120.224 185.796C120.224 185.896 120.177 185.992 120.083 186.086C119.802 186.379 119.301 186.654 118.58 186.912C117.865 187.164 117.13 187.29 116.374 187.29C115.108 187.29 114.051 186.877 113.201 186.051C112.357 185.219 111.936 184.214 111.936 183.036C111.936 181.964 112.331 181.044 113.122 180.276C113.919 179.509 114.903 179.125 116.075 179.125C117.282 179.125 118.275 179.521 119.055 180.312C119.834 181.097 120.218 182.116 120.206 183.37ZM119.459 182.623C119.312 181.809 118.926 181.146 118.299 180.637C117.678 180.127 116.937 179.872 116.075 179.872C115.214 179.872 114.473 180.124 113.852 180.628C113.23 181.132 112.844 181.797 112.691 182.623H119.459ZM129.145 187V185.937C128.072 186.839 126.927 187.29 125.708 187.29C124.823 187.29 124.132 187.067 123.634 186.622C123.136 186.171 122.887 185.62 122.887 184.97C122.887 184.255 123.215 183.631 123.871 183.098C124.527 182.564 125.485 182.298 126.745 182.298C127.085 182.298 127.454 182.321 127.853 182.368C128.251 182.409 128.682 182.477 129.145 182.57V181.375C129.145 180.971 128.957 180.619 128.582 180.32C128.207 180.021 127.645 179.872 126.895 179.872C126.32 179.872 125.515 180.039 124.478 180.373C124.29 180.432 124.17 180.461 124.117 180.461C124.023 180.461 123.941 180.426 123.871 180.355C123.807 180.285 123.774 180.197 123.774 180.092C123.774 179.992 123.804 179.913 123.862 179.854C123.944 179.767 124.275 179.646 124.855 179.494C125.77 179.248 126.461 179.125 126.93 179.125C127.861 179.125 128.588 179.356 129.109 179.819C129.631 180.276 129.892 180.795 129.892 181.375V186.262H130.876C131.058 186.262 131.187 186.297 131.263 186.367C131.339 186.432 131.377 186.52 131.377 186.631C131.377 186.736 131.339 186.824 131.263 186.895C131.187 186.965 131.058 187 130.876 187H129.145ZM129.145 183.326C128.799 183.227 128.433 183.153 128.046 183.106C127.659 183.06 127.252 183.036 126.824 183.036C125.752 183.036 124.914 183.268 124.311 183.73C123.854 184.076 123.625 184.489 123.625 184.97C123.625 185.415 123.798 185.79 124.144 186.095C124.495 186.399 125.005 186.552 125.673 186.552C126.312 186.552 126.903 186.426 127.448 186.174C127.999 185.916 128.564 185.509 129.145 184.952V183.326ZM141.449 175.97V186.262H142.434C142.615 186.262 142.744 186.297 142.82 186.367C142.896 186.432 142.935 186.52 142.935 186.631C142.935 186.736 142.896 186.824 142.82 186.895C142.744 186.965 142.615 187 142.434 187H140.702V185.532C139.847 186.704 138.76 187.29 137.441 187.29C136.773 187.29 136.132 187.114 135.517 186.763C134.907 186.405 134.424 185.898 134.066 185.242C133.715 184.586 133.539 183.909 133.539 183.212C133.539 182.509 133.715 181.832 134.066 181.182C134.424 180.525 134.907 180.019 135.517 179.661C136.132 179.304 136.776 179.125 137.45 179.125C138.739 179.125 139.823 179.711 140.702 180.883V176.717H139.718C139.536 176.717 139.407 176.682 139.331 176.611C139.255 176.541 139.217 176.45 139.217 176.339C139.217 176.233 139.255 176.146 139.331 176.075C139.407 176.005 139.536 175.97 139.718 175.97H141.449ZM140.702 183.212C140.702 182.274 140.386 181.483 139.753 180.839C139.12 180.194 138.367 179.872 137.494 179.872C136.615 179.872 135.859 180.194 135.227 180.839C134.594 181.483 134.277 182.274 134.277 183.212C134.277 184.144 134.594 184.935 135.227 185.585C135.859 186.229 136.615 186.552 137.494 186.552C138.367 186.552 139.12 186.229 139.753 185.585C140.386 184.935 140.702 184.144 140.702 183.212ZM148.691 187L145.264 180.136H145.044C144.868 180.136 144.742 180.101 144.666 180.03C144.59 179.96 144.552 179.872 144.552 179.767C144.552 179.69 144.569 179.623 144.604 179.564C144.646 179.5 144.695 179.456 144.754 179.433C144.818 179.403 144.915 179.389 145.044 179.389H147.065C147.241 179.389 147.367 179.424 147.443 179.494C147.52 179.564 147.558 179.655 147.558 179.767C147.558 179.872 147.52 179.96 147.443 180.03C147.367 180.101 147.241 180.136 147.065 180.136H146.072L149.087 186.191L152.058 180.136H151.064C150.889 180.136 150.763 180.101 150.687 180.03C150.61 179.96 150.572 179.869 150.572 179.758C150.572 179.652 150.61 179.564 150.687 179.494C150.763 179.424 150.889 179.389 151.064 179.389H153.077C153.259 179.389 153.388 179.424 153.464 179.494C153.54 179.564 153.578 179.655 153.578 179.767C153.578 179.843 153.555 179.913 153.508 179.978C153.461 180.042 153.408 180.086 153.35 180.109C153.291 180.127 153.127 180.136 152.857 180.136L148.182 189.654H149.333C149.509 189.654 149.635 189.687 149.711 189.751C149.787 189.821 149.825 189.912 149.825 190.023C149.825 190.129 149.787 190.217 149.711 190.287C149.635 190.357 149.509 190.393 149.333 190.393H145.079C144.903 190.393 144.777 190.357 144.701 190.287C144.625 190.223 144.587 190.135 144.587 190.023C144.587 189.912 144.625 189.821 144.701 189.751C144.777 189.687 144.903 189.654 145.079 189.654H147.391L148.691 187ZM159.3 184.882H159.616C159.944 184.882 160.226 184.999 160.46 185.233C160.694 185.462 160.812 185.74 160.812 186.068C160.812 186.408 160.691 186.692 160.451 186.921C160.217 187.149 159.938 187.264 159.616 187.264H159.3C158.972 187.264 158.69 187.149 158.456 186.921C158.222 186.687 158.104 186.405 158.104 186.077C158.104 185.737 158.222 185.453 158.456 185.225C158.696 184.996 158.978 184.882 159.3 184.882Z" fill="#CAE0FF"/>
<path d="M508.213 226.106V225.929C508.213 225.802 508.236 225.711 508.283 225.656C508.333 225.601 508.399 225.573 508.479 225.573C508.56 225.573 508.623 225.601 508.67 225.656C508.721 225.711 508.746 225.802 508.746 225.929V227.287C508.746 227.414 508.721 227.505 508.67 227.56C508.623 227.615 508.56 227.643 508.479 227.643C508.403 227.643 508.34 227.617 508.289 227.566C508.243 227.516 508.217 227.433 508.213 227.319C508.192 226.963 508.008 226.644 507.661 226.36C507.318 226.077 506.867 225.935 506.309 225.935C505.72 225.935 505.253 226.087 504.906 226.392C504.559 226.693 504.385 227.048 504.385 227.458C504.385 227.67 504.434 227.863 504.531 228.036C504.629 228.21 504.758 228.351 504.918 228.461C505.079 228.567 505.261 228.654 505.464 228.722C505.667 228.785 505.985 228.853 506.417 228.925C507.14 229.043 507.639 229.164 507.915 229.287C508.283 229.452 508.56 229.68 508.746 229.972C508.937 230.264 509.032 230.609 509.032 231.007C509.032 231.616 508.788 232.137 508.302 232.568C507.815 232.996 507.159 233.209 506.334 233.209C505.407 233.209 504.667 232.92 504.112 232.34V232.645C504.112 232.771 504.087 232.862 504.036 232.917C503.99 232.972 503.926 233 503.846 233C503.77 233 503.706 232.972 503.655 232.917C503.604 232.862 503.579 232.771 503.579 232.645V231.172C503.579 231.041 503.602 230.948 503.649 230.893C503.7 230.838 503.765 230.81 503.846 230.81C503.922 230.81 503.983 230.835 504.03 230.886C504.081 230.937 504.108 231.02 504.112 231.134C504.133 231.523 504.341 231.879 504.734 232.2C505.132 232.518 505.665 232.676 506.334 232.676C507.003 232.676 507.529 232.509 507.915 232.175C508.304 231.84 508.499 231.445 508.499 230.988C508.499 230.708 508.424 230.461 508.276 230.245C508.128 230.025 507.908 229.852 507.616 229.725C507.413 229.636 506.99 229.536 506.347 229.426C505.462 229.278 504.825 229.052 504.436 228.747C504.047 228.442 503.852 228.009 503.852 227.446C503.852 226.887 504.074 226.407 504.519 226.005C504.967 225.603 505.557 225.402 506.29 225.402C507.034 225.402 507.675 225.637 508.213 226.106ZM512.358 225.034V228.315C512.696 227.947 513.02 227.689 513.329 227.541C513.642 227.389 513.991 227.312 514.376 227.312C514.791 227.312 515.142 227.387 515.43 227.535C515.722 227.679 515.965 227.903 516.16 228.208C516.355 228.508 516.452 228.825 516.452 229.16V232.467H517.049C517.18 232.467 517.271 232.492 517.322 232.543C517.377 232.59 517.404 232.653 517.404 232.733C517.404 232.81 517.377 232.873 517.322 232.924C517.271 232.975 517.18 233 517.049 233H515.316C515.185 233 515.092 232.975 515.037 232.924C514.982 232.873 514.954 232.81 514.954 232.733C514.954 232.653 514.982 232.59 515.037 232.543C515.092 232.492 515.185 232.467 515.316 232.467H515.913V229.198C515.913 228.813 515.773 228.491 515.494 228.233C515.219 227.975 514.833 227.846 514.338 227.846C513.949 227.846 513.617 227.941 513.342 228.131C513.143 228.267 512.815 228.586 512.358 229.09V232.467H512.961C513.088 232.467 513.179 232.492 513.234 232.543C513.289 232.59 513.316 232.653 513.316 232.733C513.316 232.81 513.289 232.873 513.234 232.924C513.179 232.975 513.088 233 512.961 233H511.222C511.095 233 511.004 232.975 510.949 232.924C510.894 232.873 510.866 232.81 510.866 232.733C510.866 232.653 510.894 232.59 510.949 232.543C511.004 232.492 511.095 232.467 511.222 232.467H511.825V225.573H511.107C510.98 225.573 510.889 225.548 510.834 225.497C510.779 225.446 510.752 225.381 510.752 225.3C510.752 225.224 510.779 225.161 510.834 225.11C510.889 225.059 510.98 225.034 511.107 225.034H512.358ZM523.454 233V232.232C522.679 232.884 521.852 233.209 520.972 233.209C520.333 233.209 519.833 233.049 519.474 232.727C519.114 232.401 518.934 232.003 518.934 231.534C518.934 231.017 519.171 230.567 519.645 230.182C520.119 229.797 520.811 229.604 521.721 229.604C521.966 229.604 522.233 229.621 522.521 229.655C522.808 229.684 523.119 229.733 523.454 229.801V228.938C523.454 228.646 523.318 228.392 523.047 228.176C522.777 227.96 522.37 227.852 521.829 227.852C521.414 227.852 520.832 227.973 520.083 228.214C519.948 228.256 519.861 228.277 519.823 228.277C519.755 228.277 519.696 228.252 519.645 228.201C519.598 228.15 519.575 228.087 519.575 228.011C519.575 227.939 519.596 227.882 519.639 227.839C519.698 227.776 519.937 227.689 520.356 227.579C521.016 227.401 521.515 227.312 521.854 227.312C522.527 227.312 523.052 227.48 523.428 227.814C523.805 228.144 523.993 228.519 523.993 228.938V232.467H524.704C524.835 232.467 524.928 232.492 524.983 232.543C525.038 232.59 525.066 232.653 525.066 232.733C525.066 232.81 525.038 232.873 524.983 232.924C524.928 232.975 524.835 233 524.704 233H523.454ZM523.454 230.347C523.204 230.275 522.939 230.222 522.66 230.188C522.381 230.154 522.087 230.137 521.778 230.137C521.003 230.137 520.398 230.304 519.962 230.639C519.632 230.888 519.467 231.187 519.467 231.534C519.467 231.855 519.592 232.126 519.842 232.346C520.096 232.566 520.464 232.676 520.946 232.676C521.408 232.676 521.835 232.585 522.229 232.403C522.626 232.217 523.035 231.923 523.454 231.521V230.347ZM529.09 227.503V228.849C529.784 228.222 530.303 227.82 530.646 227.643C530.993 227.461 531.312 227.37 531.604 227.37C531.921 227.37 532.215 227.478 532.486 227.693C532.761 227.905 532.899 228.066 532.899 228.176C532.899 228.256 532.871 228.324 532.816 228.379C532.766 228.43 532.7 228.455 532.62 228.455C532.577 228.455 532.541 228.449 532.512 228.436C532.482 228.419 532.427 228.37 532.347 228.29C532.199 228.142 532.069 228.04 531.959 227.985C531.849 227.93 531.742 227.903 531.636 227.903C531.403 227.903 531.122 227.996 530.792 228.182C530.466 228.368 529.899 228.823 529.09 229.547V232.467H531.452C531.583 232.467 531.676 232.492 531.731 232.543C531.786 232.59 531.813 232.653 531.813 232.733C531.813 232.81 531.786 232.873 531.731 232.924C531.676 232.975 531.583 233 531.452 233H527.269C527.142 233 527.051 232.977 526.996 232.93C526.941 232.879 526.913 232.816 526.913 232.74C526.913 232.668 526.938 232.609 526.989 232.562C527.044 232.511 527.137 232.486 527.269 232.486H528.557V228.042H527.573C527.446 228.042 527.355 228.017 527.3 227.966C527.245 227.916 527.218 227.85 527.218 227.77C527.218 227.693 527.243 227.63 527.294 227.579C527.349 227.528 527.442 227.503 527.573 227.503H529.09ZM540.421 230.378H534.987C535.08 231.068 535.368 231.625 535.851 232.048C536.337 232.467 536.938 232.676 537.653 232.676C538.051 232.676 538.468 232.611 538.904 232.479C539.34 232.348 539.695 232.175 539.97 231.959C540.051 231.896 540.12 231.864 540.18 231.864C540.247 231.864 540.307 231.891 540.357 231.946C540.408 231.997 540.434 232.058 540.434 232.13C540.434 232.202 540.4 232.272 540.332 232.34C540.129 232.551 539.767 232.75 539.247 232.937C538.73 233.118 538.199 233.209 537.653 233.209C536.739 233.209 535.975 232.911 535.362 232.314C534.752 231.714 534.448 230.988 534.448 230.137C534.448 229.363 534.733 228.698 535.305 228.144C535.88 227.59 536.591 227.312 537.438 227.312C538.309 227.312 539.027 227.598 539.589 228.169C540.152 228.736 540.429 229.473 540.421 230.378ZM539.881 229.839C539.776 229.251 539.496 228.772 539.043 228.404C538.595 228.036 538.06 227.852 537.438 227.852C536.815 227.852 536.28 228.034 535.832 228.398C535.383 228.762 535.104 229.242 534.994 229.839H539.881ZM554.684 233V232.232C553.91 232.884 553.082 233.209 552.202 233.209C551.563 233.209 551.064 233.049 550.704 232.727C550.344 232.401 550.165 232.003 550.165 231.534C550.165 231.017 550.402 230.567 550.875 230.182C551.349 229.797 552.041 229.604 552.951 229.604C553.197 229.604 553.463 229.621 553.751 229.655C554.039 229.684 554.35 229.733 554.684 229.801V228.938C554.684 228.646 554.549 228.392 554.278 228.176C554.007 227.96 553.601 227.852 553.059 227.852C552.644 227.852 552.062 227.973 551.313 228.214C551.178 228.256 551.091 228.277 551.053 228.277C550.986 228.277 550.926 228.252 550.875 228.201C550.829 228.15 550.806 228.087 550.806 228.011C550.806 227.939 550.827 227.882 550.869 227.839C550.928 227.776 551.167 227.689 551.586 227.579C552.247 227.401 552.746 227.312 553.084 227.312C553.757 227.312 554.282 227.48 554.659 227.814C555.035 228.144 555.224 228.519 555.224 228.938V232.467H555.935C556.066 232.467 556.159 232.492 556.214 232.543C556.269 232.59 556.296 232.653 556.296 232.733C556.296 232.81 556.269 232.873 556.214 232.924C556.159 232.975 556.066 233 555.935 233H554.684ZM554.684 230.347C554.434 230.275 554.17 230.222 553.891 230.188C553.611 230.154 553.317 230.137 553.008 230.137C552.234 230.137 551.629 230.304 551.193 230.639C550.863 230.888 550.698 231.187 550.698 231.534C550.698 231.855 550.823 232.126 551.072 232.346C551.326 232.566 551.694 232.676 552.177 232.676C552.638 232.676 553.065 232.585 553.459 232.403C553.857 232.217 554.265 231.923 554.684 231.521V230.347ZM559.235 227.503V228.309C559.608 227.932 559.944 227.672 560.245 227.528C560.545 227.384 560.884 227.312 561.26 227.312C561.667 227.312 562.037 227.399 562.371 227.573C562.608 227.7 562.822 227.911 563.012 228.208C563.207 228.5 563.304 228.8 563.304 229.109V232.467H563.755C563.882 232.467 563.973 232.492 564.028 232.543C564.083 232.59 564.11 232.653 564.11 232.733C564.11 232.81 564.083 232.873 564.028 232.924C563.973 232.975 563.882 233 563.755 233H562.327C562.195 233 562.102 232.975 562.047 232.924C561.992 232.873 561.965 232.81 561.965 232.733C561.965 232.653 561.992 232.59 562.047 232.543C562.102 232.492 562.195 232.467 562.327 232.467H562.771V229.198C562.771 228.821 562.633 228.504 562.358 228.246C562.083 227.983 561.715 227.852 561.254 227.852C560.903 227.852 560.598 227.924 560.34 228.068C560.082 228.208 559.714 228.559 559.235 229.122V232.467H559.838C559.965 232.467 560.056 232.492 560.111 232.543C560.166 232.59 560.194 232.653 560.194 232.733C560.194 232.81 560.166 232.873 560.111 232.924C560.056 232.975 559.965 233 559.838 233H558.099C557.972 233 557.881 232.975 557.826 232.924C557.771 232.873 557.744 232.81 557.744 232.733C557.744 232.653 557.771 232.59 557.826 232.543C557.881 232.492 557.972 232.467 558.099 232.467H558.702V228.042H558.251C558.125 228.042 558.034 228.017 557.979 227.966C557.924 227.916 557.896 227.85 557.896 227.77C557.896 227.693 557.924 227.63 557.979 227.579C558.034 227.528 558.125 227.503 558.251 227.503H559.235ZM568.801 233L566.326 228.042H566.167C566.04 228.042 565.949 228.017 565.894 227.966C565.839 227.916 565.812 227.852 565.812 227.776C565.812 227.721 565.824 227.672 565.85 227.63C565.879 227.583 565.915 227.552 565.958 227.535C566.004 227.514 566.074 227.503 566.167 227.503H567.627C567.754 227.503 567.845 227.528 567.9 227.579C567.955 227.63 567.982 227.695 567.982 227.776C567.982 227.852 567.955 227.916 567.9 227.966C567.845 228.017 567.754 228.042 567.627 228.042H566.91L569.087 232.416L571.232 228.042H570.515C570.388 228.042 570.297 228.017 570.242 227.966C570.187 227.916 570.16 227.85 570.16 227.77C570.16 227.693 570.187 227.63 570.242 227.579C570.297 227.528 570.388 227.503 570.515 227.503H571.969C572.1 227.503 572.193 227.528 572.248 227.579C572.303 227.63 572.331 227.695 572.331 227.776C572.331 227.831 572.314 227.882 572.28 227.928C572.246 227.975 572.208 228.007 572.166 228.023C572.123 228.036 572.005 228.042 571.81 228.042L568.433 234.917H569.265C569.392 234.917 569.483 234.94 569.538 234.987C569.593 235.038 569.62 235.103 569.62 235.184C569.62 235.26 569.593 235.323 569.538 235.374C569.483 235.425 569.392 235.45 569.265 235.45H566.192C566.065 235.45 565.974 235.425 565.919 235.374C565.864 235.327 565.837 235.264 565.837 235.184C565.837 235.103 565.864 235.038 565.919 234.987C565.974 234.94 566.065 234.917 566.192 234.917H567.862L568.801 233ZM575.479 227.503H578.374C578.5 227.503 578.591 227.528 578.646 227.579C578.701 227.63 578.729 227.695 578.729 227.776C578.729 227.852 578.701 227.916 578.646 227.966C578.591 228.017 578.5 228.042 578.374 228.042H575.479V231.591C575.479 231.9 575.602 232.158 575.847 232.365C576.097 232.573 576.461 232.676 576.939 232.676C577.299 232.676 577.688 232.623 578.107 232.518C578.526 232.408 578.852 232.285 579.084 232.149C579.169 232.094 579.239 232.067 579.294 232.067C579.362 232.067 579.421 232.094 579.472 232.149C579.522 232.2 579.548 232.262 579.548 232.333C579.548 232.397 579.52 232.456 579.465 232.511C579.33 232.651 579 232.803 578.475 232.968C577.955 233.129 577.455 233.209 576.977 233.209C576.355 233.209 575.86 233.063 575.492 232.771C575.124 232.479 574.939 232.086 574.939 231.591V228.042H573.956C573.829 228.042 573.738 228.017 573.683 227.966C573.628 227.916 573.6 227.85 573.6 227.77C573.6 227.693 573.628 227.63 573.683 227.579C573.738 227.528 573.829 227.503 573.956 227.503H574.939V225.929C574.939 225.802 574.965 225.711 575.016 225.656C575.066 225.601 575.13 225.573 575.206 225.573C575.286 225.573 575.352 225.601 575.403 225.656C575.454 225.711 575.479 225.802 575.479 225.929V227.503ZM582.626 225.034V228.315C582.965 227.947 583.289 227.689 583.598 227.541C583.911 227.389 584.26 227.312 584.645 227.312C585.06 227.312 585.411 227.387 585.699 227.535C585.991 227.679 586.234 227.903 586.429 228.208C586.623 228.508 586.721 228.825 586.721 229.16V232.467H587.317C587.449 232.467 587.54 232.492 587.59 232.543C587.645 232.59 587.673 232.653 587.673 232.733C587.673 232.81 587.645 232.873 587.59 232.924C587.54 232.975 587.449 233 587.317 233H585.584C585.453 233 585.36 232.975 585.305 232.924C585.25 232.873 585.223 232.81 585.223 232.733C585.223 232.653 585.25 232.59 585.305 232.543C585.36 232.492 585.453 232.467 585.584 232.467H586.181V229.198C586.181 228.813 586.042 228.491 585.762 228.233C585.487 227.975 585.102 227.846 584.607 227.846C584.218 227.846 583.885 227.941 583.61 228.131C583.411 228.267 583.083 228.586 582.626 229.09V232.467H583.229C583.356 232.467 583.447 232.492 583.502 232.543C583.557 232.59 583.585 232.653 583.585 232.733C583.585 232.81 583.557 232.873 583.502 232.924C583.447 232.975 583.356 233 583.229 233H581.49C581.363 233 581.272 232.975 581.217 232.924C581.162 232.873 581.135 232.81 581.135 232.733C581.135 232.653 581.162 232.59 581.217 232.543C581.272 232.492 581.363 232.467 581.49 232.467H582.093V225.573H581.376C581.249 225.573 581.158 225.548 581.103 225.497C581.048 225.446 581.021 225.381 581.021 225.3C581.021 225.224 581.048 225.161 581.103 225.11C581.158 225.059 581.249 225.034 581.376 225.034H582.626ZM592.453 224.767V226.145H591.666V224.767H592.453ZM592.472 227.503V232.467H594.566C594.698 232.467 594.791 232.492 594.846 232.543C594.901 232.59 594.928 232.653 594.928 232.733C594.928 232.81 594.901 232.873 594.846 232.924C594.791 232.975 594.698 233 594.566 233H589.844C589.717 233 589.626 232.975 589.571 232.924C589.516 232.873 589.488 232.81 589.488 232.733C589.488 232.653 589.516 232.59 589.571 232.543C589.626 232.492 589.717 232.467 589.844 232.467H591.938V228.042H590.383C590.256 228.042 590.163 228.017 590.104 227.966C590.049 227.916 590.021 227.852 590.021 227.776C590.021 227.695 590.049 227.63 590.104 227.579C590.159 227.528 590.252 227.503 590.383 227.503H592.472ZM598.273 227.503V228.309C598.646 227.932 598.982 227.672 599.283 227.528C599.583 227.384 599.922 227.312 600.298 227.312C600.705 227.312 601.075 227.399 601.409 227.573C601.646 227.7 601.86 227.911 602.05 228.208C602.245 228.5 602.342 228.8 602.342 229.109V232.467H602.793C602.92 232.467 603.011 232.492 603.066 232.543C603.121 232.59 603.148 232.653 603.148 232.733C603.148 232.81 603.121 232.873 603.066 232.924C603.011 232.975 602.92 233 602.793 233H601.365C601.234 233 601.14 232.975 601.085 232.924C601.03 232.873 601.003 232.81 601.003 232.733C601.003 232.653 601.03 232.59 601.085 232.543C601.14 232.492 601.234 232.467 601.365 232.467H601.809V229.198C601.809 228.821 601.672 228.504 601.396 228.246C601.121 227.983 600.753 227.852 600.292 227.852C599.941 227.852 599.636 227.924 599.378 228.068C599.12 228.208 598.752 228.559 598.273 229.122V232.467H598.876C599.003 232.467 599.094 232.492 599.149 232.543C599.204 232.59 599.232 232.653 599.232 232.733C599.232 232.81 599.204 232.873 599.149 232.924C599.094 232.975 599.003 233 598.876 233H597.137C597.01 233 596.919 232.975 596.864 232.924C596.809 232.873 596.782 232.81 596.782 232.733C596.782 232.653 596.809 232.59 596.864 232.543C596.919 232.492 597.01 232.467 597.137 232.467H597.74V228.042H597.29C597.163 228.042 597.072 228.017 597.017 227.966C596.962 227.916 596.934 227.85 596.934 227.77C596.934 227.693 596.962 227.63 597.017 227.579C597.072 227.528 597.163 227.503 597.29 227.503H598.273ZM609.598 228.48V227.503H610.848C610.975 227.503 611.066 227.528 611.121 227.579C611.176 227.63 611.204 227.695 611.204 227.776C611.204 227.852 611.176 227.916 611.121 227.966C611.066 228.017 610.975 228.042 610.848 228.042H610.131V233.368C610.131 233.724 610.055 234.041 609.902 234.32C609.801 234.507 609.632 234.699 609.395 234.898C609.158 235.097 608.942 235.239 608.747 235.323C608.552 235.408 608.292 235.45 607.966 235.45H606.456C606.329 235.45 606.238 235.425 606.183 235.374C606.128 235.327 606.1 235.264 606.1 235.184C606.1 235.103 606.128 235.038 606.183 234.987C606.238 234.936 606.329 234.911 606.456 234.911L607.985 234.917C608.299 234.917 608.58 234.837 608.83 234.676C609.083 234.515 609.293 234.28 609.458 233.971C609.551 233.793 609.598 233.567 609.598 233.292V231.692C609.026 232.475 608.29 232.867 607.389 232.867C606.657 232.867 606.024 232.596 605.491 232.054C604.962 231.508 604.697 230.852 604.697 230.086C604.697 229.32 604.962 228.667 605.491 228.125C606.024 227.583 606.657 227.312 607.389 227.312C608.29 227.312 609.026 227.702 609.598 228.48ZM609.598 230.086C609.598 229.46 609.382 228.931 608.95 228.5C608.523 228.068 608.011 227.852 607.414 227.852C606.817 227.852 606.305 228.07 605.878 228.506C605.451 228.938 605.237 229.464 605.237 230.086C605.237 230.713 605.451 231.244 605.878 231.68C606.305 232.111 606.817 232.327 607.414 232.327C608.011 232.327 608.523 232.111 608.95 231.68C609.382 231.244 609.598 230.713 609.598 230.086ZM614.555 231.083H616.288L614.403 234.587C614.289 234.799 614.151 234.904 613.99 234.904C613.884 234.904 613.793 234.866 613.717 234.79C613.645 234.718 613.609 234.629 613.609 234.523C613.609 234.481 613.616 234.435 613.628 234.384L614.555 231.083ZM632.76 233V232.232C631.986 232.884 631.159 233.209 630.278 233.209C629.639 233.209 629.14 233.049 628.78 232.727C628.421 232.401 628.241 232.003 628.241 231.534C628.241 231.017 628.478 230.567 628.952 230.182C629.426 229.797 630.118 229.604 631.027 229.604C631.273 229.604 631.539 229.621 631.827 229.655C632.115 229.684 632.426 229.733 632.76 229.801V228.938C632.76 228.646 632.625 228.392 632.354 228.176C632.083 227.96 631.677 227.852 631.135 227.852C630.721 227.852 630.139 227.973 629.39 228.214C629.254 228.256 629.167 228.277 629.129 228.277C629.062 228.277 629.002 228.252 628.952 228.201C628.905 228.15 628.882 228.087 628.882 228.011C628.882 227.939 628.903 227.882 628.945 227.839C629.005 227.776 629.244 227.689 629.663 227.579C630.323 227.401 630.822 227.312 631.161 227.312C631.833 227.312 632.358 227.48 632.735 227.814C633.111 228.144 633.3 228.519 633.3 228.938V232.467H634.011C634.142 232.467 634.235 232.492 634.29 232.543C634.345 232.59 634.373 232.653 634.373 232.733C634.373 232.81 634.345 232.873 634.29 232.924C634.235 232.975 634.142 233 634.011 233H632.76ZM632.76 230.347C632.511 230.275 632.246 230.222 631.967 230.188C631.688 230.154 631.393 230.137 631.084 230.137C630.31 230.137 629.705 230.304 629.269 230.639C628.939 230.888 628.774 231.187 628.774 231.534C628.774 231.855 628.899 232.126 629.148 232.346C629.402 232.566 629.771 232.676 630.253 232.676C630.714 232.676 631.142 232.585 631.535 232.403C631.933 232.217 632.341 231.923 632.76 231.521V230.347ZM637.312 227.503V228.309C637.684 227.932 638.02 227.672 638.321 227.528C638.621 227.384 638.96 227.312 639.336 227.312C639.743 227.312 640.113 227.399 640.447 227.573C640.684 227.7 640.898 227.911 641.088 228.208C641.283 228.5 641.38 228.8 641.38 229.109V232.467H641.831C641.958 232.467 642.049 232.492 642.104 232.543C642.159 232.59 642.187 232.653 642.187 232.733C642.187 232.81 642.159 232.873 642.104 232.924C642.049 232.975 641.958 233 641.831 233H640.403C640.272 233 640.179 232.975 640.124 232.924C640.069 232.873 640.041 232.81 640.041 232.733C640.041 232.653 640.069 232.59 640.124 232.543C640.179 232.492 640.272 232.467 640.403 232.467H640.847V229.198C640.847 228.821 640.71 228.504 640.435 228.246C640.16 227.983 639.791 227.852 639.33 227.852C638.979 227.852 638.674 227.924 638.416 228.068C638.158 228.208 637.79 228.559 637.312 229.122V232.467H637.915C638.042 232.467 638.132 232.492 638.188 232.543C638.243 232.59 638.27 232.653 638.27 232.733C638.27 232.81 638.243 232.873 638.188 232.924C638.132 232.975 638.042 233 637.915 233H636.175C636.048 233 635.957 232.975 635.902 232.924C635.847 232.873 635.82 232.81 635.82 232.733C635.82 232.653 635.847 232.59 635.902 232.543C635.957 232.492 636.048 232.467 636.175 232.467H636.778V228.042H636.328C636.201 228.042 636.11 228.017 636.055 227.966C636 227.916 635.972 227.85 635.972 227.77C635.972 227.693 636 227.63 636.055 227.579C636.11 227.528 636.201 227.503 636.328 227.503H637.312ZM646.877 233L644.402 228.042H644.243C644.116 228.042 644.025 228.017 643.97 227.966C643.915 227.916 643.888 227.852 643.888 227.776C643.888 227.721 643.9 227.672 643.926 227.63C643.955 227.583 643.991 227.552 644.034 227.535C644.08 227.514 644.15 227.503 644.243 227.503H645.703C645.83 227.503 645.921 227.528 645.976 227.579C646.031 227.63 646.059 227.695 646.059 227.776C646.059 227.852 646.031 227.916 645.976 227.966C645.921 228.017 645.83 228.042 645.703 228.042H644.986L647.163 232.416L649.309 228.042H648.591C648.464 228.042 648.373 228.017 648.318 227.966C648.263 227.916 648.236 227.85 648.236 227.77C648.236 227.693 648.263 227.63 648.318 227.579C648.373 227.528 648.464 227.503 648.591 227.503H650.045C650.176 227.503 650.269 227.528 650.324 227.579C650.379 227.63 650.407 227.695 650.407 227.776C650.407 227.831 650.39 227.882 650.356 227.928C650.322 227.975 650.284 228.007 650.242 228.023C650.199 228.036 650.081 228.042 649.886 228.042L646.509 234.917H647.341C647.468 234.917 647.559 234.94 647.614 234.987C647.669 235.038 647.696 235.103 647.696 235.184C647.696 235.26 647.669 235.323 647.614 235.374C647.559 235.425 647.468 235.45 647.341 235.45H644.269C644.142 235.45 644.051 235.425 643.996 235.374C643.941 235.327 643.913 235.264 643.913 235.184C643.913 235.103 643.941 235.038 643.996 234.987C644.051 234.94 644.142 234.917 644.269 234.917H645.938L646.877 233ZM656.488 233L655.828 233.006L654.653 229.579L653.485 233.006L652.825 233L651.721 228.042H651.46C651.333 228.042 651.243 228.017 651.188 227.966C651.132 227.916 651.105 227.85 651.105 227.77C651.105 227.693 651.132 227.63 651.188 227.579C651.243 227.528 651.333 227.503 651.46 227.503H652.927C653.054 227.503 653.145 227.528 653.2 227.579C653.255 227.63 653.282 227.695 653.282 227.776C653.282 227.852 653.255 227.916 653.2 227.966C653.145 228.017 653.054 228.042 652.927 228.042H652.248L653.193 232.27L654.33 228.893H654.964L656.132 232.27L657.04 228.042H656.367C656.24 228.042 656.147 228.017 656.088 227.966C656.033 227.916 656.005 227.85 656.005 227.77C656.005 227.693 656.033 227.63 656.088 227.579C656.143 227.528 656.236 227.503 656.367 227.503H657.827C657.958 227.503 658.051 227.528 658.106 227.579C658.161 227.63 658.189 227.695 658.189 227.776C658.189 227.852 658.161 227.916 658.106 227.966C658.051 228.017 657.958 228.042 657.827 228.042H657.573L656.488 233ZM660.703 225.034V228.315C661.041 227.947 661.365 227.689 661.674 227.541C661.987 227.389 662.336 227.312 662.721 227.312C663.136 227.312 663.487 227.387 663.775 227.535C664.067 227.679 664.31 227.903 664.505 228.208C664.7 228.508 664.797 228.825 664.797 229.16V232.467H665.394C665.525 232.467 665.616 232.492 665.667 232.543C665.722 232.59 665.749 232.653 665.749 232.733C665.749 232.81 665.722 232.873 665.667 232.924C665.616 232.975 665.525 233 665.394 233H663.661C663.529 233 663.436 232.975 663.381 232.924C663.326 232.873 663.299 232.81 663.299 232.733C663.299 232.653 663.326 232.59 663.381 232.543C663.436 232.492 663.529 232.467 663.661 232.467H664.257V229.198C664.257 228.813 664.118 228.491 663.838 228.233C663.563 227.975 663.178 227.846 662.683 227.846C662.294 227.846 661.962 227.941 661.687 228.131C661.488 228.267 661.16 228.586 660.703 229.09V232.467H661.306C661.433 232.467 661.524 232.492 661.579 232.543C661.634 232.59 661.661 232.653 661.661 232.733C661.661 232.81 661.634 232.873 661.579 232.924C661.524 232.975 661.433 233 661.306 233H659.566C659.439 233 659.348 232.975 659.293 232.924C659.238 232.873 659.211 232.81 659.211 232.733C659.211 232.653 659.238 232.59 659.293 232.543C659.348 232.492 659.439 232.467 659.566 232.467H660.169V225.573H659.452C659.325 225.573 659.234 225.548 659.179 225.497C659.124 225.446 659.097 225.381 659.097 225.3C659.097 225.224 659.124 225.161 659.179 225.11C659.234 225.059 659.325 225.034 659.452 225.034H660.703ZM673.15 230.378H667.717C667.81 231.068 668.098 231.625 668.58 232.048C669.067 232.467 669.668 232.676 670.383 232.676C670.781 232.676 671.197 232.611 671.633 232.479C672.069 232.348 672.425 232.175 672.7 231.959C672.78 231.896 672.85 231.864 672.909 231.864C672.977 231.864 673.036 231.891 673.087 231.946C673.138 231.997 673.163 232.058 673.163 232.13C673.163 232.202 673.129 232.272 673.062 232.34C672.858 232.551 672.497 232.75 671.976 232.937C671.46 233.118 670.929 233.209 670.383 233.209C669.469 233.209 668.705 232.911 668.091 232.314C667.482 231.714 667.177 230.988 667.177 230.137C667.177 229.363 667.463 228.698 668.034 228.144C668.61 227.59 669.321 227.312 670.167 227.312C671.039 227.312 671.756 227.598 672.319 228.169C672.882 228.736 673.159 229.473 673.15 230.378ZM672.611 229.839C672.505 229.251 672.226 228.772 671.773 228.404C671.324 228.036 670.789 227.852 670.167 227.852C669.545 227.852 669.01 228.034 668.561 228.398C668.112 228.762 667.833 229.242 667.723 229.839H672.611ZM677.435 227.503V228.849C678.129 228.222 678.647 227.82 678.99 227.643C679.337 227.461 679.657 227.37 679.949 227.37C680.266 227.37 680.56 227.478 680.831 227.693C681.106 227.905 681.244 228.066 681.244 228.176C681.244 228.256 681.216 228.324 681.161 228.379C681.11 228.43 681.045 228.455 680.964 228.455C680.922 228.455 680.886 228.449 680.856 228.436C680.827 228.419 680.772 228.37 680.691 228.29C680.543 228.142 680.414 228.04 680.304 227.985C680.194 227.93 680.086 227.903 679.98 227.903C679.748 227.903 679.466 227.996 679.136 228.182C678.81 228.368 678.243 228.823 677.435 229.547V232.467H679.796C679.928 232.467 680.021 232.492 680.076 232.543C680.131 232.59 680.158 232.653 680.158 232.733C680.158 232.81 680.131 232.873 680.076 232.924C680.021 232.975 679.928 233 679.796 233H675.613C675.486 233 675.395 232.977 675.34 232.93C675.285 232.879 675.258 232.816 675.258 232.74C675.258 232.668 675.283 232.609 675.334 232.562C675.389 232.511 675.482 232.486 675.613 232.486H676.902V228.042H675.918C675.791 228.042 675.7 228.017 675.645 227.966C675.59 227.916 675.562 227.85 675.562 227.77C675.562 227.693 675.588 227.63 675.639 227.579C675.694 227.528 675.787 227.503 675.918 227.503H677.435ZM688.766 230.378H683.332C683.425 231.068 683.713 231.625 684.195 232.048C684.682 232.467 685.283 232.676 685.998 232.676C686.396 232.676 686.813 232.611 687.249 232.479C687.684 232.348 688.04 232.175 688.315 231.959C688.395 231.896 688.465 231.864 688.524 231.864C688.592 231.864 688.651 231.891 688.702 231.946C688.753 231.997 688.778 232.058 688.778 232.13C688.778 232.202 688.744 232.272 688.677 232.34C688.474 232.551 688.112 232.75 687.591 232.937C687.075 233.118 686.544 233.209 685.998 233.209C685.084 233.209 684.32 232.911 683.707 232.314C683.097 231.714 682.792 230.988 682.792 230.137C682.792 229.363 683.078 228.698 683.649 228.144C684.225 227.59 684.936 227.312 685.782 227.312C686.654 227.312 687.371 227.598 687.934 228.169C688.497 228.736 688.774 229.473 688.766 230.378ZM688.226 229.839C688.12 229.251 687.841 228.772 687.388 228.404C686.94 228.036 686.404 227.852 685.782 227.852C685.16 227.852 684.625 228.034 684.176 228.398C683.728 228.762 683.448 229.242 683.338 229.839H688.226ZM693.577 231.47H693.806C694.043 231.47 694.246 231.555 694.415 231.724C694.584 231.889 694.669 232.09 694.669 232.327C694.669 232.573 694.582 232.778 694.409 232.943C694.239 233.108 694.038 233.19 693.806 233.19H693.577C693.34 233.19 693.137 233.108 692.968 232.943C692.799 232.774 692.714 232.57 692.714 232.333C692.714 232.088 692.799 231.883 692.968 231.718C693.141 231.553 693.344 231.47 693.577 231.47Z" fill="#CAE0FF"/>
</g>
<defs>
<clipPath id="clip0_968_54">
<rect width="1200" height="300" fill="white"/>
</clipPath>
</defs>
</svg>
