<svg width="1200" height="1200" viewBox="0 0 1200 1200" fill="none" xmlns="http://www.w3.org/2000/svg">
<path d="M1132 0H68C30.4446 0 0 30.4446 0 68V1132C0 1169.56 30.4446 1200 68 1200H1132C1169.56 1200 1200 1169.56 1200 1132V68C1200 30.4446 1169.56 0 1132 0Z" fill="#0C0E13"/>
<path d="M873.221 494.3H862.105C851.782 421.139 784.046 370.179 710.824 380.508C701.699 381.796 692.725 384.027 684.051 387.14C617.003 292.18 485.605 269.5 390.569 336.509C337.98 373.576 305.243 432.635 301.692 496.845C190.071 509.375 109.748 609.934 122.29 721.465C133.962 825.287 222.523 903.36 327.073 901.982H873.221C985.907 902.939 1078.03 812.458 1078.99 699.862C1079.95 587.267 989.396 495.213 876.711 494.255C875.541 494.24 874.374 494.24 873.219 494.255V494.3H873.221Z" fill="url(#paint0_linear_0_1)"/>
<defs>
<linearGradient id="paint0_linear_0_1" x1="600" y1="298" x2="600" y2="902" gradientUnits="userSpaceOnUse">
<stop stop-color="white"/>
<stop offset="0.43" stop-color="#CAE0FF"/>
<stop offset="1" stop-color="#6597E9"/>
</linearGradient>
</defs>
</svg>
